<?xml version="1.0" standalone="no"?>
<!DOCTYPE svg PUBLIC "-//W3C//DTD SVG 1.1//EN" "http://www.w3.org/Graphics/SVG/1.1/DTD/svg11.dtd" >
<svg>
<metadata>
Created by FontForge 20120731 at Mon Nov 25 10:48:11 2019
 By ffonts
Typeface (c) (your company). 2018. All Rights Reserved
</metadata>
<defs>
<font id="FauxOmniglot" horiz-adv-x="2048" >
  <font-face 
    font-family="Faux Omniglot"
    font-weight="400"
    font-stretch="normal"
    units-per-em="2048"
    panose-1="2 0 5 0 0 0 0 0 0 0"
    ascent="1638"
    descent="-410"
    x-height="956"
    cap-height="1365"
    bbox="-664 -902 4258 2266"
    underline-thickness="150"
    underline-position="-142"
    unicode-range="U+001D-E41F"
  />
<missing-glyph horiz-adv-x="1024" 
d="M100 0v1434h824v-1434h-824zM150 50h724v1334h-724v-1334zM325 1148q31 28 58 43q53 30 112 30q92 0 148 -47.5t56 -127.5q0 -49 -23 -98.5t-87 -129.5q-63 -80 -99 -132t-36 -99q0 -38 24 -133h-32q-35 97 -35 148q0 76 81.5 218t81.5 217q0 57 -33 90t-91 33
q-38 0 -69 -17q-26 -15 -56 -40v45zM389 334l57 58q11 10 20 10q10 0 22 -11l56 -60q9 -11 9 -20q0 -11 -10 -22l-56 -62q-14 -14 -21 -14q-11 0 -20 10l-61 71q-7 9 -7 18q0 10 11 22z" />
    <glyph glyph-name=".notdef" horiz-adv-x="1024" 
d="M100 0v1434h824v-1434h-824zM150 50h724v1334h-724v-1334zM325 1148q31 28 58 43q53 30 112 30q92 0 148 -47.5t56 -127.5q0 -49 -23 -98.5t-87 -129.5q-63 -80 -99 -132t-36 -99q0 -38 24 -133h-32q-35 97 -35 148q0 76 81.5 218t81.5 217q0 57 -33 90t-91 33
q-38 0 -69 -17q-26 -15 -56 -40v45zM389 334l57 58q11 10 20 10q10 0 22 -11l56 -60q9 -11 9 -20q0 -11 -10 -22l-56 -62q-14 -14 -21 -14q-11 0 -20 10l-61 71q-7 9 -7 18q0 10 11 22z" />
    <glyph glyph-name=".null" horiz-adv-x="0" 
 />
    <glyph glyph-name=".null" horiz-adv-x="0" 
 />
    <glyph glyph-name="nonmarkingreturn" horiz-adv-x="508" 
 />
    <glyph glyph-name="space" unicode=" " horiz-adv-x="508" 
 />
    <glyph glyph-name="space" unicode="&#xa0;" horiz-adv-x="508" 
 />
    <glyph glyph-name="exclam" unicode="!" horiz-adv-x="585" 
d="M403 1365l-65 -949h-97l-49 949h211zM393 232v-232h-200v232h200z" />
    <glyph glyph-name="quotedbl" unicode="&#x22;" horiz-adv-x="805" 
d="M340 1431l-64 -467h-105l-26 467h195zM678 1431l-63 -467h-106l-25 467h194z" />
    <glyph glyph-name="numbersign" unicode="#" horiz-adv-x="1268" 
d="M943 834l-42 -297h209v-114h-226l-58 -423h-135l60 423h-307l-58 -423h-135l59 423h-200v114h215l43 297h-208v115h224l58 417h135l-60 -417h308l59 417h134l-60 -417h200v-115h-215zM502 834l-42 -297h307l42 297h-307z" />
    <glyph glyph-name="dollar" unicode="$" horiz-adv-x="1036" 
d="M584 1344q175 -1 329 -57v-216h-99q-27 91 -83 136.5t-147 48.5v-481q140 -67 210 -120t107 -118t37 -153q0 -163 -91 -251.5t-269 -102.5v-186h-104v184q-89 2 -189.5 21t-172.5 46v220h100q24 -103 85.5 -150.5t176.5 -51.5v518l-25 12q-131 63 -194 110.5t-97 106.5
t-34 138q0 76 28 136t76.5 103t113.5 68.5t138 32.5v191h104v-185zM480 815v438q-86 -11 -138.5 -65.5t-52.5 -135.5t44.5 -134.5t146.5 -102.5zM578 592v-476q93 10 143 67.5t50 154.5q0 86 -46 145t-147 109zM1036 1365z" />
    <glyph glyph-name="percent" unicode="%" horiz-adv-x="1822" 
d="M409 517q-153 0 -228.5 106t-75.5 319q0 148 40.5 246.5t111 145.5t163.5 47q87 0 146 -31t95.5 -86.5t52 -133t15.5 -170.5q0 -219 -82.5 -331t-237.5 -112zM253 959q0 -194 40 -282t127 -88q82 0 121.5 82t39.5 262q0 192 -39.5 284t-122.5 92q-63 0 -99.5 -42
t-51.5 -118.5t-15 -189.5zM1426 1365l-882 -1461h-147l884 1461h145zM1397 -112q-153 0 -228.5 106t-75.5 319q0 148 40.5 246.5t111 145.5t163.5 47q87 0 146 -31t95.5 -86.5t52 -133t15.5 -170.5q0 -219 -82.5 -331t-237.5 -112zM1241 330q0 -194 40 -282t127 -88
q82 0 121.5 82t39.5 262q0 192 -39.5 284t-122.5 92q-63 0 -99.5 -42t-51.5 -118.5t-15 -189.5z" />
    <glyph glyph-name="ampersand" unicode="&#x26;" horiz-adv-x="1408" 
d="M894 136q-102 -82 -197.5 -117t-211.5 -35q-121 0 -211 41.5t-137.5 117.5t-47.5 179q0 82 30.5 148.5t98 129.5t183.5 130q-73 96 -104 174.5t-31 160.5q0 93 48 164.5t136.5 111.5t196.5 40q67 0 125.5 -13.5t102 -43.5t68.5 -78t25 -117q0 -33 -7 -63.5t-21 -58
t-36.5 -56.5t-62 -63t-100.5 -72t-135 -80q50 -67 150 -186t201 -230q67 69 99.5 138t32.5 142q0 52 -24 78t-77 32v49h285v-49q0 -14 -10 -59q-6 -29 -15 -58q-9 -28 -21 -56t-27 -55q-15 -29 -34 -57t-41 -56q-23 -29 -51 -58q-27 -29 -58 -58q49 -57 85.5 -89t65 -45.5
t59.5 -13.5q30 0 57.5 14t73.5 53l46 -57q-60 -62 -125.5 -96.5t-125.5 -34.5q-49 0 -85.5 13t-74.5 43t-98 96zM550 804q128 68 193.5 146t65.5 163q0 57 -21.5 98.5t-61.5 63t-91 21.5q-59 0 -104.5 -25.5t-71 -74t-25.5 -114.5q0 -61 25.5 -125t90.5 -153zM456 658
q-98 -64 -143 -134.5t-45 -160.5q0 -83 34 -143.5t93 -90.5t133 -30q87 0 157 23t149 81q-32 36 -92 106l-165 197q-41 50 -73 90z" />
    <glyph glyph-name="quotesingle" unicode="'" horiz-adv-x="485" 
d="M358 1431l-73 -477h-106l-34 477h213z" />
    <glyph glyph-name="parenleft" unicode="(" horiz-adv-x="782" 
d="M739 -435q-170 0 -277.5 51t-167.5 155.5t-87 271.5t-27 453q0 284 26.5 452.5t86.5 274.5t168 159t278 53v-82q-70 0 -124 -12q-61 -14 -104 -54q-48 -44 -78 -123q-35 -92 -52 -244q-18 -161 -18 -416q0 -225 15 -382.5t50 -257.5q28 -84 70 -131q37 -41 88 -62
q59 -24 153 -24v-82z" />
    <glyph glyph-name="parenright" unicode=")" horiz-adv-x="782" 
d="M43 1435q170 0 277.5 -51t167.5 -155.5t87 -271.5t27 -453q0 -284 -26.5 -452.5t-86.5 -274.5t-168 -159t-278 -53v82q70 0 124 12q61 14 104 54q48 44 78 123q35 92 52 244q18 161 18 416q0 225 -15 382.5t-50 257.5q-28 84 -70 131q-37 41 -88 62q-59 24 -153 24v82z
" />
    <glyph glyph-name="asterisk" unicode="*" horiz-adv-x="875" 
d="M797 920l-65 -111l-257 181l29 -313h-132l30 313l-258 -181l-66 111l286 134l-286 133l66 112l258 -181l-30 313h132l-29 -313l257 181l65 -112l-285 -133z" />
    <glyph glyph-name="plus" unicode="+" horiz-adv-x="1134" 
d="M640 516v-379h-147v379h-369v139h369v378h147v-378h370v-139h-370z" />
    <glyph glyph-name="comma" unicode="," horiz-adv-x="420" 
d="M309 232q14 -70 14 -138q0 -70 -24 -128t-76.5 -115.5t-144.5 -126.5l-54 61q51 48 74 86.5t33 87.5t10 123q0 76 -7 150h175z" />
    <glyph glyph-name="hyphen" unicode="-" horiz-adv-x="680" 
d="M572 449h-464v155h464v-155z" />
    <glyph glyph-name="hyphen" unicode="&#xad;" horiz-adv-x="680" 
d="M572 449h-464v155h464v-155z" />
    <glyph glyph-name="period" unicode="." horiz-adv-x="420" 
d="M311 232v-232h-202v232h202z" />
    <glyph glyph-name="slash" unicode="/" horiz-adv-x="1004" 
d="M941 1431l-722 -1861h-157l724 1861h155z" />
    <glyph glyph-name="zero" unicode="0" horiz-adv-x="1134" 
d="M556 -16q-216 0 -321.5 170t-105.5 516q0 184 32.5 318t91 221.5t140.5 129.5t179 42q219 0 326 -169t107 -511q0 -354 -114.5 -535.5t-334.5 -181.5zM324 700q0 -326 60.5 -478.5t187.5 -152.5q121 0 179.5 143.5t58.5 444.5q0 230 -30 372.5t-83.5 204.5t-129.5 62
q-69 0 -115.5 -41t-75 -118t-40.5 -187.5t-12 -249.5z" />
    <glyph glyph-name="one" unicode="1" horiz-adv-x="1134" 
d="M695 261q0 -58 6.5 -87.5t23 -48t47.5 -29t78 -16t124 -7.5v-73h-739v73q111 5 158.5 13.5t72.5 25.5t36.5 48t11.5 101v811q0 40 -14 58.5t-41 18.5q-32 0 -91 -33t-146 -91l-44 77l468 279h55q-6 -96 -6 -266v-854z" />
    <glyph glyph-name="two" unicode="2" horiz-adv-x="1134" 
d="M702 160q49 0 79 6t48 20t28.5 36.5t26.5 69.5h85l-17 -292h-823v48q43 105 116 215t207 259q116 128 167 194q56 72 83.5 124.5t39.5 99t12 93.5q0 75 -24 132.5t-73.5 90.5t-124.5 33q-187 0 -252 -208h-121v192q121 57 226.5 82.5t189.5 25.5q186 0 281 -81.5
t95 -236.5q0 -53 -10.5 -97.5t-33 -88t-60.5 -93.5t-84 -101.5t-159 -171.5q-190 -201 -279 -351h377z" />
    <glyph glyph-name="three" unicode="3" horiz-adv-x="1134" 
d="M159 1082v190q116 55 217 82t195 27q113 0 198 -35t130 -100.5t45 -156.5q0 -85 -34 -149.5t-95.5 -112.5t-159.5 -94v-9q61 -11 117.5 -37.5t100.5 -68.5t70.5 -100.5t26.5 -133.5q0 -116 -50.5 -206t-154.5 -142t-253 -52q-86 0 -185.5 19.5t-182.5 51.5v212h120
q35 -104 92.5 -151t156.5 -47q130 0 196.5 71t66.5 210q0 146 -88 223t-258 77h-90v88q135 8 227.5 52t137.5 113t45 155q0 111 -59 171t-172 60q-94 0 -153 -51t-87 -156h-120z" />
    <glyph glyph-name="four" unicode="4" horiz-adv-x="1134" 
d="M516 49q62 16 83 35.5t27.5 55.5t6.5 110v164h-556v75l585 883h143v-861h21q58 0 83 8.5t41.5 30t30.5 70.5h76l-12 -206h-240v-164q0 -67 4.5 -98t15 -49t31 -30t66.5 -24v-49h-406v49zM242 511h391v249q0 94 3 210.5t7 175.5h-10l-391 -621v-14z" />
    <glyph glyph-name="five" unicode="5" horiz-adv-x="1134" 
d="M150 55v212h121q30 -102 90.5 -150t156.5 -48q133 0 201 80t68 239q0 106 -36 175.5t-97 100.5t-142 31q-68 0 -117 -8.5t-105 -26.5l-80 47v658h551q34 0 49 5.5t24 17t21 43.5h78l-15 -232h-575v-439q52 22 113 33t122 11q119 0 211 -48.5t142 -138t50 -207.5
q0 -134 -56 -230t-162 -146t-251 -50q-173 0 -362 71z" />
    <glyph glyph-name="six" unicode="6" horiz-adv-x="1134" 
d="M911 1326v-49q-154 0 -273 -66t-197.5 -194t-110.5 -304l10 -4q84 60 165.5 88t176.5 28q113 0 192.5 -49.5t119.5 -139t40 -209.5q0 -130 -50 -229.5t-154.5 -156.5t-257.5 -57q-219 0 -330.5 136t-111.5 401q0 178 56 333t159 270.5t239 182t286 74.5zM613 720
q-49 0 -94.5 -11t-85.5 -32t-78 -53q-12 -11 -18 -23q-10 -19 -13 -47t-3 -94q0 -191 64 -291t194 -100q75 0 126 26t82.5 71.5t45 107t13.5 133.5q0 148 -61 230.5t-172 82.5z" />
    <glyph glyph-name="seven" unicode="7" horiz-adv-x="1134" 
d="M1026 1317l-582 -1324h-145v49l539 1141v15h-440q-41 0 -65.5 -7.5t-41 -21.5t-27.5 -37t-30 -91h-86l20 324h858v-48z" />
    <glyph glyph-name="eight" unicode="8" horiz-adv-x="1134" 
d="M792 721l2 -13q113 -44 171 -128.5t58 -203.5q0 -117 -56 -206t-162.5 -137.5t-248.5 -48.5q-133 0 -233.5 44.5t-156 130t-55.5 201.5q0 87 30 151t78.5 105.5t122.5 75.5l-2 13q-215 93 -215 319q0 103 56.5 184t161 127t231.5 46q144 0 242 -40.5t147.5 -117
t49.5 -183.5q0 -110 -54 -189.5t-167 -129.5zM313 1033q0 -59 14 -111t45 -90t80.5 -60.5t121.5 -22.5q83 0 139.5 32.5t84 95t27.5 144.5q0 90 -32.5 152.5t-89.5 92.5t-131 30q-126 0 -192.5 -68.5t-66.5 -194.5zM302 377q0 -65 15 -121.5t47.5 -97.5t83.5 -65t124 -24
q82 0 140.5 33.5t89 99.5t30.5 156q0 96 -33 165.5t-93 106t-139 36.5q-74 0 -124.5 -23t-82 -62t-45 -91.5t-13.5 -112.5z" />
    <glyph glyph-name="nine" unicode="9" horiz-adv-x="1134" 
d="M313 39v49q140 0 242.5 62t165 183.5t83.5 318.5l-10 4q-84 -60 -165.5 -88t-176.5 -28q-113 0 -192.5 49.5t-119.5 139t-40 209.5q0 90 30 170.5t89 141t147.5 96t206.5 35.5q210 0 320 -145t110 -417q0 -249 -81 -431.5t-227 -284t-341 -119.5zM521 645q38 0 72.5 6.5
t67.5 19t64.5 32t56.5 41.5q9 8 16 21t11 34t4 66q0 137 -27.5 234.5t-84 147t-139.5 49.5q-75 0 -127 -26t-84.5 -71.5t-47.5 -107t-15 -133.5q0 -149 61 -231t172 -82z" />
    <glyph glyph-name="colon" unicode=":" horiz-adv-x="540" 
d="M370 903v-234h-200v234h200zM370 232v-232h-200v232h200z" />
    <glyph glyph-name="semicolon" unicode=";" horiz-adv-x="540" 
d="M358 232q14 -70 14 -138q0 -70 -24 -128t-76.5 -115.5t-144.5 -126.5l-54 61q51 48 74 86.5t33 87.5t10 123q0 76 -7 150h175zM370 903v-234h-200v234h200z" />
    <glyph glyph-name="semicolon" unicode="&#x37e;" horiz-adv-x="540" 
d="M358 232q14 -70 14 -138q0 -70 -24 -128t-76.5 -115.5t-144.5 -126.5l-54 61q51 48 74 86.5t33 87.5t10 123q0 76 -7 150h175zM370 903v-234h-200v234h200z" />
    <glyph glyph-name="less" unicode="&#x3c;" horiz-adv-x="1134" 
d="M124 515v140l886 381v-150l-738 -301l738 -301v-150z" />
    <glyph glyph-name="equal" unicode="=" horiz-adv-x="1134" 
d="M124 723v139h886v-139h-886zM124 308v139h886v-139h-886z" />
    <glyph glyph-name="greater" unicode="&#x3e;" horiz-adv-x="1134" 
d="M124 134v150l738 301l-738 301v150l886 -381v-140z" />
    <glyph glyph-name="question" unicode="?" horiz-adv-x="865" 
d="M316 416v34q0 41 5 66t17.5 53.5t39 67.5t75.5 100q58 74 83.5 120t38.5 95.5t13 110.5q0 77 -21 130.5t-59 80.5t-88 27q-79 0 -126.5 -47t-65.5 -141h-136v164q114 58 193.5 81t156.5 23q120 0 198.5 -36t114 -98t35.5 -143q0 -41 -7.5 -75.5t-22.5 -67.5t-38 -67.5
t-51.5 -69.5t-99.5 -118q-53 -62 -77 -99.5t-34 -73t-10 -92.5v-25h-134zM485 232v-232h-200v232h200z" />
    <glyph glyph-name="at" unicode="@" horiz-adv-x="1813" 
d="M1074 422l-13 1q-84 -126 -159.5 -184t-153.5 -58q-65 0 -112 33.5t-70.5 95.5t-23.5 145q0 81 19.5 164t58 158t92 131.5t125 91t154.5 34.5q59 0 107.5 -13.5t91.5 -40.5l78 54l64 -15l-111 -501q-10 -44 -14.5 -73t-4.5 -56q0 -115 96 -115q71 0 126 57.5t85 159
t30 220.5q0 187 -60.5 315.5t-180.5 194.5t-291 66q-211 0 -369.5 -94.5t-244.5 -269.5t-86 -399q0 -194 66.5 -325t193.5 -196.5t304 -65.5q86 0 157.5 12t152.5 38l24 -90q-64 -25 -153.5 -39t-185.5 -14q-250 0 -412.5 82t-239.5 236t-77 376q0 173 60 327t176 271.5
t275 181t348 63.5q182 0 316.5 -50t216 -139t118.5 -200.5t37 -243.5q0 -166 -50 -296t-141.5 -200.5t-212.5 -70.5q-42 0 -80 10.5t-66.5 33.5t-45.5 60t-17 90q0 24 3 47zM1109 721q8 36 10.5 62t2.5 52q0 64 -27 92t-89 28q-35 0 -66.5 -11.5t-64.5 -38t-62.5 -69
t-53.5 -104t-37.5 -133t-13.5 -137.5q0 -85 23 -127t76 -42q42 0 83.5 30.5t88 90.5t76 122.5t46.5 147.5z" />
    <glyph glyph-name="A" unicode="A" horiz-adv-x="1276" 
d="M796 0v49q50 10 74.5 22t36.5 33.5t12 57.5q0 34 -8 73.5t-23 88.5l-37 129h-466l-34 -98q-26 -74 -34 -112t-8 -69q0 -60 30.5 -88t93.5 -37v-49h-427v49q56 9 97.5 65t80.5 160l417 1107h158l340 -1115q24 -78 42.5 -119t44.5 -64t71 -34v-49h-461zM412 540h418
l-190 645z" />
    <glyph glyph-name="B" unicode="B" horiz-adv-x="1252" 
d="M121 0v49q62 16 83 35.5t27.5 55.5t6.5 110v865q0 69 -5 100.5t-16.5 49t-30.5 28t-65 23.5v49h547q159 0 255.5 -34t143.5 -100.5t47 -171.5q0 -87 -33.5 -151t-87.5 -106t-139 -78v-9q136 -41 206 -126.5t70 -203.5q0 -136 -60.5 -222t-169.5 -124.5t-264 -38.5h-515z
M600 753q152 0 232.5 73.5t80.5 213.5q0 69 -22.5 114.5t-62 72.5t-93.5 38.5t-117 11.5q-38 0 -100 -2t-93 -4v-518h175zM425 95q73 -7 163 -7q131 0 203.5 33t105 97.5t32.5 161.5t-35.5 160t-109.5 94t-204 31h-155v-570z" />
    <glyph glyph-name="C" unicode="C" horiz-adv-x="1152" 
d="M1042 1336v-277h-99q-24 87 -61 138.5t-86 73.5t-118 22q-103 0 -183.5 -68.5t-126.5 -206t-46 -332.5q0 -196 38 -334.5t112 -209t182 -70.5q82 0 134 23.5t87.5 74.5t67.5 150h99v-286q-94 -25 -192.5 -37.5t-216.5 -12.5q-254 0 -384 172t-130 513q0 214 67.5 375
t198.5 249t313 88q91 0 168 -9.5t176 -35.5z" />
    <glyph glyph-name="D" unicode="D" horiz-adv-x="1355" 
d="M120 0v49q46 12 66 23t31 28t16 49t5 101v865q0 70 -5 101.5t-16.5 48.5t-30.5 27.5t-66 23.5v49h438q189 0 309.5 -41.5t203.5 -122.5t124 -201.5t41 -287.5q0 -169 -38.5 -297.5t-112.5 -215.5q-64 -76 -157 -125q-77 -40 -178 -57t-268 -17h-362zM425 93q40 -4 118 -4
q84 0 150 14t120 44t97 83.5t70 123t39.5 154.5t12.5 186q0 203 -58.5 333.5t-165 190.5t-254.5 60q-68 0 -129 -4v-1181z" />
    <glyph glyph-name="E" unicode="E" horiz-adv-x="1178" 
d="M1056 1365v-302h-98q-15 49 -31 86t-33 62t-37.5 40t-48.5 20.5t-67 5.5h-316v-524h214q44 0 69 12.5t41.5 42.5t31.5 94h94v-384h-94q-14 60 -31 90.5t-40.5 43.5t-70.5 13h-214v-577h311q49 0 79.5 8.5t52.5 29t39 53.5t28.5 68.5t31.5 103.5h99l-19 -351h-926v49
q62 16 83 35.5t27.5 55.5t6.5 110v865q0 69 -5 100.5t-16.5 49t-30.5 28t-65 23.5v49h935z" />
    <glyph glyph-name="F" unicode="F" horiz-adv-x="1099" 
d="M1033 1365v-302h-98q-22 68 -42.5 110t-43 64t-52.5 31t-79 9h-293v-544h206q44 0 69 14.5t41.5 48.5t31.5 105h94v-422h-94q-15 68 -32 102.5t-40.5 49t-69.5 14.5h-206v-392q0 -60 7 -96t23 -57t43 -31.5t67 -19.5v-49h-444v49q62 16 83 35.5t27.5 55.5t6.5 110v865
q0 69 -5 100.5t-16.5 49t-30.5 28t-65 23.5v49h912z" />
    <glyph glyph-name="G" unicode="G" horiz-adv-x="1251" 
d="M1078 5l-78 -21l-73 78q-65 -40 -136 -59t-163 -19q-253 0 -381 173.5t-128 515.5q0 213 70 374t201 247.5t308 86.5q93 0 179 -10.5t191 -36.5v-275h-99q-27 90 -64 140.5t-88.5 72t-130.5 21.5q-109 0 -191 -70t-127.5 -206.5t-45.5 -329.5q0 -196 38.5 -335
t114.5 -209.5t187 -70.5q118 0 175 51.5t57 158.5v60q0 90 -9.5 130t-33.5 62t-79 36v49h404v-49q-36 -12 -54 -27.5t-27.5 -38.5t-13 -56.5t-3.5 -95.5v-347z" />
    <glyph glyph-name="H" unicode="H" horiz-adv-x="1406" 
d="M1168 250q0 -58 3 -87t10 -46.5t17 -28.5t28.5 -20t57.5 -19v-49h-419v49q55 14 77 31t30.5 52t8.5 118v419h-556v-419q0 -67 4.5 -98t15 -49t31 -30t66.5 -24v-49h-421v49q62 16 83 35.5t27.5 55.5t6.5 110v865q0 69 -5 100.5t-16.5 49t-30.5 28t-65 23.5v49h421v-49
q-44 -11 -63.5 -22t-31 -27.5t-17 -49.5t-5.5 -102v-354h556v354q0 87 -8.5 119t-28.5 49t-79 33v49h419v-49q-56 -14 -78 -31.5t-30 -52.5t-8 -117v-865z" />
    <glyph glyph-name="I" unicode="I" horiz-adv-x="664" 
d="M426 250q0 -67 4.5 -98t15 -49t31 -30t66.5 -24v-49h-422v49q62 16 83 35.5t27.5 55.5t6.5 110v865q0 69 -5 100.5t-16.5 49t-30.5 28t-65 23.5v49h422v-49q-44 -11 -63.5 -22t-31 -27.5t-17 -49.5t-5.5 -102v-865z" />
    <glyph glyph-name="J" unicode="J" horiz-adv-x="628" 
d="M408 68q0 -135 -31.5 -219t-106 -142t-208.5 -99l-33 88q88 34 125 68.5t51.5 86.5t14.5 140v1124q0 87 -8.5 119t-28 49t-80.5 33v49h422v-49q-44 -11 -63.5 -22t-31 -27.5t-17 -49.5t-5.5 -102v-1047z" />
    <glyph glyph-name="K" unicode="K" horiz-adv-x="1289" 
d="M424 748h30q38 0 69.5 12t70.5 45t119 123q96 107 131 155q44 57 59 96q12 29 12 56q0 40 -23 58.5t-63 22.5v49h436v-49q-32 -7 -63 -24.5t-63.5 -48t-95.5 -100.5l-336 -378l364 -529q58 -84 91 -117.5t63 -49t64 -20.5v-49h-441v49q37 3 54 14t17 33q0 18 -11.5 43.5
t-36.5 61.5l-233 347q-41 62 -60 82t-41 29.5t-59 9.5h-53v-419q0 -67 4.5 -98t15 -49t31 -30t66.5 -24v-49h-421v49q62 16 83 35.5t27.5 55.5t6.5 110v865q0 69 -5 100.5t-16.5 49t-30.5 28t-65 23.5v49h421v-49q-44 -11 -63.5 -22t-31 -27.5t-17 -49.5t-5.5 -102z" />
    <glyph glyph-name="L" unicode="L" horiz-adv-x="1099" 
d="M425 92h262q43 0 72 5t49.5 15.5t37 29t31.5 48.5t28.5 75.5t33.5 136.5h101l-20 -402h-899v49q62 16 83 35.5t27.5 55.5t6.5 110v865q0 69 -5 100.5t-16.5 49t-30.5 28t-65 23.5v49h421v-49q-44 -12 -62.5 -21.5t-30.5 -25.5t-18 -49t-6 -105v-1023z" />
    <glyph glyph-name="M" unicode="M" horiz-adv-x="1670" 
d="M1549 1316q-44 -11 -63.5 -22t-31 -27.5t-17 -49.5t-5.5 -102v-865q0 -67 4.5 -98t15 -49t31 -30t66.5 -24v-49h-417v49q57 14 79 32t30 53t8 116v383q0 151 4.5 305.5t10.5 211.5h-17l-396 -991h-115l-368 1007h-17q5 -61 9.5 -221t4.5 -329v-366q0 -67 4.5 -98t15 -49
t31 -30t66.5 -24v-49h-365v49q62 16 83 35.5t27.5 55.5t6.5 110v865q0 69 -5 100.5t-16.5 49t-30.5 28t-65 23.5v49h357l351 -973l386 973h338v-49z" />
    <glyph glyph-name="N" unicode="N" horiz-adv-x="1394" 
d="M924 541q36 -60 60.5 -105t50.5 -101h13q-5 61 -9 242.5t-4 327.5v210q0 69 -4 101t-14.5 49t-29 27.5t-64.5 23.5v49h360v-49q-45 -12 -63.5 -22t-30 -26t-17.5 -48t-6 -105v-1121h-125l-557 934q-52 87 -74 127t-41 79h-17q7 -77 10 -278.5t3 -401.5v-204
q0 -67 4.5 -98t15 -49t31 -30t66.5 -24v-49h-365v49q62 16 83 35.5t27.5 55.5t6.5 110v865q0 69 -5 100.5t-16.5 49t-30.5 28t-65 23.5v49h313z" />
    <glyph glyph-name="O" unicode="O" horiz-adv-x="1338" 
d="M654 -16q-120 0 -218.5 39.5t-169 123t-109 213.5t-38.5 311q0 223 68 383t194.5 243.5t293.5 83.5q178 0 299.5 -78.5t183 -231t61.5 -371.5q0 -234 -70 -395t-197.5 -241t-297.5 -80zM325 699q0 -307 89.5 -467t261.5 -160q109 0 185 69.5t114 203.5t38 313
q0 218 -44.5 361.5t-121.5 208.5t-179 65q-90 0 -154.5 -42t-107 -119.5t-62 -187.5t-19.5 -245z" />
    <glyph glyph-name="P" unicode="P" horiz-adv-x="1163" 
d="M425 253q0 -59 6.5 -94t20 -55.5t36.5 -32t72 -22.5v-49h-439v49q62 16 83 35.5t27.5 55.5t6.5 110v865q0 69 -5 100.5t-16.5 49t-30.5 28t-65 23.5v49h496q234 0 348.5 -89.5t114.5 -272.5q0 -104 -36 -187t-102 -136t-156 -76t-189 -23q-111 0 -172 4v-332zM425 668
h116q113 0 186.5 29.5t112.5 98t39 181.5q0 86 -23 143.5t-63.5 92.5t-96.5 49.5t-122 14.5q-99 0 -149 -4v-605z" />
    <glyph glyph-name="Q" unicode="Q" horiz-adv-x="1338" 
d="M832 9l35 -51q27 -39 51 -70.5t51.5 -60t52 -46t46.5 -25t42 -7.5q55 0 95 20.5t77 56.5l48 -62q-78 -78 -145 -112t-138 -34q-57 0 -94 11t-73.5 36t-81.5 76t-104 139l-71 105q-249 12 -376.5 187t-127.5 499q0 223 68 383t194.5 243.5t293.5 83.5q178 0 299.5 -78.5
t183 -231t61.5 -371.5q0 -278 -99 -455.5t-288 -235.5zM325 699q0 -307 89.5 -467t261.5 -160q109 0 185 69.5t114 203.5t38 313q0 218 -44.5 361.5t-121.5 208.5t-179 65q-90 0 -154.5 -42t-107 -119.5t-62 -187.5t-19.5 -245z" />
    <glyph glyph-name="R" unicode="R" horiz-adv-x="1272" 
d="M426 593v-340q0 -72 5.5 -104.5t16.5 -49t30 -27t65 -23.5v-49h-422v49q62 16 83 35.5t27.5 55.5t6.5 110v865q0 69 -5 100.5t-16.5 49t-30.5 28t-65 23.5v49h495q234 0 350 -85t116 -264q0 -137 -75.5 -233t-226.5 -150v-8q61 -25 104.5 -71.5t96.5 -144.5l90 -164
q39 -72 67 -110t57 -58t77 -28v-49h-277q-38 53 -72 114t-67 124l-88 167q-40 76 -65.5 112t-47 50.5t-46 20t-73.5 5.5h-110zM426 1273v-594h113q87 0 141 12.5t100 47.5t73.5 97.5t27.5 153.5q0 95 -32.5 158t-98.5 96t-178 33q-90 0 -146 -4z" />
    <glyph glyph-name="S" unicode="S" horiz-adv-x="1016" 
d="M212 311q20 -88 54 -139t88 -75.5t139 -24.5q117 0 179.5 61t62.5 178q0 75 -26 126t-85 96t-180 105q-117 58 -185 113.5t-101.5 120.5t-33.5 142q0 112 52.5 194.5t154 127.5t232.5 45q76 0 148.5 -8t181.5 -36v-270h-99q-23 88 -58 137t-82 68.5t-122 19.5
q-65 0 -116.5 -24t-81.5 -72.5t-30 -115.5q0 -71 25.5 -120t79.5 -91t160 -94q128 -64 198.5 -119t110 -125.5t39.5 -164.5q0 -105 -33 -177.5t-91.5 -118t-140 -66t-178.5 -20.5q-157 0 -362 53v274h100z" />
    <glyph glyph-name="T" unicode="T" horiz-adv-x="1214" 
d="M66 1365h1082v-348h-98q-22 86 -43.5 136t-45.5 76t-51.5 37t-82.5 11h-127v-1024q0 -59 6.5 -94t20 -55.5t36.5 -32t72 -22.5v-49h-457v49q30 7 53 15t37.5 19.5t24 29.5t15 49t5.5 91v1024h-126q-47 0 -77.5 -9t-56.5 -37.5t-47.5 -81t-40.5 -132.5h-99v348z" />
    <glyph glyph-name="U" unicode="U" horiz-adv-x="1327" 
d="M1125 472q0 -109 -20 -188q-19 -75 -57 -133q-35 -52 -87 -88.5t-126 -57.5t-174 -21q-121 0 -207.5 27t-143 88.5t-81.5 145t-25 212.5v658q0 78 -5 105.5t-14.5 43.5t-27.5 27.5t-67 24.5v49h420v-49q-56 -14 -78 -31.5t-30 -52.5t-8 -117v-708q0 -97 20.5 -163
t57.5 -102.5t88 -53t127 -16.5q70 0 123 24.5t88.5 74.5t48.5 123t13 196v625q0 87 -8.5 119t-28 49t-80.5 33v49h399v-49q-58 -15 -79.5 -33t-29.5 -52t-8 -116v-643z" />
    <glyph glyph-name="V" unicode="V" horiz-adv-x="1236" 
d="M474 1365v-49q-46 -8 -70 -20t-36 -34t-12 -59q0 -34 8 -73.5t23 -88.5l234 -816l287 822q6 19 12 40t10.5 41t6 35t1.5 28q0 60 -27.5 87.5t-93.5 37.5v49h420v-49q-41 -10 -66 -29t-49.5 -61t-59.5 -134l-415 -1108h-131l-337 1115q-27 91 -47 129.5t-44 58t-66 29.5
v49h452z" />
    <glyph glyph-name="W" unicode="W" horiz-adv-x="1887" 
d="M941 1110l-320 -1117h-162l-291 1086q-18 68 -33 111t-30 67.5t-32.5 37t-50.5 21.5v49h428v-49q-62 -12 -86.5 -36t-24.5 -67q0 -35 9 -83t25 -109l201 -790l322 1134h168l261 -1135l236 763q43 139 43 198q0 61 -25.5 88t-84.5 37v49h394v-49q-30 -10 -48 -22.5
t-34.5 -34t-36 -66.5t-45.5 -121l-364 -1079h-143z" />
    <glyph glyph-name="X" unicode="X" horiz-adv-x="1170" 
d="M481 1365v-49q-48 -7 -69 -26t-21 -52q0 -28 19 -70t54 -100l145 -243l143 231q32 52 48 83t22.5 52t6.5 43q0 31 -18 52.5t-60 29.5v49h371v-49q-37 -12 -66.5 -35t-63 -67t-95.5 -139l-226 -350l254 -418q54 -89 77.5 -124.5t44 -60t44 -42.5t58.5 -31v-49h-439v49
q46 8 68 25.5t22 52.5q0 28 -14.5 62t-44.5 84l-181 302l-191 -313q-48 -79 -48 -130q0 -33 18 -54t60 -29v-49h-378v49q37 11 61 26.5t46 39.5t49 61t86 129l236 368l-282 464q-40 64 -60.5 93t-38 47t-31.5 25.5t-32 13.5v49h426z" />
    <glyph glyph-name="Y" unicode="Y" horiz-adv-x="1168" 
d="M482 573l-276 513q-50 93 -76 133t-52 63t-60 34v49h426v-49q-94 -11 -94 -81q0 -29 13.5 -65t48.5 -102l200 -381l197 348q40 71 56.5 116.5t16.5 83.5q0 36 -21.5 56.5t-63.5 24.5v49h379v-49q-41 -15 -72 -41.5t-63 -71.5t-94 -152l-278 -474v-324q0 -57 6 -92t20 -56
t37 -33t72 -23v-49h-457v49q48 10 71 21.5t37 33t20.5 56.5t6.5 93v320z" />
    <glyph glyph-name="Z" unicode="Z" horiz-adv-x="1101" 
d="M327 92h361q67 0 99.5 12.5t53.5 39t38 74.5t41 149h98v-367h-924v49l685 1224h-363q-39 0 -61.5 -6.5t-40.5 -20t-35.5 -39.5t-35 -71.5t-36.5 -113.5h-98v343h902v-48z" />
    <glyph glyph-name="bracketleft" unicode="[" horiz-adv-x="717" 
d="M674 -430h-446v1861h446v-82h-270v-1697h270v-82z" />
    <glyph glyph-name="backslash" unicode="\" horiz-adv-x="1004" 
d="M62 1431h155l724 -1861h-157z" />
    <glyph glyph-name="bracketright" unicode="]" horiz-adv-x="717" 
d="M489 -430h-446v82h270v1697h-270v82h446v-1861z" />
    <glyph glyph-name="asciicircum" unicode="^" horiz-adv-x="1134" 
d="M825 675l-258 569l-258 -569h-152l338 706h144l338 -706h-152z" />
    <glyph glyph-name="underscore" unicode="_" horiz-adv-x="759" 
d="M0 -241v116h759v-116h-759z" />
    <glyph glyph-name="grave" unicode="`" horiz-adv-x="1024" 
d="M673 1079h-69l-330 202q-31 20 -46.5 40t-15.5 42q0 31 20.5 51t53.5 20q20 0 40.5 -12t55.5 -47z" />
    <glyph glyph-name="a" unicode="a" horiz-adv-x="1000" 
d="M675 143l-15 4q-87 -89 -163.5 -126t-162.5 -37q-76 0 -134 29.5t-89 83t-31 123.5q0 146 144.5 225.5t433.5 92.5v65q0 104 -20 164t-63 88t-115 28q-78 0 -125.5 -41t-71.5 -123h-131v130q96 50 160 73.5t128 37t130 13.5q99 0 159 -31.5t90 -96.5t30 -196v-348
q0 -74 1 -104.5t6 -56.5t15 -41.5t29.5 -26.5t63.5 -23v-49h-274zM658 456q-203 -2 -304 -54t-101 -157q0 -57 23 -90t58 -45.5t83 -12.5q68 0 123.5 33t86.5 84t31 101v141z" />
    <glyph glyph-name="b" unicode="b" horiz-adv-x="1121" 
d="M349 799l4 -1q70 73 116.5 106t96 50.5t108.5 17.5q107 0 183.5 -54.5t118 -163.5t41.5 -267q0 -163 -49.5 -275.5t-146 -170t-228.5 -57.5q-74 0 -139.5 13.5t-137.5 47.5l-70 -61l-69 16v1087q0 96 -1.5 134t-8 64.5t-18 41.5t-31 24t-70.5 18v52l242 10h59v-632z
M349 360q0 -77 7 -122.5t23.5 -75.5t48 -55t70.5 -34.5t87 -9.5q120 0 182 98t62 294q0 198 -56.5 297.5t-170.5 99.5q-57 0 -97 -17.5t-79.5 -54.5t-58 -73t-18.5 -82v-265z" />
    <glyph glyph-name="c" unicode="c" horiz-adv-x="903" 
d="M842 933v-209h-127q-17 65 -42 102.5t-58 52.5t-82 15q-70 0 -124 -45t-85.5 -137t-31.5 -225q0 -85 12 -155.5t41 -120.5t77 -78t119 -28q69 0 128.5 27t123.5 95l57 -66q-51 -56 -90 -86.5t-83.5 -51t-88 -30t-94.5 -9.5q-189 0 -289 125.5t-100 362.5q0 148 56 262.5
t157 176.5t233 62q82 0 151.5 -9.5t139.5 -30.5z" />
    <glyph glyph-name="d" unicode="d" horiz-adv-x="1136" 
d="M772 1087q0 96 -1.5 134t-8 64.5t-18 41.5t-31 24t-70.5 18v52l242 10h59v-1158q0 -78 3 -111.5t13 -53.5t31.5 -32.5t75.5 -23.5v-52l-236 -10h-60l12 164l-15 4q-63 -67 -109.5 -100.5t-99 -53.5t-112.5 -20q-164 0 -253 124.5t-89 359.5q0 164 58 278.5t156.5 170.5
t221.5 56q66 0 120 -10.5t111 -34.5v159zM772 593q0 78 -7 125t-23.5 79t-44.5 54t-61.5 32t-80.5 10q-128 0 -195 -102.5t-67 -294.5t55 -292t167 -100q44 0 73 7.5t57 24t57 45.5t42.5 53t20.5 55t7 80v224z" />
    <glyph glyph-name="e" unicode="e" horiz-adv-x="999" 
d="M896 170q-64 -67 -117.5 -105t-117.5 -59.5t-141 -21.5q-206 0 -311 123.5t-105 364.5q0 149 53.5 263t152.5 176t228 62q101 0 172 -32t113.5 -87.5t66 -140t26.5 -220.5h-630v-18q0 -118 26.5 -198.5t87 -126t157.5 -45.5q82 0 147.5 30.5t130.5 99.5zM728 576
q-6 108 -27 176.5t-63 105t-110 36.5q-103 0 -164.5 -82.5t-72.5 -235.5h437z" />
    <glyph glyph-name="f" unicode="f" horiz-adv-x="620" 
d="M611 855h-239v-605q0 -67 6.5 -101t19 -51.5t33 -28t65.5 -20.5v-49h-409v49q44 12 63 23t29.5 28t15.5 49t5 101v605h-121v51q38 6 50.5 9.5t24 10.5t20 20t15 38.5t10.5 71.5q9 109 39.5 177t89 116t125 67.5t156.5 19.5q79 0 134 -11v-181h-99q-19 59 -44.5 83.5
t-71.5 24.5q-33 0 -55.5 -9t-41.5 -28t-32.5 -51t-20 -79.5t-6.5 -123.5v-105h239v-101z" />
    <glyph glyph-name="g" unicode="g" horiz-adv-x="1012" 
d="M994 855l-185 7l-9 -11q31 -31 49 -84.5t18 -115.5q0 -163 -100.5 -251.5t-285.5 -88.5q-83 0 -143 21q-76 -58 -76 -114q0 -37 14.5 -56t48 -27t101.5 -8h240q106 0 173 -33t95.5 -88.5t28.5 -129.5q0 -94 -54 -167.5t-156 -114.5t-238 -41q-101 0 -184.5 12t-143 40.5
t-92 75t-32.5 116.5q0 63 42 114.5t119 90.5q-47 19 -74 56t-27 87q0 57 32 104.5t113 108.5q-72 42 -109.5 114t-37.5 164q0 86 28.5 149.5t79 105t119.5 62t149 20.5q72 0 143 -17h354v-101zM300 652q0 -125 51 -193t147 -68q51 0 87 19.5t58.5 53.5t33 78.5t10.5 93.5
q0 88 -25 147t-68 86.5t-99 27.5q-95 0 -145 -63t-50 -182zM325 -16q-51 -38 -76.5 -80.5t-25.5 -96.5q0 -90 71.5 -132.5t218.5 -42.5q90 0 154.5 24t98.5 69t34 105q0 28 -7 54.5t-26.5 47.5t-55.5 33.5t-94 12.5h-149q-81 0 -143 6z" />
    <glyph glyph-name="h" unicode="h" horiz-adv-x="1130" 
d="M365 799l4 -1q78 79 123.5 110.5t90 47.5t95.5 16q55 0 98 -13t75.5 -39.5t53 -65t30.5 -92t10 -135.5v-377q0 -87 7.5 -118.5t27 -49t78.5 -33.5v-49h-394v49q39 12 56 21t28.5 25t18 49.5t6.5 101.5v262q0 133 -13.5 203.5t-53 105.5t-110.5 35q-40 0 -72 -14t-74 -50
t-63.5 -74t-21.5 -81v-383q0 -68 3.5 -97t13.5 -48.5t30.5 -32t63.5 -23.5v-49h-396v49q44 12 63 23t29.5 28t15.5 49t5 101v837q0 96 -1.5 134t-8 64.5t-18 41.5t-31 24t-70.5 18v52l241 10h60v-632z" />
    <glyph glyph-name="i" unicode="i" horiz-adv-x="569" 
d="M383 1348v-194h-184v194h184zM97 49q39 12 55.5 21t28 25t18 49t6.5 103v436q0 64 -2 103t-14 62.5t-36.5 35t-69.5 19.5v53l233 9h61v-715q0 -86 8 -119.5t30.5 -51t73.5 -30.5v-49h-392v49z" />
    <glyph glyph-name="j" unicode="j" horiz-adv-x="545" 
d="M373 1348v-194h-183v194h183zM368 19q0 -140 -29 -224t-100.5 -142.5t-199.5 -95.5l-34 88q62 24 94.5 45.5t53.5 50t32 76.5t11 123v743q0 78 -3 112t-13 53.5t-31 31.5t-76 23v53l234 9h61v-946z" />
    <glyph glyph-name="k" unicode="k" horiz-adv-x="1074" 
d="M364 557h32q33 0 54 7q25 9 55 30.5t85 72.5q46 43 69.5 73t32.5 55q8 21 8 42q0 30 -18.5 47t-60.5 23v49h431v-49q-46 -9 -98 -41t-107 -84l-230 -218l288 -376q50 -66 90.5 -97.5t88.5 -41.5v-49h-384v49q26 3 38.5 11.5t12.5 28.5q0 15 -5.5 29.5t-22.5 39.5t-62 87
l-119 160q-34 45 -48.5 59t-30.5 20t-43 6h-56v-240q0 -86 8 -119.5t30.5 -51t73.5 -30.5v-49h-397v49q50 13 69.5 27t28 33.5t12 53t3.5 87.5v837q0 96 -1.5 134t-8 64.5t-18 41.5t-31 24t-70.5 18v52l241 10h60v-874z" />
    <glyph glyph-name="l" unicode="l" horiz-adv-x="556" 
d="M364 250q0 -86 8 -119.5t30.5 -51t73.5 -30.5v-49h-397v49q50 13 69.5 27t28 33.5t12 53t3.5 87.5v837q0 96 -1.5 134t-8 64.5t-18 41.5t-31 24t-70.5 18v52l241 10h60v-1181z" />
    <glyph glyph-name="m" unicode="m" horiz-adv-x="1704" 
d="M367 802l14 -4q60 60 98.5 90.5t74.5 49t67.5 26.5t64.5 8q100 0 163 -46t87 -141q75 76 121.5 112t95 55.5t104.5 19.5q67 0 115.5 -19.5t82 -60t49 -101.5t15.5 -164v-377q0 -76 5 -105t14.5 -45t28.5 -27.5t64 -23.5v-49h-393v49q39 12 56 21t28.5 25t18 49.5
t6.5 101.5v262q0 85 -4.5 140.5t-14 88.5t-23 52t-30.5 33t-40 22t-61 8q-40 0 -74.5 -16t-75 -54t-58.5 -76.5t-18 -90.5v-365q0 -76 5 -105t14.5 -45t28.5 -27.5t64 -23.5v-49h-393v49q39 12 56 21t28.5 25t18 49.5t6.5 101.5v262q0 89 -5 145t-15.5 90t-27 55t-33.5 32
t-40 16.5t-52 5.5q-41 0 -77 -18.5t-73.5 -53.5t-56.5 -73t-19 -82v-375q0 -57 3 -87t9.5 -47t16.5 -27.5t28.5 -20t55.5 -19.5v-49h-392v49q38 12 54.5 21t28.5 25t18 49t6 103v436q0 64 -2 103t-14 62.5t-36.5 35t-69.5 19.5v53l234 9h61z" />
    <glyph glyph-name="n" unicode="n" horiz-adv-x="1143" 
d="M1071 0h-394v49q39 12 56 21t28.5 25t18 49.5t6.5 101.5v262q0 70 -4 127t-13.5 93.5t-23 57t-32 35t-42.5 23t-63 8.5t-74 -15.5t-77 -53.5t-61 -75t-19 -85v-373q0 -86 8 -119.5t30.5 -51t73.5 -30.5v-49h-392v49q39 12 55.5 21t28 25t18 49t6.5 103v436q0 64 -2 103
t-14 62.5t-36.5 35t-69.5 19.5v53l234 9h61l-11 -163l14 -4q74 75 119.5 107t92 49.5t98.5 17.5q54 0 96.5 -12.5t75 -38.5t53.5 -64.5t31.5 -92.5t10.5 -137v-377q0 -69 4 -100t14 -48t29 -28.5t66 -24.5v-49z" />
    <glyph glyph-name="o" unicode="o" horiz-adv-x="1087" 
d="M532 -16q-208 0 -317.5 122.5t-109.5 362.5q0 165 57.5 279t157.5 169.5t228 55.5q214 0 324 -124.5t110 -357.5q0 -166 -55 -280t-156 -170.5t-239 -56.5zM294 490q0 -206 65.5 -316.5t187.5 -110.5q67 0 114 32.5t76.5 87.5t42.5 127.5t13 151.5q0 147 -32.5 244
t-88.5 142.5t-128 45.5q-121 0 -185.5 -105t-64.5 -299z" />
    <glyph glyph-name="p" unicode="p" horiz-adv-x="1139" 
d="M368 30v-211q0 -65 4.5 -97t16 -50.5t33 -30.5t69.5 -22v-49h-408v49q36 10 58.5 20.5t34.5 31t16 55.5t4 93v858q0 72 -2 102.5t-8 50.5t-17.5 33t-31 22t-64.5 18v53l235 9h61l-13 -163l15 -4q62 63 98 91.5t74.5 47.5t74 27t75.5 8q165 0 253.5 -123.5t88.5 -361.5
q0 -165 -50 -277.5t-145.5 -169t-227.5 -56.5q-74 0 -134 12.5t-110 33.5zM368 360q0 -96 12 -148t42.5 -84.5t72 -48.5t109.5 -16q121 0 182 100.5t61 296.5q0 392 -229 392q-56 0 -96.5 -17.5t-80.5 -56.5t-56.5 -75.5t-16.5 -78.5v-264z" />
    <glyph glyph-name="q" unicode="q" horiz-adv-x="1120" 
d="M1056 -430h-408v49q48 10 69.5 22t33 30.5t16 50t4.5 97.5v345q-54 -61 -100.5 -97.5t-103.5 -59.5t-121 -23q-165 0 -253.5 123t-88.5 358q0 166 57.5 280.5t160.5 171t238 56.5q71 0 128 -14.5t117 -46.5l70 61l68 -16v-1138q0 -59 4.5 -93.5t16 -54.5t34 -31t58.5 -21
v-49zM771 596q0 93 -12 144t-41 86.5t-68 51t-92 15.5q-129 0 -197.5 -104t-68.5 -293q0 -192 55.5 -292t166.5 -100q42 0 71.5 7.5t58 24.5t58 46t42.5 52.5t20 54.5t7 80v227z" />
    <glyph glyph-name="r" unicode="r" horiz-adv-x="847" 
d="M367 790l14 -3q55 67 102 105.5t101.5 59.5t123.5 21q58 0 105 -6v-230h-113q-24 54 -51 78.5t-74 24.5q-36 0 -71.5 -21t-68.5 -61t-45.5 -75t-12.5 -83v-350q0 -91 11 -125.5t36.5 -50.5t76.5 -25v-49h-403v49q38 12 54.5 21t28.5 25t18 49t6 103v436q0 64 -2 103
t-14 62.5t-36.5 35t-69.5 19.5v52l234 10h61z" />
    <glyph glyph-name="s" unicode="s" horiz-adv-x="880" 
d="M767 737h-96q-22 60 -52 94.5t-68 48.5t-93 14q-80 0 -127.5 -37.5t-47.5 -102.5q0 -46 19 -76t59 -56t141 -69q102 -44 157.5 -81t87 -86t31.5 -117q0 -79 -27 -133t-76 -88t-116.5 -49t-147.5 -15q-84 0 -163 12.5t-154 32.5v209h98q27 -92 80 -133.5t146 -41.5
q36 0 70.5 7.5t61.5 25t43 47.5t16 75q0 51 -20 83t-62 58.5t-148 71.5q-91 38 -146 74t-86.5 85t-31.5 116q0 82 44.5 142.5t128.5 92.5t197 32q66 0 127.5 -6.5t154.5 -25.5v-204z" />
    <glyph glyph-name="t" unicode="t" horiz-adv-x="693" 
d="M37 906q50 8 81 28t48.5 51.5t27.5 79t21 138.5h142v-247h323v-101h-323v-445q0 -97 8 -154.5t30 -90t50 -46.5t72 -14q40 0 75 16.5t69 47.5l45 -54q-71 -69 -134.5 -100t-131.5 -31q-129 0 -192 76.5t-63 239.5v555h-148v51z" />
    <glyph glyph-name="u" unicode="u" horiz-adv-x="1131" 
d="M73 956h285v-509q0 -117 9 -178t27 -92t51 -52t91 -21q38 0 73 15t78 52.5t61.5 74.5t18.5 86v375q0 57 -3 86t-10 46.5t-16.5 28.5t-27 20t-56.5 19v49h285v-683q0 -77 3 -111t13 -54t31 -32.5t75 -23.5v-52l-229 -10h-61l6 164l-15 4q-83 -90 -158.5 -132t-151.5 -42
q-91 0 -150 36t-88 107.5t-29 201.5v378q0 84 -6.5 115.5t-25 50t-80.5 34.5v49z" />
    <glyph glyph-name="v" unicode="v" horiz-adv-x="1032" 
d="M427 956v-49q-46 -11 -65 -21t-28.5 -26t-9.5 -43t6.5 -56.5t20.5 -68.5l174 -506l204 485q20 48 28 79t8 58q0 42 -22.5 64t-82.5 35v49h374v-49q-39 -8 -60 -24.5t-42 -52t-50 -99.5l-337 -741h-118l-271 747q-28 77 -44.5 105.5t-36 42.5t-56.5 22v49h408z" />
    <glyph glyph-name="w" unicode="w" horiz-adv-x="1586" 
d="M798 747l-262 -752h-139l-240 742q-23 72 -38.5 101.5t-33 44t-56.5 24.5v49h395v-49q-58 -12 -78.5 -31.5t-20.5 -58.5q0 -27 6 -56.5t18 -68.5l157 -510l257 774h141l218 -774l176 489q14 38 23 72.5t9 64.5q0 42 -22.5 65t-76.5 34v49h349v-49q-28 -7 -42 -14.5
t-27.5 -22t-30 -45t-41.5 -94.5l-289 -736h-135z" />
    <glyph glyph-name="x" unicode="x" horiz-adv-x="990" 
d="M520 577l130 165q21 27 34 52.5t13 52.5q0 23 -17 38t-53 22v49h327v-49q-38 -11 -77.5 -43t-96.5 -103l-207 -254l228 -307q49 -66 88 -101t78 -50v-49h-402v49q83 10 83 62q0 21 -7 40t-26 44l-145 202l-154 -200q-17 -22 -26.5 -40.5t-9.5 -41.5q0 -27 18.5 -44.5
t58.5 -21.5v-49h-334v49q33 12 59.5 30t54 46.5t72.5 83.5l208 258l-213 292q-44 60 -70 87t-48 41t-44 20v49h392v-49q-79 -12 -79 -62q0 -23 10.5 -46t32.5 -51z" />
    <glyph glyph-name="y" unicode="y" horiz-adv-x="1032" 
d="M520 -82q-55 -124 -107 -201t-114.5 -116t-148.5 -39q-55 0 -124 13v198h89q12 -41 30 -57t52 -16q30 0 53.5 11.5t49 39.5t60 86t77.5 147l-280 753q-27 73 -43.5 102t-35.5 44t-58 24v49h407v-49q-47 -11 -66 -21.5t-28 -27t-9 -42.5q0 -27 6.5 -56t20.5 -68l178 -501
l200 480q17 40 26.5 73.5t9.5 62.5q0 43 -23.5 65t-81.5 35v49h374v-49q-39 -8 -60 -24.5t-42 -52t-50 -99.5z" />
    <glyph glyph-name="z" unicode="z" horiz-adv-x="931" 
d="M851 290v-290h-770v49l548 826h-271q-50 0 -79 -18t-55 -60t-50 -113h-87v272h758v-50l-547 -825h263q52 0 78 8t45 25.5t37 55.5t43 120h87z" />
    <glyph glyph-name="braceleft" unicode="{" horiz-adv-x="793" 
d="M724 -432q-155 0 -245 40t-129 119.5t-39 213.5v289q0 89 -22.5 138.5t-67.5 69.5t-126 20v82q80 0 125 20t68 69t23 139v289q0 134 39 213.5t129 119.5t245 40h26v-81q-79 0 -118.5 -8.5t-64 -25.5t-40.5 -44t-25 -75t-9 -127v-194q0 -101 -17.5 -168.5t-62.5 -117
t-123 -81.5v-18q76 -31 122.5 -82t63.5 -119.5t17 -165.5v-194q0 -79 9 -127t25 -75t40.5 -44t64 -25.5t118.5 -8.5v-81h-26z" />
    <glyph glyph-name="bar" unicode="|" horiz-adv-x="648" 
d="M401 -430h-154v1861h154v-1861z" />
    <glyph glyph-name="braceright" unicode="}" horiz-adv-x="793" 
d="M69 1430q155 0 245 -40t129 -119.5t39 -213.5v-289q0 -90 23 -139t68 -69t125 -20v-82q-81 0 -126 -20t-67.5 -69.5t-22.5 -138.5v-289q0 -134 -39 -213.5t-129 -119.5t-245 -40h-26v81q79 0 118.5 8.5t64 25.5t40.5 44t25 75t9 127v194q0 101 17.5 168.5t62.5 117
t123 81.5v18q-76 31 -122.5 82t-63.5 119.5t-17 165.5v194q0 79 -9 127t-25 75t-40.5 44t-64 25.5t-118.5 8.5v81h26z" />
    <glyph glyph-name="asciitilde" unicode="~" horiz-adv-x="1459" 
d="M125 485q51 118 135 196.5t199 78.5q120 0 286 -105t252 -105q85 0 142 45t115 140l80 -54q-43 -89 -136 -179.5t-226 -90.5q-128 0 -292.5 105t-251.5 105q-73 0 -128 -46t-97 -134z" />
    <glyph glyph-name="exclamdown" unicode="&#xa1;" horiz-adv-x="585" 
d="M191 723v233h201v-233h-201zM182 -409l65 949h97l49 -949h-211zM585 -430z" />
    <glyph glyph-name="cent" unicode="&#xa2;" horiz-adv-x="903" 
d="M474 -156v183q-181 7 -275 132.5t-94 355.5q0 133 45.5 239.5t129 172.5t194.5 83v189h104v-183q143 -3 264 -40v-189h-127q-23 69 -55 105.5t-82 43.5v-789q59 6 109.5 34t105.5 89l57 -66q-75 -82 -140.5 -120t-131.5 -50v-190h-104zM474 150v783q-92 -28 -143 -131
t-51 -264q0 -183 48 -274.5t146 -113.5zM903 972z" />
    <glyph glyph-name="sterling" unicode="&#xa3;" horiz-adv-x="1082" 
d="M986 356l-50 -356h-869v49q59 60 94.5 117t60 133.5t24.5 170.5v189h-165v116h165v150q0 126 29.5 209.5t92.5 140t146.5 81.5t191.5 25q131 0 255 -27v-216h-100q-18 60 -44 94.5t-64 49t-96 14.5q-77 0 -129.5 -41.5t-76.5 -118.5t-24 -231v-130h412v-116h-412v-63
q0 -78 -7.5 -133t-24 -98t-48.5 -96t-70 -99v-10h394q91 0 126 14t52.5 52t36.5 130h100z" />
    <glyph glyph-name="currency" unicode="&#xa4;" horiz-adv-x="1114" 
d="M867 462l123 -127l-94 -95l-127 127q-89 -70 -211 -70q-124 0 -214 70l-126 -127l-94 95l123 127q-70 97 -70 213q0 57 17.5 110t52.5 105l-123 123l94 94l126 -123q96 69 214 69q115 0 211 -69l127 126l94 -97l-123 -123q35 -52 52.5 -105t17.5 -110q0 -116 -70 -213z
M794 675q0 68 -30 123.5t-84 86.5t-122 31t-122.5 -31.5t-85 -86.5t-30.5 -123q0 -69 29.5 -124t84 -87t124.5 -32q67 0 121 31.5t84.5 87t30.5 124.5z" />
    <glyph glyph-name="yen" unicode="&#xa5;" horiz-adv-x="1248" 
d="M1121 695h-348l-69 -118v-82h417v-96h-417v-146q0 -57 6 -92t20 -56t37 -33t72 -23v-49h-449v49q48 10 71 21.5t37 33t20.5 56.5t6.5 93v146h-418v96h418v78l-66 122h-352v96h300l-158 295q-54 102 -82 142t-52 59t-54 29v49h418v-49q-94 -11 -94 -81q0 -29 13.5 -65
t48.5 -102l202 -391l203 358q40 70 56.5 116t16.5 84q0 36 -21.5 56.5t-63.5 24.5v49h371v-49q-41 -15 -72 -41.5t-63 -71.5t-94 -152l-153 -260h292v-96z" />
    <glyph glyph-name="brokenbar" unicode="&#xa6;" horiz-adv-x="648" 
d="M401 646h-154v785h154v-785zM401 -430h-154v783h154v-783z" />
    <glyph glyph-name="section" unicode="&#xa7;" horiz-adv-x="1024" 
d="M701 226q65 -53 97.5 -110t32.5 -142q0 -88 -47.5 -153.5t-130.5 -100t-186 -34.5q-91 0 -182.5 17t-162.5 48v218h99q45 -198 242 -198q95 0 149.5 47t54.5 126q0 45 -12 76.5t-40.5 62t-75.5 64t-144 95.5q-135 85 -193 137.5t-86 110t-28 133.5q0 88 59 162.5
t175 131.5q-67 57 -98 116t-31 138q0 75 44 136t123.5 95t182.5 34q90 0 167.5 -14t172.5 -51v-218h-99q-30 99 -85.5 148.5t-151.5 49.5q-58 0 -101.5 -21t-66 -56.5t-22.5 -77.5q0 -54 22.5 -94t76.5 -83t173 -118q92 -58 147.5 -100t90.5 -83.5t52.5 -89t17.5 -108.5
q0 -67 -32 -121.5t-83.5 -96t-120.5 -76.5zM392 862q-63 -33 -98 -86t-35 -113q0 -50 14 -85.5t44 -69.5t75 -68t113 -76q85 -53 126 -83q61 32 97.5 85.5t36.5 113.5q0 41 -10 75t-38.5 69.5t-78.5 74t-119 80.5q-80 49 -127 83z" />
    <glyph glyph-name="dieresis" unicode="&#xa8;" horiz-adv-x="583" 
d="M544 1339v-176h-167v176h167zM205 1339v-176h-167v176h167z" />
    <glyph glyph-name="copyright" unicode="&#xa9;" horiz-adv-x="1742" 
d="M1632 622q0 -161 -56 -300.5t-160.5 -243.5t-245 -160t-299.5 -56q-157 0 -295.5 54t-244 156.5t-163.5 244.5t-58 305t58 305t164 244.5t244 156.5t295 54q159 0 299.5 -56t245 -160t160.5 -243.5t56 -300.5zM1507 622q0 188 -80 340t-226.5 236.5t-330.5 84.5
t-330.5 -85t-225.5 -236.5t-79 -339.5q0 -191 80.5 -342.5t226 -235.5t328.5 -84q184 0 330 84.5t226.5 236.5t80.5 341zM1169 1021v-188h-85q-23 65 -49.5 101t-61.5 51.5t-96 15.5q-69 0 -120.5 -41t-80 -123.5t-28.5 -199.5q0 -80 12.5 -150.5t40.5 -124t72.5 -84
t109.5 -30.5q80 0 126 40.5t76 136.5h85v-194q-76 -33 -146.5 -45.5t-163.5 -12.5q-189 0 -286 112.5t-97 332.5q0 137 49 240.5t144 160.5t226 57q84 0 148 -13t125 -42z" />
    <glyph glyph-name="ordfeminine" unicode="&#xaa;" horiz-adv-x="854" 
d="M533 819l-7 5q-67 -64 -117.5 -87.5t-113.5 -23.5q-85 0 -135 45t-50 119q0 103 103 156.5t312 62.5v32q0 66 -13 104.5t-42.5 57.5t-81.5 19q-49 0 -85 -27t-52 -80h-105v96q89 43 163.5 63t144.5 20q79 0 124.5 -25t64 -70.5t18.5 -124.5v-232q0 -73 4.5 -98.5
t17.5 -40.5t60 -25v-41h-214zM525 1030q-141 -3 -210.5 -37t-69.5 -101q0 -49 27 -72.5t85 -23.5q28 0 54.5 10t47 26t34.5 34t23 41t9 59v64zM736 490h-618v92h618v-92z" />
    <glyph glyph-name="guillemotleft" unicode="&#xab;" horiz-adv-x="999" 
d="M899 113l-64 -50l-351 392v74l351 393l64 -50l-244 -380zM513 113l-64 -50l-349 392v74l349 393l64 -50l-241 -380z" />
    <glyph glyph-name="logicalnot" unicode="&#xac;" horiz-adv-x="1134" 
d="M842 294v430h-729v139h875v-569h-146z" />
    <glyph glyph-name="registered" unicode="&#xae;" horiz-adv-x="1742" 
d="M1632 622q0 -161 -56 -300.5t-160.5 -243.5t-245 -160t-299.5 -56q-157 0 -295.5 54t-244 156.5t-163.5 244.5t-58 305t58 305t164 244.5t244 156.5t295 54q159 0 299.5 -56t245 -160t160.5 -243.5t56 -300.5zM1507 622q0 188 -80 340t-226.5 236.5t-330.5 84.5
t-330.5 -85t-225.5 -236.5t-79 -339.5q0 -191 80.5 -342.5t226 -235.5t328.5 -84q184 0 330 84.5t226.5 236.5t80.5 341zM826 187h-336v44q38 11 55.5 28t25 45t7.5 75v494q0 44 -7 72t-23 45t-58 30v44h407q110 0 179.5 -25t106 -75t36.5 -135q0 -80 -50.5 -136.5
t-164.5 -94.5l1 -11q42 -20 70.5 -51.5t55.5 -87.5l49 -103q15 -32 29.5 -53t28 -33.5t27 -17.5t37.5 -10v-44h-214q-41 70 -71 142l-47 110q-19 45 -37.5 70.5t-38.5 38t-43.5 15.5t-52.5 3h-72v-160q0 -59 7 -93t26 -52.5t67 -29.5v-44zM726 984v-343h104
q119 0 174.5 44.5t55.5 132.5q0 64 -26.5 101t-73.5 52.5t-115 15.5h-30q-38 0 -89 -3z" />
    <glyph glyph-name="macron" unicode="&#xaf;" horiz-adv-x="670" 
d="M1973 1464l-104 -76q-60 89 -215 248l98 67q132 -122 221 -239zM1809 1341l-104 -80q-86 119 -238 270l99 70q107 -97 243 -260z" />
    <glyph glyph-name="degree" unicode="&#xb0;" horiz-adv-x="769" 
d="M376 783q-87 0 -153.5 39t-102.5 107.5t-36 154.5q0 85 38.5 153.5t107.5 106t156 37.5q86 0 153.5 -38t105 -106t37.5 -154q0 -85 -39.5 -153.5t-109.5 -107.5t-157 -39zM382 1282q-56 0 -100 -25.5t-68 -70.5t-24 -103t23.5 -103.5t68 -71t100.5 -25.5q57 0 101.5 25.5
t68.5 71t24 103.5t-24 103t-68.5 70.5t-101.5 25.5z" />
    <glyph glyph-name="plusminus" unicode="&#xb1;" horiz-adv-x="1134" 
d="M124 645v139h370v368h147v-368h369v-139h-369v-338h-147v338h-370zM124 26v139h886v-139h-886z" />
    <glyph glyph-name="uni00B2" unicode="&#xb2;" horiz-adv-x="834" 
d="M506 646q35 0 53.5 3.5t29.5 10.5t18.5 18t22.5 48h69l-14 -193h-586v38q34 73 92 144t136 146q93 89 132 134.5t58 86t19 81.5q0 68 -38.5 107t-110.5 39q-62 0 -105.5 -33t-66.5 -97h-95v135q89 36 164 51.5t133 15.5q79 0 130.5 -17t82.5 -44.5t43.5 -64.5t12.5 -76
q0 -49 -20 -91.5t-65.5 -92t-161.5 -154.5q-124 -113 -180 -195h247z" />
    <glyph glyph-name="uni00B3" unicode="&#xb3;" horiz-adv-x="834" 
d="M125 1177v138q161 66 293 66q70 0 129.5 -19t95.5 -60t36 -103q0 -54 -24.5 -93.5t-67 -68.5t-109.5 -57v-10q99 -16 159 -71.5t60 -134.5q0 -70 -36.5 -125t-111 -87t-181.5 -32q-68 0 -133 12t-120 33v146h91q21 -64 60.5 -93t105.5 -29q87 0 131.5 40t44.5 119
q0 84 -59 128t-176 44h-60v71q94 3 157 28.5t91.5 66t28.5 92.5q0 61 -37 96t-107 35q-61 0 -104 -33t-66 -98z" />
    <glyph glyph-name="acute" unicode="&#xb4;" horiz-adv-x="583" 
d="M521 1442v-50l-317 -322l-65 52l207 320h175z" />
    <glyph glyph-name="mu" unicode="&#xb5;" horiz-adv-x="1114" 
d="M353 405q0 -95 8 -152t31.5 -90.5t52.5 -46t78 -12.5q62 0 116.5 45.5t78.5 87.5t24 97v623h172v-750q0 -60 19 -88.5t53 -28.5q45 0 94 42l39 -60q-56 -46 -106 -66.5t-104 -20.5q-74 0 -115.5 44.5t-46.5 126.5l-9 3q-66 -71 -108.5 -103t-86 -48.5t-93.5 -16.5
q-38 0 -71 13.5t-65 44.5l-8 -6q7 -85 20.5 -176t30.5 -155v-55l-87 -58h-89v1357h172v-551zM1114 -430z" />
    <glyph glyph-name="paragraph" unicode="&#xb6;" horiz-adv-x="1204" 
d="M928 1261v-1691h-121v1691h-190v-1691h-121v1112q-130 0 -224 42t-142.5 118t-48.5 177q0 96 33 162t91.5 107t139.5 59t178 18h606v-104h-201z" />
    <glyph glyph-name="periodcentered" unicode="&#xb7;" horiz-adv-x="506" 
d="M364 831v-244h-222v244h222z" />
    <glyph glyph-name="periodcentered" unicode="&#x2219;" horiz-adv-x="506" 
d="M364 831v-244h-222v244h222z" />
    <glyph glyph-name="cedilla" unicode="&#xb8;" horiz-adv-x="1024" 
d="M360 -290q85 -52 152 -52q66 0 94.5 21.5t28.5 66.5t-49 64q-40 16 -102 16q-16 0 -34 -2l48 176h63l-37 -104q32 4 62 5q86 0 134 -40.5t48 -113.5q0 -76 -58.5 -120.5t-160.5 -44.5q-109 0 -189 32v96z" />
    <glyph glyph-name="uni00B9" unicode="&#xb9;" horiz-adv-x="834" 
d="M517 711q0 -43 7.5 -61.5t24 -29t56 -16.5t126.5 -7v-64h-568v64q83 2 122 7.5t57 16t26.5 29t8.5 61.5v454q0 25 -9.5 36t-28.5 11q-21 0 -64.5 -22.5t-112.5 -65.5l-36 69l350 182h45q-1 -15 -2.5 -70.5t-1.5 -111.5v-482z" />
    <glyph glyph-name="ordmasculine" unicode="&#xba;" horiz-adv-x="876" 
d="M430 713q-152 0 -231 84t-79 244q0 112 42 189t115 114t165 37q86 0 146 -25t97.5 -68.5t54 -103t16.5 -128.5q0 -165 -85.5 -254t-240.5 -89zM267 1055q0 -135 44.5 -203.5t129.5 -68.5q82 0 125 67.5t43 186.5q0 97 -22.5 159t-60.5 88.5t-87 26.5q-85 0 -128.5 -64.5
t-43.5 -191.5zM748 490h-620v92h620v-92z" />
    <glyph glyph-name="guillemotright" unicode="&#xbb;" horiz-adv-x="999" 
d="M100 871l64 50l351 -392v-74l-351 -393l-64 50l244 380zM486 871l64 50l349 -392v-74l-349 -393l-64 50l241 380z" />
    <glyph glyph-name="onequarter" unicode="&#xbc;" horiz-adv-x="1772" 
d="M1296 -51q44 8 59 18t21.5 30.5t6.5 73.5v77h-387v54l405 539h116v-517h12q39 0 56.5 6.5t29 22.5t20.5 49h63l-9 -154h-172v-77q0 -54 7 -75t24 -30.5t56 -16.5v-45h-308v45zM1127 224h256v119q0 44 2 115.5t6 120.5h-9l-255 -347v-8zM517 711q0 -33 3.5 -50.5t14 -29
t31.5 -19t53.5 -11t96.5 -4.5v-64h-553v64q83 2 122 7.5t57 16t26.5 29t8.5 61.5v454q0 25 -9.5 36t-28.5 11q-21 0 -64.5 -22.5t-112.5 -65.5l-36 69l350 182h45q-1 -15 -2.5 -70.5t-1.5 -111.5v-482zM1446 1365l-882 -1461h-147l884 1461h145z" />
    <glyph glyph-name="onehalf" unicode="&#xbd;" horiz-adv-x="1822" 
d="M1494 17q35 0 53.5 3.5t29.5 10.5t18.5 18t22.5 48h69l-14 -193h-586v38q34 73 92 144t136 146q93 89 132 134.5t58 86t19 81.5q0 68 -38.5 107t-110.5 39q-62 0 -105.5 -33t-66.5 -97h-95v135q89 36 164 51.5t133 15.5q79 0 130.5 -17t82.5 -44.5t43.5 -64.5t12.5 -76
q0 -49 -20 -91.5t-65.5 -92t-161.5 -154.5q-124 -113 -180 -195h247zM517 711q0 -33 3.5 -50.5t14 -29t31.5 -19t53.5 -11t96.5 -4.5v-64h-553v64q83 2 122 7.5t57 16t26.5 29t8.5 61.5v454q0 25 -9.5 36t-28.5 11q-21 0 -64.5 -22.5t-112.5 -65.5l-36 69l350 182h45
q-1 -15 -2.5 -70.5t-1.5 -111.5v-482zM1426 1365l-882 -1461h-147l884 1461h145z" />
    <glyph glyph-name="threequarters" unicode="&#xbe;" horiz-adv-x="1772" 
d="M122 1177v138q161 66 293 66q70 0 129.5 -19t95.5 -60t36 -103q0 -54 -24.5 -93.5t-67 -68.5t-109.5 -57v-10q99 -16 159 -71.5t60 -134.5q0 -70 -36.5 -125t-111 -87t-181.5 -32q-68 0 -133 12t-120 33v146h91q21 -64 60.5 -93t105.5 -29q87 0 131.5 40t44.5 119
q0 84 -59 128t-176 44h-60v71q94 3 157 28.5t91.5 66t28.5 92.5q0 61 -37 96t-107 35q-61 0 -104 -33t-66 -98zM1291 -51q44 8 59 18t21.5 30.5t6.5 73.5v77h-387v54l405 539h116v-517h12q39 0 56.5 6.5t29 22.5t20.5 49h63l-9 -154h-172v-77q0 -54 7 -75t24 -30.5t56 -16.5
v-45h-308v45zM1122 224h256v119q0 44 2 115.5t6 120.5h-9l-255 -347v-8zM1446 1365l-882 -1461h-147l884 1461h145z" />
    <glyph glyph-name="questiondown" unicode="&#xbf;" horiz-adv-x="865" 
d="M380 724v232h200v-232h-200zM549 540v-34q0 -41 -5 -66t-17.5 -53.5t-39 -67.5t-75.5 -100q-58 -74 -83.5 -120t-38.5 -95.5t-13 -110.5q0 -114 45.5 -176t122.5 -62t125 46t67 142h136v-164q-114 -58 -193.5 -81t-156.5 -23q-120 0 -198 35.5t-114 97.5t-36 144
q0 41 7.5 75.5t22.5 67.5t38 67.5t51.5 69.5t99.5 118q53 62 77 99.5t34 73t10 92.5v25h134z" />
    <glyph glyph-name="Agrave" unicode="&#xc0;" horiz-adv-x="1276" 
d="M796 0v49q50 10 74.5 22t36.5 33.5t12 57.5q0 34 -8 73.5t-23 88.5l-37 129h-466l-34 -98q-26 -74 -34 -112t-8 -69q0 -60 30.5 -88t93.5 -37v-49h-427v49q56 9 97.5 65t80.5 160l417 1107h158l340 -1115q24 -78 42.5 -119t44.5 -64t71 -34v-49h-461zM412 540h418
l-190 645zM592 1782l241 -257l-56 -57l-383 264v50h198z" />
    <glyph glyph-name="Aacute" unicode="&#xc1;" horiz-adv-x="1276" 
d="M796 0v49q50 10 74.5 22t36.5 33.5t12 57.5q0 34 -8 73.5t-23 88.5l-37 129h-466l-34 -98q-26 -74 -34 -112t-8 -69q0 -60 30.5 -88t93.5 -37v-49h-427v49q56 9 97.5 65t80.5 160l417 1107h158l340 -1115q24 -78 42.5 -119t44.5 -64t71 -34v-49h-461zM412 540h418
l-190 645zM956 1782v-50l-382 -264l-56 57l241 257h197z" />
    <glyph glyph-name="Acircumflex" unicode="&#xc2;" horiz-adv-x="1276" 
d="M796 0v49q50 10 74.5 22t36.5 33.5t12 57.5q0 34 -8 73.5t-23 88.5l-37 129h-466l-34 -98q-26 -74 -34 -112t-8 -69q0 -60 30.5 -88t93.5 -37v-49h-427v49q56 9 97.5 65t80.5 160l417 1107h158l340 -1115q24 -78 42.5 -119t44.5 -64t71 -34v-49h-461zM412 540h418
l-190 645zM748 1780l228 -254l-57 -58l-238 185h-11l-240 -185l-56 58l240 254h134z" />
    <glyph glyph-name="Atilde" unicode="&#xc3;" horiz-adv-x="1276" 
d="M796 0v49q50 10 74.5 22t36.5 33.5t12 57.5q0 34 -8 73.5t-23 88.5l-37 129h-466l-34 -98q-26 -74 -34 -112t-8 -69q0 -60 30.5 -88t93.5 -37v-49h-427v49q56 9 97.5 65t80.5 160l417 1107h158l340 -1115q24 -78 42.5 -119t44.5 -64t71 -34v-49h-461zM412 540h418
l-190 645zM928 1718l78 -34q-38 -82 -72.5 -126.5t-66 -61t-71.5 -16.5q-27 0 -47 5.5t-39.5 16t-60.5 38.5q-27 18 -42.5 28t-32.5 16.5t-36 6.5q-26 0 -43.5 -10t-35.5 -35t-37 -66l-78 34q48 96 78 133.5t61.5 54t75.5 16.5q24 0 43.5 -5.5t36 -14.5t56.5 -36
q29 -20 46 -31t35 -17.5t41 -6.5q32 0 57 24.5t54 86.5z" />
    <glyph glyph-name="Adieresis" unicode="&#xc4;" horiz-adv-x="1276" 
d="M796 0v49q50 10 74.5 22t36.5 33.5t12 57.5q0 34 -8 73.5t-23 88.5l-37 129h-466l-34 -98q-26 -74 -34 -112t-8 -69q0 -60 30.5 -88t93.5 -37v-49h-427v49q56 9 97.5 65t80.5 160l417 1107h158l340 -1115q24 -78 42.5 -119t44.5 -64t71 -34v-49h-461zM412 540h418
l-190 645zM943 1690v-176h-167v176h167zM574 1690v-176h-167v176h167z" />
    <glyph glyph-name="Aring" unicode="&#xc5;" horiz-adv-x="1276" 
d="M796 0v49q50 10 74.5 22t36.5 33.5t12 57.5q0 34 -8 73.5t-23 88.5l-37 129h-466l-34 -98q-26 -74 -34 -112t-8 -69q0 -60 30.5 -88t93.5 -37v-49h-427v49q56 9 97.5 65t80.5 160l417 1107h158l340 -1115q24 -78 42.5 -119t44.5 -64t71 -34v-49h-461zM412 540h418
l-190 645zM669 1424q-108 0 -164.5 50t-56.5 147q0 66 29.5 112.5t81.5 69t118 22.5q110 0 167 -50t57 -145q0 -99 -60.5 -152.5t-171.5 -53.5zM553 1628q0 -67 31 -104.5t93 -37.5q58 0 88.5 35t30.5 98q0 70 -32.5 107t-88.5 37q-60 0 -91 -35t-31 -100z" />
    <glyph glyph-name="AE" unicode="&#xc6;" horiz-adv-x="1774" 
d="M1652 1365v-302h-98q-15 49 -31 86t-33 62t-37.5 40t-48.5 20.5t-67 5.5h-342l32 -524h208q44 0 69 12.5t41.5 42.5t31.5 94h94v-384h-94q-14 60 -31 90.5t-40.5 43.5t-70.5 13h-202l39 -577h260q49 0 79.5 8.5t52.5 29t39 53.5t28.5 68.5t31.5 103.5h99l-19 -351h-883
v49q47 10 71 25.5t35.5 43t11.5 75.5q0 30 -2 57l-14 203h-430l-51 -98q-14 -27 -35.5 -73.5t-29 -73t-7.5 -46.5q0 -59 24.5 -82t81.5 -31v-49h-415v49q59 21 105.5 74t96.5 150l568 1092h882zM857 540l-30 501l-4 98q-1 43 -1 72h-10l-340 -671h385z" />
    <glyph glyph-name="Ccedilla" unicode="&#xc7;" horiz-adv-x="1152" 
d="M1042 1336v-277h-99q-24 87 -61 138.5t-86 73.5t-118 22q-103 0 -183.5 -68.5t-126.5 -206t-46 -332.5q0 -196 38 -334.5t112 -209t182 -70.5q82 0 134 23.5t87.5 74.5t67.5 150h99v-286q-132 -34 -277 -45l-91 -69q10 -22 17 -53t7 -59q0 -103 -81.5 -165.5
t-233.5 -72.5l-13 74q65 8 104 30t54 51.5t15 71.5q0 26 -6 52v40l137 96q-10 -1 -20 -1h-21q-254 0 -384 172t-130 513q0 214 67.5 375t198.5 249t313 88q91 0 168 -9.5t176 -35.5z" />
    <glyph glyph-name="Egrave" unicode="&#xc8;" horiz-adv-x="1178" 
d="M1056 1365v-302h-98q-15 49 -31 86t-33 62t-37.5 40t-48.5 20.5t-67 5.5h-316v-524h214q44 0 69 12.5t41.5 42.5t31.5 94h94v-384h-94q-14 60 -31 90.5t-40.5 43.5t-70.5 13h-214v-577h311q49 0 79.5 8.5t52.5 29t39 53.5t28.5 68.5t31.5 103.5h99l-19 -351h-926v49
q62 16 83 35.5t27.5 55.5t6.5 110v865q0 69 -5 100.5t-16.5 49t-30.5 28t-65 23.5v49h935zM522 1782l241 -257l-56 -57l-383 264v50h198z" />
    <glyph glyph-name="Eacute" unicode="&#xc9;" horiz-adv-x="1178" 
d="M1056 1365v-302h-98q-15 49 -31 86t-33 62t-37.5 40t-48.5 20.5t-67 5.5h-316v-524h214q44 0 69 12.5t41.5 42.5t31.5 94h94v-384h-94q-14 60 -31 90.5t-40.5 43.5t-70.5 13h-214v-577h311q49 0 79.5 8.5t52.5 29t39 53.5t28.5 68.5t31.5 103.5h99l-19 -351h-926v49
q62 16 83 35.5t27.5 55.5t6.5 110v865q0 69 -5 100.5t-16.5 49t-30.5 28t-65 23.5v49h935zM890 1782v-50l-382 -264l-56 57l241 257h197z" />
    <glyph glyph-name="Ecircumflex" unicode="&#xca;" horiz-adv-x="1178" 
d="M1056 1365v-302h-98q-15 49 -31 86t-33 62t-37.5 40t-48.5 20.5t-67 5.5h-316v-524h214q44 0 69 12.5t41.5 42.5t31.5 94h94v-384h-94q-14 60 -31 90.5t-40.5 43.5t-70.5 13h-214v-577h311q49 0 79.5 8.5t52.5 29t39 53.5t28.5 68.5t31.5 103.5h99l-19 -351h-926v49
q62 16 83 35.5t27.5 55.5t6.5 110v865q0 69 -5 100.5t-16.5 49t-30.5 28t-65 23.5v49h935zM682 1780l228 -254l-57 -58l-238 185h-11l-240 -185l-56 58l240 254h134z" />
    <glyph glyph-name="Edieresis" unicode="&#xcb;" horiz-adv-x="1178" 
d="M1056 1365v-302h-98q-15 49 -31 86t-33 62t-37.5 40t-48.5 20.5t-67 5.5h-316v-524h214q44 0 69 12.5t41.5 42.5t31.5 94h94v-384h-94q-14 60 -31 90.5t-40.5 43.5t-70.5 13h-214v-577h311q49 0 79.5 8.5t52.5 29t39 53.5t28.5 68.5t31.5 103.5h99l-19 -351h-926v49
q62 16 83 35.5t27.5 55.5t6.5 110v865q0 69 -5 100.5t-16.5 49t-30.5 28t-65 23.5v49h935zM877 1690v-176h-167v176h167zM508 1690v-176h-167v176h167z" />
    <glyph glyph-name="Igrave" unicode="&#xcc;" horiz-adv-x="664" 
d="M426 250q0 -67 4.5 -98t15 -49t31 -30t66.5 -24v-49h-422v49q62 16 83 35.5t27.5 55.5t6.5 110v865q0 69 -5 100.5t-16.5 49t-30.5 28t-65 23.5v49h422v-49q-44 -11 -63.5 -22t-31 -27.5t-17 -49.5t-5.5 -102v-865zM249 1782l241 -257l-56 -57l-383 264v50h198z" />
    <glyph glyph-name="Iacute" unicode="&#xcd;" horiz-adv-x="664" 
d="M426 250q0 -67 4.5 -98t15 -49t31 -30t66.5 -24v-49h-422v49q62 16 83 35.5t27.5 55.5t6.5 110v865q0 69 -5 100.5t-16.5 49t-30.5 28t-65 23.5v49h422v-49q-44 -11 -63.5 -22t-31 -27.5t-17 -49.5t-5.5 -102v-865zM613 1782v-50l-382 -264l-56 57l241 257h197z" />
    <glyph glyph-name="Icircumflex" unicode="&#xce;" horiz-adv-x="664" 
d="M426 250q0 -67 4.5 -98t15 -49t31 -30t66.5 -24v-49h-422v49q62 16 83 35.5t27.5 55.5t6.5 110v865q0 69 -5 100.5t-16.5 49t-30.5 28t-65 23.5v49h422v-49q-44 -11 -63.5 -22t-31 -27.5t-17 -49.5t-5.5 -102v-865zM405 1780l228 -254l-57 -58l-238 185h-11l-240 -185
l-56 58l240 254h134z" />
    <glyph glyph-name="Idieresis" unicode="&#xcf;" horiz-adv-x="664" 
d="M426 250q0 -67 4.5 -98t15 -49t31 -30t66.5 -24v-49h-422v49q62 16 83 35.5t27.5 55.5t6.5 110v865q0 69 -5 100.5t-16.5 49t-30.5 28t-65 23.5v49h422v-49q-44 -11 -63.5 -22t-31 -27.5t-17 -49.5t-5.5 -102v-865zM600 1690v-176h-167v176h167zM231 1690v-176h-167v176
h167z" />
    <glyph glyph-name="Eth" unicode="&#xd0;" horiz-adv-x="1361" 
d="M50 761h194v354q0 70 -5 101.5t-16.5 48.5t-30.5 27.5t-66 23.5v49h437q187 0 307.5 -41t204.5 -121.5t125.5 -201.5t41.5 -289q0 -169 -38.5 -297.5t-112.5 -215.5q-64 -76 -157 -125q-77 -40 -178 -57t-268 -17h-362v49q46 12 66 23t31 28t16 49t5 101v419h-194v92z
M431 93q40 -4 118 -4q170 0 271 57.5t159.5 189t58.5 358.5q0 203 -58.5 333.5t-165 190.5t-254.5 60q-68 0 -129 -4v-513h320v-92h-320v-576z" />
    <glyph glyph-name="Ntilde" unicode="&#xd1;" horiz-adv-x="1394" 
d="M924 541q36 -60 60.5 -105t50.5 -101h13q-5 61 -9 242.5t-4 327.5v210q0 69 -4 101t-14.5 49t-29 27.5t-64.5 23.5v49h360v-49q-45 -12 -63.5 -22t-30 -26t-17.5 -48t-6 -105v-1121h-125l-557 934q-52 87 -74 127t-41 79h-17q7 -77 10 -278.5t3 -401.5v-204
q0 -67 4.5 -98t15 -49t31 -30t66.5 -24v-49h-365v49q62 16 83 35.5t27.5 55.5t6.5 110v865q0 69 -5 100.5t-16.5 49t-30.5 28t-65 23.5v49h313zM973 1718l78 -34q-38 -82 -72.5 -126.5t-66 -61t-71.5 -16.5q-27 0 -47 5.5t-39.5 16t-60.5 38.5q-27 18 -42.5 28t-32.5 16.5
t-36 6.5q-26 0 -43.5 -10t-35.5 -35t-37 -66l-78 34q48 96 78 133.5t61.5 54t75.5 16.5q24 0 43.5 -5.5t36 -14.5t56.5 -36q29 -20 46 -31t35 -17.5t41 -6.5q32 0 57 24.5t54 86.5z" />
    <glyph glyph-name="Ograve" unicode="&#xd2;" horiz-adv-x="1338" 
d="M654 -16q-120 0 -218.5 39.5t-169 123t-109 213.5t-38.5 311q0 223 68 383t194.5 243.5t293.5 83.5q178 0 299.5 -78.5t183 -231t61.5 -371.5q0 -234 -70 -395t-197.5 -241t-297.5 -80zM325 699q0 -307 89.5 -467t261.5 -160q109 0 185 69.5t114 203.5t38 313
q0 218 -44.5 361.5t-121.5 208.5t-179 65q-90 0 -154.5 -42t-107 -119.5t-62 -187.5t-19.5 -245zM586 1782l241 -257l-56 -57l-383 264v50h198z" />
    <glyph glyph-name="Oacute" unicode="&#xd3;" horiz-adv-x="1338" 
d="M654 -16q-120 0 -218.5 39.5t-169 123t-109 213.5t-38.5 311q0 223 68 383t194.5 243.5t293.5 83.5q178 0 299.5 -78.5t183 -231t61.5 -371.5q0 -234 -70 -395t-197.5 -241t-297.5 -80zM325 699q0 -307 89.5 -467t261.5 -160q109 0 185 69.5t114 203.5t38 313
q0 218 -44.5 361.5t-121.5 208.5t-179 65q-90 0 -154.5 -42t-107 -119.5t-62 -187.5t-19.5 -245zM950 1782v-50l-382 -264l-56 57l241 257h197z" />
    <glyph glyph-name="Ocircumflex" unicode="&#xd4;" horiz-adv-x="1338" 
d="M654 -16q-120 0 -218.5 39.5t-169 123t-109 213.5t-38.5 311q0 223 68 383t194.5 243.5t293.5 83.5q178 0 299.5 -78.5t183 -231t61.5 -371.5q0 -234 -70 -395t-197.5 -241t-297.5 -80zM325 699q0 -307 89.5 -467t261.5 -160q109 0 185 69.5t114 203.5t38 313
q0 218 -44.5 361.5t-121.5 208.5t-179 65q-90 0 -154.5 -42t-107 -119.5t-62 -187.5t-19.5 -245zM742 1780l228 -254l-57 -58l-238 185h-11l-240 -185l-56 58l240 254h134z" />
    <glyph glyph-name="Otilde" unicode="&#xd5;" horiz-adv-x="1338" 
d="M654 -16q-120 0 -218.5 39.5t-169 123t-109 213.5t-38.5 311q0 223 68 383t194.5 243.5t293.5 83.5q178 0 299.5 -78.5t183 -231t61.5 -371.5q0 -234 -70 -395t-197.5 -241t-297.5 -80zM325 699q0 -307 89.5 -467t261.5 -160q109 0 185 69.5t114 203.5t38 313
q0 218 -44.5 361.5t-121.5 208.5t-179 65q-90 0 -154.5 -42t-107 -119.5t-62 -187.5t-19.5 -245zM922 1718l78 -34q-38 -82 -72.5 -126.5t-66 -61t-71.5 -16.5q-27 0 -47 5.5t-39.5 16t-60.5 38.5q-27 18 -42.5 28t-32.5 16.5t-36 6.5q-26 0 -43.5 -10t-35.5 -35t-37 -66
l-78 34q48 96 78 133.5t61.5 54t75.5 16.5q24 0 43.5 -5.5t36 -14.5t56.5 -36q29 -20 46 -31t35 -17.5t41 -6.5q32 0 57 24.5t54 86.5z" />
    <glyph glyph-name="Odieresis" unicode="&#xd6;" horiz-adv-x="1338" 
d="M654 -16q-120 0 -218.5 39.5t-169 123t-109 213.5t-38.5 311q0 223 68 383t194.5 243.5t293.5 83.5q178 0 299.5 -78.5t183 -231t61.5 -371.5q0 -234 -70 -395t-197.5 -241t-297.5 -80zM325 699q0 -307 89.5 -467t261.5 -160q109 0 185 69.5t114 203.5t38 313
q0 218 -44.5 361.5t-121.5 208.5t-179 65q-90 0 -154.5 -42t-107 -119.5t-62 -187.5t-19.5 -245zM937 1690v-176h-167v176h167zM568 1690v-176h-167v176h167z" />
    <glyph glyph-name="multiply" unicode="&#xd7;" horiz-adv-x="1134" 
d="M665 585l301 -298l-101 -101l-298 302l-298 -302l-101 101l301 298l-301 298l101 101l298 -301l298 301l101 -100z" />
    <glyph glyph-name="Oslash" unicode="&#xd8;" horiz-adv-x="1338" 
d="M101 -135l169 277q-72 83 -111.5 214.5t-39.5 314.5q0 223 68 383t194.5 243.5t293.5 83.5q93 0 166.5 -21.5t136.5 -63.5l121 203h138l-170 -277q74 -86 113 -216.5t39 -305.5q0 -234 -70 -395t-197.5 -241t-297.5 -80q-175 0 -297 83l-119 -202h-137zM379 310l520 859
q-45 64 -103.5 94t-127.5 30q-90 0 -154.5 -42t-107 -119.5t-62 -187.5t-19.5 -245q0 -235 54 -389zM958 1053l-520 -858q87 -123 238 -123q109 0 185 69.5t114 203.5t38 313q0 238 -55 395z" />
    <glyph glyph-name="Ugrave" unicode="&#xd9;" horiz-adv-x="1327" 
d="M1125 472q0 -109 -20 -188q-19 -75 -57 -133q-35 -52 -87 -88.5t-126 -57.5t-174 -21q-121 0 -207.5 27t-143 88.5t-81.5 145t-25 212.5v658q0 78 -5 105.5t-14.5 43.5t-27.5 27.5t-67 24.5v49h420v-49q-56 -14 -78 -31.5t-30 -52.5t-8 -117v-708q0 -97 20.5 -163
t57.5 -102.5t88 -53t127 -16.5q70 0 123 24.5t88.5 74.5t48.5 123t13 196v625q0 87 -8.5 119t-28 49t-80.5 33v49h399v-49q-58 -15 -79.5 -33t-29.5 -52t-8 -116v-643zM575 1782l241 -257l-56 -57l-383 264v50h198z" />
    <glyph glyph-name="Uacute" unicode="&#xda;" horiz-adv-x="1327" 
d="M1125 472q0 -109 -20 -188q-19 -75 -57 -133q-35 -52 -87 -88.5t-126 -57.5t-174 -21q-121 0 -207.5 27t-143 88.5t-81.5 145t-25 212.5v658q0 78 -5 105.5t-14.5 43.5t-27.5 27.5t-67 24.5v49h420v-49q-56 -14 -78 -31.5t-30 -52.5t-8 -117v-708q0 -97 20.5 -163
t57.5 -102.5t88 -53t127 -16.5q70 0 123 24.5t88.5 74.5t48.5 123t13 196v625q0 87 -8.5 119t-28 49t-80.5 33v49h399v-49q-58 -15 -79.5 -33t-29.5 -52t-8 -116v-643zM994 1782v-50l-382 -264l-56 57l241 257h197z" />
    <glyph glyph-name="Ucircumflex" unicode="&#xdb;" horiz-adv-x="1327" 
d="M1125 472q0 -109 -20 -188q-19 -75 -57 -133q-35 -52 -87 -88.5t-126 -57.5t-174 -21q-121 0 -207.5 27t-143 88.5t-81.5 145t-25 212.5v658q0 78 -5 105.5t-14.5 43.5t-27.5 27.5t-67 24.5v49h420v-49q-56 -14 -78 -31.5t-30 -52.5t-8 -117v-708q0 -97 20.5 -163
t57.5 -102.5t88 -53t127 -16.5q70 0 123 24.5t88.5 74.5t48.5 123t13 196v625q0 87 -8.5 119t-28 49t-80.5 33v49h399v-49q-58 -15 -79.5 -33t-29.5 -52t-8 -116v-643zM756 1780l228 -254l-57 -58l-238 185h-11l-240 -185l-56 58l240 254h134z" />
    <glyph glyph-name="Udieresis" unicode="&#xdc;" horiz-adv-x="1327" 
d="M1125 472q0 -109 -20 -188q-19 -75 -57 -133q-35 -52 -87 -88.5t-126 -57.5t-174 -21q-121 0 -207.5 27t-143 88.5t-81.5 145t-25 212.5v658q0 78 -5 105.5t-14.5 43.5t-27.5 27.5t-67 24.5v49h420v-49q-56 -14 -78 -31.5t-30 -52.5t-8 -117v-708q0 -97 20.5 -163
t57.5 -102.5t88 -53t127 -16.5q70 0 123 24.5t88.5 74.5t48.5 123t13 196v625q0 87 -8.5 119t-28 49t-80.5 33v49h399v-49q-58 -15 -79.5 -33t-29.5 -52t-8 -116v-643zM951 1690v-176h-167v176h167zM582 1690v-176h-167v176h167z" />
    <glyph glyph-name="Yacute" unicode="&#xdd;" horiz-adv-x="1168" 
d="M482 573l-276 513q-50 93 -76 133t-52 63t-60 34v49h426v-49q-94 -11 -94 -81q0 -29 13.5 -65t48.5 -102l200 -381l197 348q40 71 56.5 116.5t16.5 83.5q0 36 -21.5 56.5t-63.5 24.5v49h379v-49q-41 -15 -72 -41.5t-63 -71.5t-94 -152l-278 -474v-324q0 -57 6 -92t20 -56
t37 -33t72 -23v-49h-457v49q48 10 71 21.5t37 33t20.5 56.5t6.5 93v320zM935 1782v-50l-382 -264l-56 57l241 257h197z" />
    <glyph glyph-name="Thorn" unicode="&#xde;" horiz-adv-x="1175" 
d="M542 1365v-49q-45 -12 -63.5 -22t-30 -26t-17.5 -48t-6 -105v-7h197q234 0 348.5 -89.5t114.5 -272.5q0 -104 -36 -187t-102 -136t-156 -76t-189 -23q-95 0 -177 4v-75q0 -59 6.5 -94t20 -55.5t36.5 -32t72 -22.5v-49h-439v49q62 16 83 35.5t27.5 55.5t6.5 110v865
q0 69 -5 100.5t-16.5 49t-30.5 28t-65 23.5v49h421zM425 411h121q113 0 186.5 29.5t112.5 98t39 181.5q0 86 -23 143.5t-63.5 92.5t-96.5 49.5t-122 14.5q-85 0 -154 -4v-605z" />
    <glyph glyph-name="germandbls" unicode="&#xdf;" horiz-adv-x="1240" 
d="M372 0h-285v49q44 12 63 23t29.5 28t15.5 49t5 101v605h-121v51q62 7 90 31.5t34 79.5q10 92 43 169t95.5 133t149.5 86.5t200 30.5q159 0 247 -70t88 -198q0 -51 -17 -93t-56.5 -85t-145.5 -123q-39 -31 -59 -50.5t-31.5 -41.5t-11.5 -46q0 -41 17 -67.5t56 -51.5
t114 -57q103 -44 157.5 -80.5t86.5 -86t32 -117.5q0 -79 -27 -133t-75.5 -88t-115 -49t-144.5 -15q-136 0 -277 40v176h92q21 -51 45 -79t59 -43t86 -15q36 0 70 7.5t60 25t42 47.5t16 75q0 27 -5.5 48.5t-16.5 38.5t-26 30.5t-33 25t-50.5 27t-98.5 43.5q-73 31 -118.5 65
t-69.5 78.5t-24 105.5q0 63 36.5 113.5t122.5 116.5q58 45 87.5 80.5t44.5 76t15 92.5q0 56 -16 93.5t-43 60.5t-62.5 33t-73.5 10q-59 0 -105.5 -17t-84.5 -55t-61.5 -97.5t-34 -144.5t-10.5 -221v-821z" />
    <glyph glyph-name="agrave" unicode="&#xe0;" horiz-adv-x="1000" 
d="M675 143l-15 4q-87 -89 -163.5 -126t-162.5 -37q-76 0 -134 29.5t-89 83t-31 123.5q0 146 144.5 225.5t433.5 92.5v65q0 104 -20 164t-63 88t-115 28q-78 0 -125.5 -41t-71.5 -123h-131v130q96 50 160 73.5t128 37t130 13.5q99 0 159 -31.5t90 -96.5t30 -196v-348
q0 -74 1 -104.5t6 -56.5t15 -41.5t29.5 -26.5t63.5 -23v-49h-274zM658 456q-203 -2 -304 -54t-101 -157q0 -57 23 -90t58 -45.5t83 -12.5q68 0 123.5 33t86.5 84t31 101v141zM412 1442l207 -320l-66 -52l-316 322v50h175z" />
    <glyph glyph-name="aacute" unicode="&#xe1;" horiz-adv-x="1000" 
d="M675 143l-15 4q-87 -89 -163.5 -126t-162.5 -37q-76 0 -134 29.5t-89 83t-31 123.5q0 146 144.5 225.5t433.5 92.5v65q0 104 -20 164t-63 88t-115 28q-78 0 -125.5 -41t-71.5 -123h-131v130q96 50 160 73.5t128 37t130 13.5q99 0 159 -31.5t90 -96.5t30 -196v-348
q0 -74 1 -104.5t6 -56.5t15 -41.5t29.5 -26.5t63.5 -23v-49h-274zM658 456q-203 -2 -304 -54t-101 -157q0 -57 23 -90t58 -45.5t83 -12.5q68 0 123.5 33t86.5 84t31 101v141zM743 1442v-50l-317 -322l-65 52l207 320h175z" />
    <glyph glyph-name="acircumflex" unicode="&#xe2;" horiz-adv-x="1000" 
d="M675 143l-15 4q-87 -89 -163.5 -126t-162.5 -37q-76 0 -134 29.5t-89 83t-31 123.5q0 146 144.5 225.5t433.5 92.5v65q0 104 -20 164t-63 88t-115 28q-78 0 -125.5 -41t-71.5 -123h-131v130q96 50 160 73.5t128 37t130 13.5q99 0 159 -31.5t90 -96.5t30 -196v-348
q0 -74 1 -104.5t6 -56.5t15 -41.5t29.5 -26.5t63.5 -23v-49h-274zM658 456q-203 -2 -304 -54t-101 -157q0 -57 23 -90t58 -45.5t83 -12.5q68 0 123.5 33t86.5 84t31 101v141zM562 1442l214 -315l-69 -57l-212 243h-11l-212 -243l-68 57l224 315h134z" />
    <glyph glyph-name="atilde" unicode="&#xe3;" horiz-adv-x="1000" 
d="M675 143l-15 4q-87 -89 -163.5 -126t-162.5 -37q-76 0 -134 29.5t-89 83t-31 123.5q0 146 144.5 225.5t433.5 92.5v65q0 104 -20 164t-63 88t-115 28q-78 0 -125.5 -41t-71.5 -123h-131v130q96 50 160 73.5t128 37t130 13.5q99 0 159 -31.5t90 -96.5t30 -196v-348
q0 -74 1 -104.5t6 -56.5t15 -41.5t29.5 -26.5t63.5 -23v-49h-274zM658 456q-203 -2 -304 -54t-101 -157q0 -57 23 -90t58 -45.5t83 -12.5q68 0 123.5 33t86.5 84t31 101v141zM743 1366l78 -34q-38 -82 -72.5 -126.5t-66 -61t-71.5 -16.5q-27 0 -47 5.5t-39.5 16t-60.5 38.5
q-27 18 -42.5 28t-32.5 16.5t-36 6.5q-26 0 -43.5 -10t-35.5 -35t-37 -66l-78 34q48 96 78 133.5t61.5 54t75.5 16.5q24 0 43.5 -5.5t36 -14.5t56.5 -36q29 -20 46 -31t35 -17.5t41 -6.5q32 0 57 24.5t54 86.5z" />
    <glyph glyph-name="adieresis" unicode="&#xe4;" horiz-adv-x="1000" 
d="M675 143l-15 4q-87 -89 -163.5 -126t-162.5 -37q-76 0 -134 29.5t-89 83t-31 123.5q0 146 144.5 225.5t433.5 92.5v65q0 104 -20 164t-63 88t-115 28q-78 0 -125.5 -41t-71.5 -123h-131v130q96 50 160 73.5t128 37t130 13.5q99 0 159 -31.5t90 -96.5t30 -196v-348
q0 -74 1 -104.5t6 -56.5t15 -41.5t29.5 -26.5t63.5 -23v-49h-274zM658 456q-203 -2 -304 -54t-101 -157q0 -57 23 -90t58 -45.5t83 -12.5q68 0 123.5 33t86.5 84t31 101v141zM743 1339v-176h-167v176h167zM404 1339v-176h-167v176h167z" />
    <glyph glyph-name="aring" unicode="&#xe5;" horiz-adv-x="1000" 
d="M675 143l-15 4q-87 -89 -163.5 -126t-162.5 -37q-76 0 -134 29.5t-89 83t-31 123.5q0 146 144.5 225.5t433.5 92.5v65q0 104 -20 164t-63 88t-115 28q-78 0 -125.5 -41t-71.5 -123h-131v130q96 50 160 73.5t128 37t130 13.5q99 0 159 -31.5t90 -96.5t30 -196v-348
q0 -74 1 -104.5t6 -56.5t15 -41.5t29.5 -26.5t63.5 -23v-49h-274zM658 456q-203 -2 -304 -54t-101 -157q0 -57 23 -90t58 -45.5t83 -12.5q68 0 123.5 33t86.5 84t31 101v141zM484 1071q-108 0 -164.5 50t-56.5 147q0 66 29.5 112.5t81.5 69t118 22.5q110 0 167 -50t57 -145
q0 -99 -60.5 -152.5t-171.5 -53.5zM368 1275q0 -67 31 -104.5t93 -37.5q58 0 88.5 35t30.5 98q0 70 -32.5 107t-88.5 37q-60 0 -91 -35t-31 -100z" />
    <glyph glyph-name="ae" unicode="&#xe6;" horiz-adv-x="1541" 
d="M828 493v-18q0 -118 26.5 -198.5t87 -126t157.5 -45.5q82 0 147.5 30.5t130.5 99.5l61 -65q-64 -67 -117.5 -105t-117.5 -59.5t-141 -21.5q-129 0 -218 48t-137 145h-7q-70 -73 -125 -113t-114 -60t-127 -20q-76 0 -134 29.5t-89 83t-31 123.5q0 146 144.5 225.5
t433.5 92.5v65q0 104 -20 164t-63 88t-115 28q-78 0 -125.5 -41t-71.5 -123h-131v130q96 50 160 73.5t128 37t130 13.5q88 0 140 -33t84 -106h12q58 70 130 104.5t164 34.5q101 0 172 -32t113.5 -87.5t66 -140t26.5 -220.5h-630zM1270 576q-6 108 -27 176.5t-63 105
t-110 36.5q-103 0 -164.5 -82.5t-72.5 -235.5h437zM658 456q-203 -2 -304 -54t-101 -157q0 -57 23 -90t58 -45.5t83 -12.5q68 0 123.5 33t86.5 84t31 101v141z" />
    <glyph glyph-name="ccedilla" unicode="&#xe7;" horiz-adv-x="903" 
d="M842 933v-209h-127q-17 65 -42 102.5t-58 52.5t-82 15q-70 0 -124 -45t-85.5 -137t-31.5 -223q0 -86 12 -156.5t41 -121t77 -78.5t119 -28q69 0 128.5 27t123.5 95l57 -66q-28 -31 -66 -65.5t-88 -62.5l-152 -113q10 -22 17 -53t7 -59q0 -103 -81.5 -165.5t-233.5 -72.5
l-13 74q65 8 104 30t54 51.5t15 71.5q0 26 -6 52v40l141 98q-25 -3 -54 -3q-189 0 -289 125.5t-100 362.5q0 148 56 262.5t157 176.5t233 62q82 0 151.5 -9.5t139.5 -30.5z" />
    <glyph glyph-name="egrave" unicode="&#xe8;" horiz-adv-x="999" 
d="M896 170q-64 -67 -117.5 -105t-117.5 -59.5t-141 -21.5q-206 0 -311 123.5t-105 364.5q0 149 53.5 263t152.5 176t228 62q101 0 172 -32t113.5 -87.5t66 -140t26.5 -220.5h-630v-18q0 -118 26.5 -198.5t87 -126t157.5 -45.5q82 0 147.5 30.5t130.5 99.5zM728 576
q-6 108 -27 176.5t-63 105t-110 36.5q-103 0 -164.5 -82.5t-72.5 -235.5h437zM438 1442l207 -320l-66 -52l-316 322v50h175z" />
    <glyph glyph-name="eacute" unicode="&#xe9;" horiz-adv-x="999" 
d="M896 170q-64 -67 -117.5 -105t-117.5 -59.5t-141 -21.5q-206 0 -311 123.5t-105 364.5q0 149 53.5 263t152.5 176t228 62q101 0 172 -32t113.5 -87.5t66 -140t26.5 -220.5h-630v-18q0 -118 26.5 -198.5t87 -126t157.5 -45.5q82 0 147.5 30.5t130.5 99.5zM728 576
q-6 108 -27 176.5t-63 105t-110 36.5q-103 0 -164.5 -82.5t-72.5 -235.5h437zM769 1442v-50l-317 -322l-65 52l207 320h175z" />
    <glyph glyph-name="ecircumflex" unicode="&#xea;" horiz-adv-x="999" 
d="M896 170q-64 -67 -117.5 -105t-117.5 -59.5t-141 -21.5q-206 0 -311 123.5t-105 364.5q0 149 53.5 263t152.5 176t228 62q101 0 172 -32t113.5 -87.5t66 -140t26.5 -220.5h-630v-18q0 -118 26.5 -198.5t87 -126t157.5 -45.5q82 0 147.5 30.5t130.5 99.5zM728 576
q-6 108 -27 176.5t-63 105t-110 36.5q-103 0 -164.5 -82.5t-72.5 -235.5h437zM588 1442l214 -315l-69 -57l-212 243h-11l-212 -243l-68 57l224 315h134z" />
    <glyph glyph-name="edieresis" unicode="&#xeb;" horiz-adv-x="999" 
d="M896 170q-64 -67 -117.5 -105t-117.5 -59.5t-141 -21.5q-206 0 -311 123.5t-105 364.5q0 149 53.5 263t152.5 176t228 62q101 0 172 -32t113.5 -87.5t66 -140t26.5 -220.5h-630v-18q0 -118 26.5 -198.5t87 -126t157.5 -45.5q82 0 147.5 30.5t130.5 99.5zM728 576
q-6 108 -27 176.5t-63 105t-110 36.5q-103 0 -164.5 -82.5t-72.5 -235.5h437zM769 1339v-176h-167v176h167zM430 1339v-176h-167v176h167z" />
    <glyph glyph-name="igrave" unicode="&#xec;" horiz-adv-x="569" 
d="M97 49q39 12 55.5 21t28 25t18 49t6.5 103v436q0 64 -2 103t-14 62.5t-36.5 35t-69.5 19.5v53l233 9h61v-715q0 -86 8 -119.5t30.5 -51t73.5 -30.5v-49h-392v49zM210 1442l207 -320l-66 -52l-316 322v50h175z" />
    <glyph glyph-name="iacute" unicode="&#xed;" horiz-adv-x="569" 
d="M97 49q39 12 55.5 21t28 25t18 49t6.5 103v436q0 64 -2 103t-14 62.5t-36.5 35t-69.5 19.5v53l233 9h61v-715q0 -86 8 -119.5t30.5 -51t73.5 -30.5v-49h-392v49zM544 1442v-50l-317 -322l-65 52l207 320h175z" />
    <glyph glyph-name="icircumflex" unicode="&#xee;" horiz-adv-x="569" 
d="M97 49q39 12 55.5 21t28 25t18 49t6.5 103v436q0 64 -2 103t-14 62.5t-36.5 35t-69.5 19.5v53l233 9h61v-715q0 -86 8 -119.5t30.5 -51t73.5 -30.5v-49h-392v49zM356 1442l214 -315l-69 -57l-212 243h-11l-212 -243l-68 57l224 315h134z" />
    <glyph glyph-name="idieresis" unicode="&#xef;" horiz-adv-x="569" 
d="M97 49q39 12 55.5 21t28 25t18 49t6.5 103v436q0 64 -2 103t-14 62.5t-36.5 35t-69.5 19.5v53l233 9h61v-715q0 -86 8 -119.5t30.5 -51t73.5 -30.5v-49h-392v49zM537 1339v-176h-167v176h167zM198 1339v-176h-167v176h167z" />
    <glyph glyph-name="eth" unicode="&#xf0;" horiz-adv-x="1086" 
d="M215 1100l269 149q-96 59 -247 101l22 85q192 -44 335 -122l201 113l44 -77l-162 -87q148 -108 224.5 -287t76.5 -421q0 -178 -46.5 -305t-147 -196t-255.5 -69q-205 0 -314.5 119t-109.5 340q0 153 52.5 263t150.5 168t230 58q70 0 126.5 -19.5t107.5 -61.5l12 7
q-62 211 -218 338l-307 -173zM293 465q0 -196 66.5 -299t189.5 -103q80 0 134.5 45t82.5 135t28 224q0 122 -29 209.5t-84 132t-134 44.5q-70 0 -118.5 -29t-79 -81t-43.5 -123.5t-13 -154.5zM1086 956z" />
    <glyph glyph-name="ntilde" unicode="&#xf1;" horiz-adv-x="1143" 
d="M1071 0h-394v49q39 12 56 21t28.5 25t18 49.5t6.5 101.5v262q0 70 -4 127t-13.5 93.5t-23 57t-32 35t-42.5 23t-63 8.5t-74 -15.5t-77 -53.5t-61 -75t-19 -85v-373q0 -86 8 -119.5t30.5 -51t73.5 -30.5v-49h-392v49q39 12 55.5 21t28 25t18 49t6.5 103v436q0 64 -2 103
t-14 62.5t-36.5 35t-69.5 19.5v53l234 9h61l-11 -163l14 -4q74 75 119.5 107t92 49.5t98.5 17.5q54 0 96.5 -12.5t75 -38.5t53.5 -64.5t31.5 -92.5t10.5 -137v-377q0 -69 4 -100t14 -48t29 -28.5t66 -24.5v-49zM826 1366l78 -34q-38 -82 -72.5 -126.5t-66 -61t-71.5 -16.5
q-27 0 -47 5.5t-39.5 16t-60.5 38.5q-27 18 -42.5 28t-32.5 16.5t-36 6.5q-26 0 -43.5 -10t-35.5 -35t-37 -66l-78 34q48 96 78 133.5t61.5 54t75.5 16.5q24 0 43.5 -5.5t36 -14.5t56.5 -36q29 -20 46 -31t35 -17.5t41 -6.5q32 0 57 24.5t54 86.5z" />
    <glyph glyph-name="ograve" unicode="&#xf2;" horiz-adv-x="1087" 
d="M532 -16q-208 0 -317.5 122.5t-109.5 362.5q0 165 57.5 279t157.5 169.5t228 55.5q214 0 324 -124.5t110 -357.5q0 -166 -55 -280t-156 -170.5t-239 -56.5zM294 490q0 -206 65.5 -316.5t187.5 -110.5q67 0 114 32.5t76.5 87.5t42.5 127.5t13 151.5q0 147 -32.5 244
t-88.5 142.5t-128 45.5q-121 0 -185.5 -105t-64.5 -299zM466 1442l207 -320l-66 -52l-316 322v50h175z" />
    <glyph glyph-name="oacute" unicode="&#xf3;" horiz-adv-x="1087" 
d="M532 -16q-208 0 -317.5 122.5t-109.5 362.5q0 165 57.5 279t157.5 169.5t228 55.5q214 0 324 -124.5t110 -357.5q0 -166 -55 -280t-156 -170.5t-239 -56.5zM294 490q0 -206 65.5 -316.5t187.5 -110.5q67 0 114 32.5t76.5 87.5t42.5 127.5t13 151.5q0 147 -32.5 244
t-88.5 142.5t-128 45.5q-121 0 -185.5 -105t-64.5 -299zM796 1442v-50l-317 -322l-65 52l207 320h175z" />
    <glyph glyph-name="ocircumflex" unicode="&#xf4;" horiz-adv-x="1087" 
d="M532 -16q-208 0 -317.5 122.5t-109.5 362.5q0 165 57.5 279t157.5 169.5t228 55.5q214 0 324 -124.5t110 -357.5q0 -166 -55 -280t-156 -170.5t-239 -56.5zM294 490q0 -206 65.5 -316.5t187.5 -110.5q67 0 114 32.5t76.5 87.5t42.5 127.5t13 151.5q0 147 -32.5 244
t-88.5 142.5t-128 45.5q-121 0 -185.5 -105t-64.5 -299zM616 1442l214 -315l-69 -57l-212 243h-11l-212 -243l-68 57l224 315h134z" />
    <glyph glyph-name="otilde" unicode="&#xf5;" horiz-adv-x="1087" 
d="M532 -16q-208 0 -317.5 122.5t-109.5 362.5q0 165 57.5 279t157.5 169.5t228 55.5q214 0 324 -124.5t110 -357.5q0 -166 -55 -280t-156 -170.5t-239 -56.5zM294 490q0 -206 65.5 -316.5t187.5 -110.5q67 0 114 32.5t76.5 87.5t42.5 127.5t13 151.5q0 147 -32.5 244
t-88.5 142.5t-128 45.5q-121 0 -185.5 -105t-64.5 -299zM798 1366l78 -34q-38 -82 -72.5 -126.5t-66 -61t-71.5 -16.5q-27 0 -47 5.5t-39.5 16t-60.5 38.5q-27 18 -42.5 28t-32.5 16.5t-36 6.5q-26 0 -43.5 -10t-35.5 -35t-37 -66l-78 34q48 96 78 133.5t61.5 54t75.5 16.5
q24 0 43.5 -5.5t36 -14.5t56.5 -36q29 -20 46 -31t35 -17.5t41 -6.5q32 0 57 24.5t54 86.5z" />
    <glyph glyph-name="odieresis" unicode="&#xf6;" horiz-adv-x="1087" 
d="M532 -16q-208 0 -317.5 122.5t-109.5 362.5q0 165 57.5 279t157.5 169.5t228 55.5q214 0 324 -124.5t110 -357.5q0 -166 -55 -280t-156 -170.5t-239 -56.5zM294 490q0 -206 65.5 -316.5t187.5 -110.5q67 0 114 32.5t76.5 87.5t42.5 127.5t13 151.5q0 147 -32.5 244
t-88.5 142.5t-128 45.5q-121 0 -185.5 -105t-64.5 -299zM797 1339v-176h-167v176h167zM458 1339v-176h-167v176h167z" />
    <glyph glyph-name="divide" unicode="&#xf7;" horiz-adv-x="1134" 
d="M567 1040q29 0 53.5 -13.5t39 -39.5t14.5 -59t-14.5 -59t-39 -39.5t-53.5 -13.5t-53.5 13.5t-39 39.5t-14.5 59t14.5 59t39 39.5t53.5 13.5zM127 515v139h880v-139h-880zM567 353q29 0 53.5 -13.5t39 -39.5t14.5 -59t-14.5 -59t-39 -39.5t-53.5 -13.5t-53.5 13.5
t-39 39.5t-14.5 59t14.5 59t39 39.5t53.5 13.5z" />
    <glyph glyph-name="oslash" unicode="&#xf8;" horiz-adv-x="1087" 
d="M763 929l102 163h131l-142 -226q128 -125 128 -375q0 -166 -55 -280t-156 -170.5t-239 -56.5q-120 0 -209 42l-102 -161h-130l141 222q-127 123 -127 382q0 165 57.5 279t157.5 169.5t228 55.5q127 0 215 -44zM330 227l366 596q-31 36 -70 53t-83 17q-121 0 -186 -104.5
t-65 -298.5q0 -150 38 -263zM757 728l-368 -597q60 -68 158 -68q67 0 114 32.5t76.5 87.5t43 127.5t13.5 151.5q0 87 -9 149t-28 117z" />
    <glyph glyph-name="ugrave" unicode="&#xf9;" horiz-adv-x="1131" 
d="M73 956h285v-509q0 -117 9 -178t27 -92t51 -52t91 -21q38 0 73 15t78 52.5t61.5 74.5t18.5 86v375q0 57 -3 86t-10 46.5t-16.5 28.5t-27 20t-56.5 19v49h285v-683q0 -77 3 -111t13 -54t31 -32.5t75 -23.5v-52l-229 -10h-61l6 164l-15 4q-83 -90 -158.5 -132t-151.5 -42
q-91 0 -150 36t-88 107.5t-29 201.5v378q0 84 -6.5 115.5t-25 50t-80.5 34.5v49zM473 1442l207 -320l-66 -52l-316 322v50h175z" />
    <glyph glyph-name="uacute" unicode="&#xfa;" horiz-adv-x="1131" 
d="M73 956h285v-509q0 -117 9 -178t27 -92t51 -52t91 -21q38 0 73 15t78 52.5t61.5 74.5t18.5 86v375q0 57 -3 86t-10 46.5t-16.5 28.5t-27 20t-56.5 19v49h285v-683q0 -77 3 -111t13 -54t31 -32.5t75 -23.5v-52l-229 -10h-61l6 164l-15 4q-83 -90 -158.5 -132t-151.5 -42
q-91 0 -150 36t-88 107.5t-29 201.5v378q0 84 -6.5 115.5t-25 50t-80.5 34.5v49zM818 1442v-50l-317 -322l-65 52l207 320h175z" />
    <glyph glyph-name="ucircumflex" unicode="&#xfb;" horiz-adv-x="1131" 
d="M73 956h285v-509q0 -117 9 -178t27 -92t51 -52t91 -21q38 0 73 15t78 52.5t61.5 74.5t18.5 86v375q0 57 -3 86t-10 46.5t-16.5 28.5t-27 20t-56.5 19v49h285v-683q0 -77 3 -111t13 -54t31 -32.5t75 -23.5v-52l-229 -10h-61l6 164l-15 4q-83 -90 -158.5 -132t-151.5 -42
q-91 0 -150 36t-88 107.5t-29 201.5v378q0 84 -6.5 115.5t-25 50t-80.5 34.5v49zM637 1442l214 -315l-69 -57l-212 243h-11l-212 -243l-68 57l224 315h134z" />
    <glyph glyph-name="udieresis" unicode="&#xfc;" horiz-adv-x="1131" 
d="M73 956h285v-509q0 -117 9 -178t27 -92t51 -52t91 -21q38 0 73 15t78 52.5t61.5 74.5t18.5 86v375q0 57 -3 86t-10 46.5t-16.5 28.5t-27 20t-56.5 19v49h285v-683q0 -77 3 -111t13 -54t31 -32.5t75 -23.5v-52l-229 -10h-61l6 164l-15 4q-83 -90 -158.5 -132t-151.5 -42
q-91 0 -150 36t-88 107.5t-29 201.5v378q0 84 -6.5 115.5t-25 50t-80.5 34.5v49zM818 1339v-176h-167v176h167zM479 1339v-176h-167v176h167z" />
    <glyph glyph-name="yacute" unicode="&#xfd;" horiz-adv-x="1032" 
d="M520 -82q-55 -124 -107 -201t-114.5 -116t-148.5 -39q-55 0 -124 13v198h89q12 -41 30 -57t52 -16q30 0 53.5 11.5t49 39.5t60 86t77.5 147l-280 753q-27 73 -43.5 102t-35.5 44t-58 24v49h407v-49q-47 -11 -66 -21.5t-28 -27t-9 -42.5q0 -27 6.5 -56t20.5 -68l178 -501
l200 480q17 40 26.5 73.5t9.5 62.5q0 43 -23.5 65t-81.5 35v49h374v-49q-39 -8 -60 -24.5t-42 -52t-50 -99.5zM787 1442v-50l-317 -322l-65 52l207 320h175z" />
    <glyph glyph-name="thorn" unicode="&#xfe;" horiz-adv-x="1121" 
d="M350 1431v-632l4 -1q62 63 98.5 92t74 47.5t73 26.5t75.5 8q165 0 253.5 -123.5t88.5 -361.5q0 -162 -49.5 -275t-145 -170.5t-228.5 -57.5q-131 0 -244 41v-206q0 -65 4.5 -97t16 -50.5t33 -30.5t69.5 -22v-49h-408v49q36 10 58.5 20.5t34.5 31t16 55.5t4 93v1268
q0 96 -1.5 134t-8 64.5t-18 41.5t-31 24t-70.5 18v52l241 10h60zM350 360q0 -83 8.5 -130.5t26.5 -76.5t48 -50.5t69.5 -30.5t86.5 -9q117 0 178.5 103t61.5 294q0 196 -56.5 294t-172.5 98q-56 0 -96.5 -17.5t-80.5 -56.5t-56.5 -75.5t-16.5 -78.5v-264z" />
    <glyph glyph-name="ydieresis" unicode="&#xff;" horiz-adv-x="1032" 
d="M520 -82q-55 -124 -107 -201t-114.5 -116t-148.5 -39q-55 0 -124 13v198h89q12 -41 30 -57t52 -16q30 0 53.5 11.5t49 39.5t60 86t77.5 147l-280 753q-27 73 -43.5 102t-35.5 44t-58 24v49h407v-49q-47 -11 -66 -21.5t-28 -27t-9 -42.5q0 -27 6.5 -56t20.5 -68l178 -501
l200 480q17 40 26.5 73.5t9.5 62.5q0 43 -23.5 65t-81.5 35v49h374v-49q-39 -8 -60 -24.5t-42 -52t-50 -99.5zM772 1339v-176h-167v176h167zM433 1339v-176h-167v176h167z" />
    <glyph glyph-name="dotlessi" unicode="&#x131;" horiz-adv-x="569" 
d="M97 49q39 12 55.5 21t28 25t18 49t6.5 103v436q0 64 -2 103t-14 62.5t-36.5 35t-69.5 19.5v53l233 9h61v-715q0 -86 8 -119.5t30.5 -51t73.5 -30.5v-49h-392v49z" />
    <glyph glyph-name="circumflex" unicode="&#x2c6;" horiz-adv-x="583" 
d="M364 1442l214 -315l-69 -57l-212 243h-11l-212 -243l-68 57l224 315h134z" />
    <glyph glyph-name="caron" unicode="&#x2c7;" horiz-adv-x="583" 
d="M219 1084l-213 315l68 57l212 -243h11l212 243l69 -57l-225 -315h-134z" />
    <glyph glyph-name="uni02C9" unicode="&#x2c9;" horiz-adv-x="583" 
d="M555 1188h-528v125h528v-125z" />
    <glyph glyph-name="breve" unicode="&#x2d8;" horiz-adv-x="583" 
d="M594 1387q-26 -135 -101.5 -204t-208.5 -69q-124 0 -196 68.5t-98 204.5l77 24q25 -66 56.5 -103t69.5 -51t95 -14q56 0 97 14.5t74.5 51.5t57.5 102z" />
    <glyph glyph-name="dotaccent" unicode="&#x2d9;" horiz-adv-x="583" 
d="M383 1348v-194h-184v194h184z" />
    <glyph glyph-name="ring" unicode="&#x2da;" horiz-adv-x="583" 
d="M286 1071q-108 0 -164.5 50t-56.5 147q0 66 29.5 112.5t81.5 69t118 22.5q110 0 167 -50t57 -145q0 -99 -60.5 -152.5t-171.5 -53.5zM170 1275q0 -67 31 -104.5t93 -37.5q58 0 88.5 35t30.5 98q0 70 -32.5 107t-88.5 37q-60 0 -91 -35t-31 -100z" />
    <glyph glyph-name="ogonek" unicode="&#x2db;" horiz-adv-x="583" 
d="M411 11q-69 -60 -103 -120.5t-34 -120.5q0 -56 25.5 -83t76.5 -27q33 0 57.5 9.5t46.5 24.5l31 -68q-37 -25 -80 -40.5t-98 -15.5q-39 0 -74.5 9.5t-62.5 30.5t-43.5 54.5t-16.5 80.5q0 25 6 49t21 52.5t38.5 56.5t56 56t70.5 52h83z" />
    <glyph glyph-name="tilde" unicode="&#x2dc;" horiz-adv-x="583" 
d="M546 1366l78 -34q-38 -82 -72.5 -126.5t-66 -61t-71.5 -16.5q-27 0 -47 5.5t-39.5 16t-60.5 38.5q-27 18 -42.5 28t-32.5 16.5t-36 6.5q-26 0 -43.5 -10t-35.5 -35t-37 -66l-78 34q48 96 78 133.5t61.5 54t75.5 16.5q24 0 43.5 -5.5t36 -14.5t56.5 -36q29 -20 46 -31
t35 -17.5t41 -6.5q32 0 57 24.5t54 86.5z" />
    <glyph glyph-name="hungarumlaut" unicode="&#x2dd;" horiz-adv-x="0" 
d="M85 1442v-50l-297 -322l-66 52l226 320h137zM-219 1442v-50l-297 -322l-66 52l226 320h137z" />
    <glyph glyph-name="endash" unicode="&#x2013;" horiz-adv-x="1024" 
d="M934 460h-844v132h844v-132z" />
    <glyph glyph-name="emdash" unicode="&#x2014;" 
d="M1958 460h-1868v132h1868v-132z" />
    <glyph glyph-name="quoteleft" unicode="&#x2018;" horiz-adv-x="453" 
d="M130 959q-12 33 -18.5 72t-6.5 71q0 62 18 111.5t59.5 101.5t138.5 138l61 -60q-51 -63 -73 -123t-22 -144q0 -30 3 -64.5t15 -102.5h-175zM453 1431z" />
    <glyph glyph-name="quoteright" unicode="&#x2019;" horiz-adv-x="453" 
d="M323 1431q12 -33 18.5 -72t6.5 -71q0 -66 -20 -117t-63.5 -103.5t-132.5 -130.5l-61 60q49 59 72 119.5t23 147.5q0 30 -3 64t-15 103h175z" />
    <glyph glyph-name="quotesinglbase" unicode="&#x201a;" horiz-adv-x="420" 
d="M298 222q12 -33 18.5 -72t6.5 -71q0 -66 -20 -117t-63.5 -103.5t-132.5 -130.5l-61 60q49 59 72 119.5t23 147.5q0 30 -3 64t-15 103h175z" />
    <glyph glyph-name="quotedblleft" unicode="&#x201c;" horiz-adv-x="769" 
d="M462 964q-11 36 -16.5 74t-5.5 67q0 63 18 113.5t60 103.5t123 126l57 -54q-55 -70 -74.5 -131.5t-19.5 -150.5q0 -67 17 -148h-159zM127 964q-11 36 -16.5 74t-5.5 67q0 63 18 113.5t60 103.5t123 126l57 -54q-55 -70 -74.5 -131.5t-19.5 -150.5q0 -67 17 -148h-159z
M769 1431z" />
    <glyph glyph-name="quotedblright" unicode="&#x201d;" horiz-adv-x="769" 
d="M307 1431q11 -36 16.5 -74t5.5 -67q0 -63 -17.5 -113t-59 -102t-124.5 -128l-57 54q41 53 58.5 90t26.5 83t9 109q0 67 -17 148h159zM642 1431q11 -36 16.5 -74t5.5 -67q0 -63 -17.5 -113t-59 -102t-124.5 -128l-57 54q41 53 58.5 90t26.5 83t9 109q0 67 -17 148h159z
" />
    <glyph glyph-name="quotedblbase" unicode="&#x201e;" horiz-adv-x="738" 
d="M283 222q11 -36 16.5 -74t5.5 -67q0 -63 -17.5 -113t-59 -102t-124.5 -128l-57 54q41 53 58.5 90t26.5 83t9 109q0 67 -17 148h159zM618 222q11 -36 16.5 -74t5.5 -67q0 -63 -17.5 -113t-59 -102t-124.5 -128l-57 54q41 53 58.5 90t26.5 83t9 109q0 67 -17 148h159z" />
    <glyph glyph-name="dagger" unicode="&#x2020;" horiz-adv-x="1058" 
d="M461 802l-302 -56h-50v185h50l317 -56l-49 457v49h204v-49l-49 -457l317 56h50v-185h-50l-302 56v-1108h-136v1108z" />
    <glyph glyph-name="daggerdbl" unicode="&#x2021;" horiz-adv-x="1058" 
d="M461 294v508l-302 -56h-50v185h50l317 -56l-49 457v49h204v-49l-49 -457l317 56h50v-185h-50l-302 56v-508l302 56h50v-185h-50l-317 56l49 -457v-49h-204v49l49 457l-317 -56h-50v185h50z" />
    <glyph glyph-name="bullet" unicode="&#x2022;" horiz-adv-x="908" 
d="M450 280q-89 0 -157.5 39.5t-106 110t-37.5 157.5q0 82 39.5 151t111 110t158.5 41q89 0 157.5 -38.5t105.5 -107.5t37 -157q0 -87 -39.5 -157t-110 -109.5t-158.5 -39.5z" />
    <glyph glyph-name="ellipsis" unicode="&#x2026;" horiz-adv-x="1540" 
d="M451 232v-232h-202v232h202zM941 232v-232h-202v232h202zM1431 232v-232h-202v232h202z" />
    <glyph glyph-name="guilsinglleft" unicode="&#x2039;" horiz-adv-x="620" 
d="M520 113l-64 -50l-356 392v74l356 393l64 -50l-238 -380z" />
    <glyph glyph-name="guilsinglright" unicode="&#x203a;" horiz-adv-x="620" 
d="M100 871l64 50l356 -392v-74l-356 -393l-64 50l239 380z" />
    <glyph glyph-name="fraction" unicode="&#x2044;" horiz-adv-x="234" 
d="M631 1365l-882 -1461h-147l884 1461h145z" />
    <glyph glyph-name="fraction" unicode="&#x2215;" horiz-adv-x="234" 
d="M631 1365l-882 -1461h-147l884 1461h145z" />
    <glyph glyph-name="franc" unicode="&#x20a3;" horiz-adv-x="1134" 
d="M85 506v96h175v174h-175v96h175v243q0 69 -5 100.5t-16.5 49t-30.5 28t-65 23.5v49h912v-302h-98q-22 68 -42.5 110t-43 64t-52.5 31t-79 9h-293v-405h421v-96h-421v-174h421v-96h-421v-253q0 -60 7 -96t23 -57t43 -31.5t67 -19.5v-49h-444v49q62 16 83 35.5t27.5 55.5
t6.5 110v256h-175z" />
    <glyph glyph-name="lira" unicode="&#x20a4;" horiz-adv-x="1134" 
d="M111 526v96h165v174h-165v96h165v33q0 126 29.5 209.5t92.5 140t146.5 81.5t191.5 25q131 0 255 -27v-216h-100q-18 60 -44 94.5t-64 49t-96 14.5q-77 0 -129.5 -41.5t-76.5 -118.5t-24 -231v-13h412v-96h-412v-174h412v-96h-414q-2 -51 -9.5 -89.5t-22 -76.5t-46.5 -91
t-70 -99v-10h394q91 0 126 14t52.5 52t36.5 130h100l-50 -356h-869v49q59 60 94.5 117t60 133.5t24.5 170.5v56h-165z" />
    <glyph glyph-name="peseta" unicode="&#x20a7;" horiz-adv-x="2567" 
d="M425 253q0 -59 6.5 -94t20 -55.5t36.5 -32t72 -22.5v-49h-439v49q62 16 83 35.5t27.5 55.5t6.5 110v865q0 69 -5 100.5t-16.5 49t-30.5 28t-65 23.5v49h496q234 0 348.5 -89.5t114.5 -272.5q0 -104 -36 -187t-102 -136t-156 -76t-189 -23q-111 0 -172 4v-332zM425 668
h116q113 0 186.5 29.5t112.5 98t39 181.5q0 86 -23 143.5t-63.5 92.5t-96.5 49.5t-122 14.5q-99 0 -149 -4v-605zM1091 906q50 8 81 28t48.5 51.5t27.5 79t21 138.5h142v-247h323v-101h-323v-445q0 -97 8 -154.5t30 -90t50 -46.5t72 -14q40 0 75 16.5t69 47.5l45 -54
q-71 -69 -134.5 -100t-131.5 -31q-129 0 -192 76.5t-63 239.5v555h-148v51zM2454 737h-96q-22 60 -52 94.5t-68 48.5t-93 14q-80 0 -127.5 -37.5t-47.5 -102.5q0 -46 19 -76t59 -56t141 -69q102 -44 157.5 -81t87 -86t31.5 -117q0 -79 -27 -133t-76 -88t-116.5 -49
t-147.5 -15q-84 0 -163 12.5t-154 32.5v209h98q27 -92 80 -133.5t146 -41.5q36 0 70.5 7.5t61.5 25t43 47.5t16 75q0 51 -20 83t-62 58.5t-148 71.5q-91 38 -146 74t-86.5 85t-31.5 116q0 82 44.5 142.5t128.5 92.5t197 32q66 0 127.5 -6.5t154.5 -25.5v-204z" />
    <glyph glyph-name="Euro" unicode="&#x20ac;" horiz-adv-x="1287" 
d="M466 526q9 -99 32 -182.5t62 -143.5t96 -94t134 -34q81 0 133 17.5t86.5 56t67.5 114.5h99v-226q-90 -24 -187.5 -37t-215.5 -13q-223 0 -348.5 137t-151.5 405h-238v96h232v49q0 61 6 125h-167v96h181q48 237 192 363t358 126q91 0 167.5 -9.5t171.5 -35.5v-227h-99
q-25 69 -61.5 109.5t-85 57.5t-116.5 17q-84 0 -155 -46t-119 -136.5t-66 -218.5h607v-96h-615q-5 -43 -5 -110v-31q0 -17 1 -33h548v-96h-544z" />
    <glyph glyph-name="uni2116" unicode="&#x2116;" horiz-adv-x="2127" 
d="M924 541q36 -60 60.5 -105t50.5 -101h13q-6 118 -9.5 284.5t-3.5 285.5v210q0 69 -4 101t-14.5 49t-29 27.5t-64.5 23.5v49h360v-49q-54 -14 -70.5 -26t-26 -27t-15 -42t-5.5 -106v-1121h-125l-557 934q-52 87 -74 127t-41 79h-17q7 -77 10 -278.5t3 -401.5v-204
q0 -67 4.5 -98t15 -49t31 -30t66.5 -24v-49h-365v49q62 16 83 35.5t27.5 55.5t6.5 110v865q0 69 -5 100.5t-16.5 49t-30.5 28t-65 23.5v49h313zM1690 503q-152 0 -231 84t-79 244q0 112 42 189t115 114t165 37q86 0 146 -25t97.5 -68.5t54 -103t16.5 -128.5
q0 -165 -85.5 -254t-240.5 -89zM1527 845q0 -135 44.5 -203.5t129.5 -68.5q82 0 125 67.5t43 186.5q0 97 -22.5 159t-60.5 88.5t-87 26.5q-85 0 -128.5 -64.5t-43.5 -191.5zM2008 280h-620v92h620v-92z" />
    <glyph glyph-name="trademark" unicode="&#x2122;" horiz-adv-x="1391" 
d="M38 1365h489v-86h-187v-496h-114v496h-188v86zM1270 1365v-582h-111v310q0 70 3 138h-11l-171 -389h-98l-158 398h-13q4 -52 4 -137v-320h-99v582h168l155 -400l169 400h162z" />
    <glyph glyph-name="partialdiff" unicode="&#x2202;" horiz-adv-x="1116" 
d="M829 875l2 25q3 48 3 83q0 82 -10 148t-33.5 113.5t-63 73t-99.5 25.5q-73 0 -135.5 -34.5t-122.5 -106.5h-72v83q95 67 147.5 95.5t105 42.5t114.5 14q167 0 250 -113.5t83 -343.5q0 -91 -16 -216.5t-54 -261.5t-88 -231t-111 -157t-140.5 -96t-179.5 -34
q-101 0 -175 41.5t-112 120t-38 192.5q0 112 35 222.5t102.5 201t161 142.5t200.5 52q72 0 126 -16.5t120 -64.5zM781 683q0 102 -41.5 148t-126.5 46q-61 0 -116.5 -31.5t-99.5 -90.5t-73.5 -137t-46 -158.5t-16.5 -167.5q0 -90 19.5 -140.5t51.5 -69.5t80 -19
q108 0 184.5 86.5t130.5 260t54 273.5z" />
    <glyph glyph-name="Delta" unicode="&#x2206;" horiz-adv-x="1220" 
d="M51 0v64l523 1317h148l422 -1317v-64h-1093zM228 160h696l-315 1000z" />
    <glyph glyph-name="product" unicode="&#x220f;" horiz-adv-x="1663" 
d="M1573 1431v-49q-61 -17 -86 -31t-40.5 -36.5t-22 -65.5t-6.5 -139v-1219q0 -90 6 -133.5t20 -67t39.5 -39t89.5 -32.5v-49h-530v49q60 16 85 30.5t40 37.5t21.5 66.5t6.5 137.5v1434h-730v-1434q0 -97 6.5 -139t21.5 -64.5t41 -37.5t87 -31v-49h-531v49q60 16 86 30.5
t40.5 38t21 66.5t6.5 137v1219q0 94 -6.5 137t-20.5 65.5t-39.5 37.5t-87.5 32v49h1482z" />
    <glyph glyph-name="summation" unicode="&#x2211;" horiz-adv-x="1451" 
d="M351 1327l487 -739v-76l-546 -750h658q62 0 93.5 8t54 24.5t41 46t35.5 81.5t32 136h117l-29 -488h-1268v56l618 849l-580 899v57h1235v-445h-108q-25 95 -47.5 155t-46 95t-48 53.5t-56.5 28t-85 9.5h-557z" />
    <glyph glyph-name="minus" unicode="&#x2212;" horiz-adv-x="1134" 
d="M127 516v139h880v-139h-880z" />
    <glyph glyph-name="radical" unicode="&#x221a;" horiz-adv-x="1345" 
d="M363 955l353 -776l494 1707h255v-133h-181l-538 -1838h-97l-414 890l-169 -75l-31 75z" />
    <glyph glyph-name="infinity" unicode="&#x221e;" horiz-adv-x="1742" 
d="M892 467q-40 -80 -86 -135t-95.5 -90t-101.5 -50.5t-104 -15.5q-101 0 -175 34.5t-123 92t-73 132.5t-24 156q0 87 26 161t74 128t116.5 84.5t154.5 30.5q64 0 118.5 -20.5t100.5 -57.5t84 -88.5t70 -113.5q42 84 90 138.5t100 86t107.5 43.5t112.5 12q82 0 148.5 -32
t113 -87.5t71.5 -129t25 -155.5q0 -89 -26 -165t-74 -132t-117 -88t-155 -32q-64 0 -116.5 23.5t-96 63t-79.5 93t-66 113.5zM937 543q23 -51 53 -99t68.5 -85.5t86.5 -60t107 -22.5q57 0 102 24.5t76.5 68t48 102.5t16.5 129q0 55 -14 103.5t-43 84t-73.5 56t-105.5 20.5
q-54 0 -100 -24t-85.5 -66.5t-73 -101.5t-63.5 -129zM811 639q-59 135 -140.5 194.5t-177.5 59.5q-50 0 -96.5 -17.5t-82 -53.5t-56.5 -91.5t-21 -130.5q0 -63 15.5 -117t47 -93.5t78 -62t109.5 -22.5q52 0 93.5 22.5t79 65t73.5 104.5t78 142z" />
    <glyph glyph-name="integral" unicode="&#x222b;" horiz-adv-x="871" 
d="M545 362q0 -128 -6.5 -236t-23.5 -198.5t-44 -155.5t-64 -107t-84.5 -64t-109.5 -22q-75 0 -143 29v202h116q19 -44 38 -64t54 -20q46 0 68.5 39t22.5 117q0 89 -5 190t-16 268q-22 317 -22 556v117q0 128 6.5 236t23.5 198.5t44 155.5t64 107t84.5 64t109.5 22
q75 0 143 -29v-202h-116q-20 47 -40 65.5t-51 18.5q-49 0 -70.5 -39t-21.5 -117q0 -89 5 -190t17 -268q21 -317 21 -556v-117z" />
    <glyph glyph-name="approxequal" unicode="&#x2248;" horiz-adv-x="1134" 
d="M88 760q58 93 96 132.5t81.5 59.5t99.5 20q29 0 54 -6t49.5 -17.5t49.5 -29.5t77 -60q68 -57 107.5 -78t81.5 -21q36 0 62.5 14.5t53.5 48.5t72 112l96 -67q-63 -107 -104 -153t-87.5 -71.5t-104.5 -25.5q-37 0 -68 9t-65 28.5t-100 75.5q-54 44 -82 62.5t-54 27.5t-53 9
q-23 0 -41.5 -6t-37 -19t-36 -36t-51.5 -77zM66 302q66 111 108 157t87.5 69.5t103.5 23.5q29 0 54 -6t49.5 -17.5t49.5 -29.5t77 -60q68 -57 107.5 -78t81.5 -21q17 0 35 4t37.5 17.5t42.5 41t51 75.5l96 -68q-45 -76 -84.5 -120.5t-85.5 -68t-104 -23.5q-37 0 -68 9
t-65 28.5t-100 75.5q-54 44 -82 62.5t-54 27.5t-53 9q-30 0 -53 -10.5t-44 -31.5t-41 -51.5t-50 -82.5z" />
    <glyph glyph-name="lessequal" unicode="&#x2264;" horiz-adv-x="1134" 
d="M124 631v140l886 380v-149l-738 -301l738 -300v-150zM124 26v139h886v-139h-886z" />
    <glyph glyph-name="greaterequal" unicode="&#x2265;" horiz-adv-x="1134" 
d="M1010 631l-886 -380v150l738 300l-738 301v149l886 -380v-140zM1010 26h-886v139h886v-139z" />
    <glyph glyph-name="Faux_Greek_caps" unicode="&#xe000;" horiz-adv-x="1240" 
d="M769 0v49q74 13 96 39t22 74q0 54 -31 162l-234 816l-274 -785q-43 -123 -43 -181q0 -108 121 -125v-49h-420v49q63 12 98 61.5t77 162.5l415 1108h131l337 -1115q42 -139 73.5 -171.5t83.5 -45.5v-49h-452z" />
    <glyph glyph-name="uniE001" unicode="&#xe001;" horiz-adv-x="1252" 
d="M121 0v49q62 16 83 35.5t27.5 55.5t6.5 110v865q0 69 -5 100.5t-16.5 49t-30.5 28t-65 23.5v49h547q159 0 255.5 -34t143.5 -100.5t47 -171.5q0 -87 -33.5 -151t-87.5 -106t-139 -78v-9q136 -41 206 -126.5t70 -203.5q0 -136 -60.5 -222t-169.5 -124.5t-264 -38.5h-515z
M600 753q152 0 232.5 73.5t80.5 213.5q0 69 -22.5 114.5t-62 72.5t-93.5 38.5t-117 11.5q-38 0 -100 -2t-93 -4v-518h175zM425 95q73 -7 163 -7q131 0 203.5 33t105 97.5t32.5 161.5t-35.5 160t-109.5 94t-204 31h-155v-570z" />
    <glyph glyph-name="uniE002" unicode="&#xe002;" horiz-adv-x="1152" 
d="M1042 332v-234q0 -109 33 -172t96 -63q34 0 55.5 14.5t28.5 53.5h96v-182q-66 -19 -152 -19q-93 0 -152.5 44t-90.5 134q-18 51 -25 127q-34 -7 -65 -12q-77 -13 -168 -13q-182 0 -313 88t-198.5 249t-67.5 375q0 341 130 513t384 172q118 0 216.5 -12.5t192.5 -37.5
v-286h-99q-32 99 -67.5 150t-87.5 74.5t-134 23.5q-108 0 -182 -70.5t-112 -209t-38 -334.5q0 -195 46 -332.5t126.5 -206t183.5 -68.5q69 0 118 22t86 73.5t61 138.5h99z" />
    <glyph glyph-name="uniE003" unicode="&#xe003;" horiz-adv-x="1220" 
d="M51 0v64l523 1317h148l422 -1317v-64h-1093zM228 160h696l-315 1000z" />
    <glyph glyph-name="uniE004" unicode="&#xe004;" horiz-adv-x="1122" 
d="M317 1273l343 -518v-59l-385 -531h453q87 0 126 39t64 177h100l-22 -381h-948v49l448 616l-420 651v49h924v-349h-94q-41 161 -84.5 209t-125.5 48h-379z" />
    <glyph glyph-name="uniE005" unicode="&#xe005;" horiz-adv-x="1099" 
d="M1033 1365v-302h-98q-22 68 -42.5 110t-43 64t-52.5 31t-79 9h-293v-522h536v-110h-536v-392q0 -82 12 -117.5t36 -53.5t92 -33v-49h-444v49q62 16 83 35.5t27.5 55.5t6.5 110v865q0 69 -5 100.5t-16.5 49t-30.5 28t-65 23.5v49h912z" />
    <glyph glyph-name="uniE006" unicode="&#xe006;" horiz-adv-x="1247" 
d="M647 -16q-266 0 -397 171t-131 518q0 213 70 374t201 247.5t308 86.5q93 0 179 -10.5t191 -36.5v-275h-99q-27 90 -64 140.5t-88.5 72t-130.5 21.5q-109 0 -191 -70t-127.5 -206.5t-45.5 -329.5q0 -304 87.5 -460t261.5 -156q73 0 118.5 21t71 57t35 84.5t9.5 103.5v127
q0 90 -8 130t-27.5 62t-66.5 36v49h384v-49q-36 -12 -54 -27.5t-27.5 -38.5t-13 -56.5t-3.5 -95.5v-77q0 -86 -19 -161t-68.5 -131.5t-135.5 -88.5t-219 -32z" />
    <glyph glyph-name="uniE007" unicode="&#xe007;" horiz-adv-x="1406" 
d="M1168 250q0 -58 3 -87t10 -46.5t17 -28.5t28.5 -20t57.5 -19v-49h-419v49q55 14 77 31t30.5 52t8.5 118v419h-556v-419q0 -67 4.5 -98t15 -49t31 -30t66.5 -24v-49h-421v49q62 16 83 35.5t27.5 55.5t6.5 110v865q0 69 -5 100.5t-16.5 49t-30.5 28t-65 23.5v49h421v-49
q-44 -11 -63.5 -22t-31 -27.5t-17 -49.5t-5.5 -102v-354h556v354q0 87 -8.5 119t-28.5 49t-79 33v49h419v-49q-56 -14 -78 -31.5t-30 -52.5t-8 -117v-865z" />
    <glyph glyph-name="uniE008" unicode="&#xe008;" horiz-adv-x="1608" 
d="M894 238v-5q0 -102 21 -134t96 -50v-49h-414v49q76 18 96.5 50t20.5 134v4q-296 8 -447 112.5t-151 323.5q0 441 598 468q0 106 -26 133.5t-91 41.5v49h414v-49q-65 -15 -91 -42t-26 -131h1q266 0 431.5 -103.5t165.5 -322.5q0 -226 -145 -343t-453 -136zM894 1061v-740
q397 13 397 372q0 366 -397 368zM714 318v740q-397 -17 -397 -370q0 -186 93.5 -276t303.5 -94z" />
    <glyph glyph-name="uniE009" unicode="&#xe009;" horiz-adv-x="1098" 
d="M215 350q41 -159 87.5 -208.5t127.5 -49.5h297v1024q0 97 -20 141t-115 64v49h440v-49q-78 -21 -98.5 -53.5t-20.5 -147.5v-868q0 -133 26 -160t93 -43v-49h-911v350h94z" />
    <glyph glyph-name="uniE00A" unicode="&#xe00a;" horiz-adv-x="1289" 
d="M424 748h30q38 0 69.5 12t70.5 45t119 123q96 107 131 155q44 57 59 96q12 29 12 56q0 40 -23 58.5t-63 22.5v49h436v-49q-32 -7 -63 -24.5t-63.5 -48t-95.5 -100.5l-336 -378l364 -529q58 -84 91 -117.5t63 -49t64 -20.5v-49h-441v49q37 3 54 14t17 33q0 18 -11.5 43.5
t-36.5 61.5l-233 347q-41 62 -60 82t-41 29.5t-59 9.5h-53v-419q0 -67 4.5 -98t15 -49t31 -30t66.5 -24v-49h-421v49q62 16 83 35.5t27.5 55.5t6.5 110v865q0 69 -5 100.5t-16.5 49t-30.5 28t-65 23.5v49h421v-49q-44 -11 -63.5 -22t-31 -27.5t-17 -49.5t-5.5 -102z" />
    <glyph glyph-name="uniE00B" unicode="&#xe00b;" horiz-adv-x="1099" 
d="M425 92h262q43 0 72 5t49.5 15.5t37 29t31.5 48.5t28.5 75.5t33.5 136.5h101l-20 -402h-899v49q62 16 83 35.5t27.5 55.5t6.5 110v865q0 69 -5 100.5t-16.5 49t-30.5 28t-65 23.5v49h421v-49q-44 -12 -62.5 -21.5t-30.5 -25.5t-18 -49t-6 -105v-1023z" />
    <glyph glyph-name="uniE00C" unicode="&#xe00c;" horiz-adv-x="1615" 
d="M1494 1316q-44 -11 -63.5 -22t-31 -27.5t-17 -49.5t-5.5 -102v-865q0 -67 4.5 -98t15 -49t31 -30t66.5 -24v-49h-417v49q57 14 79 32t30 53t8 116v438q0 151 4.5 305.5t10.5 211.5h-17l-374 -613h-102l-348 597h-17q5 -61 9.5 -221t4.5 -329v-389q0 -67 4.5 -98t15 -49
t31 -30t66.5 -24v-49h-365v49q62 16 83 35.5t27.5 55.5t6.5 110v865q0 69 -5 100.5t-16.5 49t-30.5 28t-65 23.5v49h354l336 -578l353 578h334v-49z" />
    <glyph glyph-name="uniE00D" unicode="&#xe00d;" horiz-adv-x="1394" 
d="M924 541q36 -60 60.5 -105t50.5 -101h13q-5 61 -9 242.5t-4 327.5v210q0 69 -4 101t-14.5 49t-29 27.5t-64.5 23.5v49h360v-49q-45 -12 -63.5 -22t-30 -26t-17.5 -48t-6 -105v-1121h-125l-557 934q-52 87 -74 127t-41 79h-17q7 -77 10 -278.5t3 -401.5v-204
q0 -67 4.5 -98t15 -49t31 -30t66.5 -24v-49h-365v49q62 16 83 35.5t27.5 55.5t6.5 110v865q0 69 -5 100.5t-16.5 49t-30.5 28t-65 23.5v49h313z" />
    <glyph glyph-name="uniE00E" unicode="&#xe00e;" horiz-adv-x="1338" 
d="M654 -16q-262 0 -398.5 176t-136.5 511q0 338 151.5 524t404.5 186q266 0 405 -175.5t139 -505.5q0 -344 -149.5 -530t-415.5 -186zM321 699q0 -307 90.5 -467t264.5 -160q168 0 254.5 156.5t86.5 429.5q0 309 -90.5 472t-258.5 163q-347 0 -347 -594zM882 845v-310h-74
q-22 90 -98 90h-82q-43 0 -62.5 -18.5t-34.5 -71.5h-75v310h75q20 -92 109 -92h60q52 0 74 20.5t34 71.5h74z" />
    <glyph glyph-name="uniE00F" unicode="&#xe00f;" horiz-adv-x="1163" 
d="M425 253q0 -59 6.5 -94t20 -55.5t36.5 -32t72 -22.5v-49h-439v49q62 16 83 35.5t27.5 55.5t6.5 110v865q0 69 -5 100.5t-16.5 49t-30.5 28t-65 23.5v49h496q234 0 348.5 -89.5t114.5 -272.5q0 -104 -36 -187t-102 -136t-156 -76t-189 -23q-111 0 -172 4v-332zM425 668
h116q113 0 186.5 29.5t112.5 98t39 181.5q0 86 -23 143.5t-63.5 92.5t-96.5 49.5t-122 14.5q-99 0 -149 -4v-605z" />
    <glyph glyph-name="uniE010" unicode="&#xe010;" horiz-adv-x="1338" 
d="M762 250q0 -84 9 -117.5t32.5 -51.5t81.5 -32v-49h-427v49q62 16 83 35.5t27.5 55.5t6.5 110v109q-226 19 -341 147t-115 354q0 163 67.5 280.5t194.5 179t294 61.5q267 0 405.5 -129t138.5 -371q0 -222 -118 -356t-339 -162v-113zM325 879q0 -214 89.5 -325.5
t261.5 -111.5q109 0 185 49t114 142t38 217q0 214 -89.5 328.5t-255.5 114.5q-167 0 -255 -105.5t-88 -308.5z" />
    <glyph glyph-name="uniE011" unicode="&#xe011;" horiz-adv-x="1163" 
d="M425 253q0 -59 6.5 -94t20 -55.5t36.5 -32t72 -22.5v-49h-439v49q62 16 83 35.5t27.5 55.5t6.5 110v865q0 69 -5 100.5t-16.5 49t-30.5 28t-65 23.5v49h496q234 0 348.5 -89.5t114.5 -272.5q0 -81 -21.5 -148t-61.5 -118.5t-98.5 -86.5t-131.5 -51l95 -255l-101 -38
l-103 277q-36 -2 -61 -2q-111 0 -172 4v-332zM639 946l91 -247q74 31 111.5 98t37.5 180q0 86 -23 143.5t-63.5 92.5t-96.5 49.5t-122 14.5q-99 0 -149 -4v-605h116q43 0 84 4l-87 236z" />
    <glyph glyph-name="uniE012" unicode="&#xe012;" horiz-adv-x="1101" 
d="M785 92l-684 1225v48h902v-343h-98q-19 68 -36.5 113.5t-35 71.5t-35.5 39.5t-40.5 20t-61.5 6.5h-363l685 -1224v-49h-924v367h98q24 -101 41 -149t38 -74.5t53.5 -39t99.5 -12.5h361z" />
    <glyph glyph-name="uniE013" unicode="&#xe013;" horiz-adv-x="1214" 
d="M66 1365h1082v-348h-98q-22 86 -43.5 136t-45.5 76t-51.5 37t-82.5 11h-127v-965q0 -115 28 -167t87 -52q16 0 32 4t31 17.5t27.5 39t20.5 67.5h98v-197q-55 -11 -106 -17.5t-98 -6.5q-69 0 -125.5 15.5t-97 52t-62.5 96t-22 146.5v967h-126q-47 0 -77.5 -9t-56.5 -37.5
t-47.5 -81t-40.5 -132.5h-99v348z" />
    <glyph glyph-name="uniE014" unicode="&#xe014;" horiz-adv-x="1325" 
d="M788 1365h316v-51q-36 -7 -64 -12.5t-47.5 -13t-29.5 -17t-10 -24.5q0 -20 26 -55q106 -144 165.5 -288t59.5 -304q0 -136 -39 -249t-111.5 -194.5t-174.5 -127t-228 -45.5q-136 0 -235.5 43t-165 119t-97.5 180t-32 226q0 175 65 334.5t174 303.5q14 19 20 30.5t6 25.5
q0 12 -8.5 21t-27 17t-49.5 15t-76 15v51h316v-38q-108 -175 -164 -347t-56 -356q0 -62 6.5 -127t21 -126.5t39.5 -115.5t63 -95t91 -64.5t122 -23.5q71 0 124.5 25.5t91.5 68t62.5 98.5t39 118t19.5 126t5 121q0 190 -56.5 360.5t-161.5 337.5v38z" />
    <glyph glyph-name="uniE015" unicode="&#xe015;" horiz-adv-x="1325" 
d="M204 1115q0 78 -5 105.5t-14.5 43.5t-27.5 27.5t-67 24.5v49h420v-49q-56 -14 -78 -31.5t-30 -52.5t-8 -117v-698q0 -70 15.5 -131t49.5 -106.5t88 -72t132 -26.5q73 0 128 23.5t95 63.5t67 93t43 112.5t22.5 122t6.5 120.5q0 247 -42.5 422t-125.5 277v50h213
q120 -254 120 -622q0 -95 -14 -188t-44 -177.5t-75 -156.5t-107 -124.5t-141.5 -82.5t-176.5 -30q-221 0 -332.5 106t-111.5 333v692z" />
    <glyph glyph-name="uniE016" unicode="&#xe016;" horiz-adv-x="2239" 
d="M1205 580q34 -373 116 -440.5t207 -67.5q80 0 140.5 29.5t103.5 79t71 113.5t44.5 133t23 138t6.5 128q0 58 -6 125t-20 134t-36.5 128.5t-55 108.5t-76.5 75.5t-100 28.5q-53 0 -91.5 -12t-67 -38.5t-49 -69.5t-35.5 -104h-101v265q94 25 176 36t167 11q94 0 167 -26
t128.5 -72t94 -109.5t62.5 -138.5t35 -159t11 -170q0 -91 -15 -179.5t-46 -169t-79 -149t-114.5 -118t-151.5 -78t-190 -28.5q-117 0 -218 37.5t-182 135.5h-10q-89 -103 -194.5 -138t-218.5 -35q-158 0 -269 53.5t-180.5 146t-101 216t-31.5 264.5q0 90 14.5 178t44 167.5
t74.5 147.5t106 118t138.5 78t171.5 28q36 0 70.5 -2.5t69.5 -8t72 -14.5t79 -22v-265h-102q-14 62 -31.5 105t-41 69.5t-55 38t-73.5 11.5q-58 0 -105 -26t-84.5 -70.5t-65 -104t-45 -126t-26.5 -136.5t-9 -135q0 -70 8.5 -143.5t28 -142.5t51.5 -130.5t79 -107.5
t111 -72.5t147 -26.5q65 0 112.5 19.5t82 54t58 82.5t38.5 352h168z" />
    <glyph glyph-name="uniE017" unicode="&#xe017;" horiz-adv-x="1170" 
d="M481 1365v-49q-48 -7 -69 -26t-21 -52q0 -28 19 -70t54 -100l145 -243l143 231q32 52 48 83t22.5 52t6.5 43q0 31 -18 52.5t-60 29.5v49h371v-49q-37 -12 -66.5 -35t-63 -67t-95.5 -139l-226 -350l254 -418q54 -89 77.5 -124.5t44 -60t44 -42.5t58.5 -31v-49h-439v49
q46 8 68 25.5t22 52.5q0 28 -14.5 62t-44.5 84l-181 302l-191 -313q-48 -79 -48 -130q0 -33 18 -54t60 -29v-49h-378v49q37 11 61 26.5t46 39.5t49 61t86 129l236 368l-282 464q-40 64 -60.5 93t-38 47t-31.5 25.5t-32 13.5v49h426z" />
    <glyph glyph-name="uniE018" unicode="&#xe018;" horiz-adv-x="1244" 
d="M501 388q0 183 -96 468t-150 348t-103 63q-63 0 -120 -53l-47 63q81 65 130 84.5t117 19.5q88 0 148.5 -48t119 -206t115.5 -474h14q38 168 118 379t161.5 280t184.5 69q55 0 109 -23v-184h-91q-22 50 -67 50q-58 0 -112.5 -70t-149 -323.5t-94.5 -442.5v-135
q0 -101 22 -144t113 -60v-49h-457v49q94 20 114.5 63.5t20.5 140.5v135z" />
    <glyph glyph-name="uniE019" unicode="&#xe019;" horiz-adv-x="1101" 
d="M327 92h711v-451h-103q-10 104 -38.5 197t-64.5 128q-33 31 -92 34h-646v49l685 1224h-363q-39 0 -61.5 -6.5t-40.5 -20t-35.5 -39.5t-35 -71.5t-36.5 -113.5h-98v343h902v-48z" />
    <glyph glyph-name="Faux_Greek_manus" unicode="&#xe020;" horiz-adv-x="1176" 
d="M1164 77q-107 -93 -214 -93q-153 0 -184 280h-11q-137 -280 -336 -280q-149 0 -232 123t-83 351q0 235 119 375t288 140q126 0 197.5 -60t123.5 -201h15l70 244h164v-49q-72 -111 -192 -411q21 -202 49 -304t90 -102q41 0 97 46zM750 483q-27 225 -79.5 318t-151.5 93
q-106 0 -169 -115.5t-63 -307.5q0 -369 183 -369q195 0 280 381z" />
    <glyph glyph-name="uniE021" unicode="&#xe021;" horiz-adv-x="1137" 
d="M346 70v-502h-172v1304q0 564 453 564q171 0 271.5 -84.5t100.5 -233.5q0 -257 -290 -352v-8q327 -75 327 -383q0 -190 -119 -290.5t-294 -100.5q-158 0 -277 86zM500 711v80q141 5 230 91.5t89 227.5q0 115 -57.5 178.5t-155.5 63.5q-139 0 -199.5 -122.5t-60.5 -371.5
v-594q0 -92 71.5 -145t168.5 -53q262 0 262 296q0 159 -90.5 252t-257.5 97z" />
    <glyph glyph-name="uniE022" unicode="&#xe022;" horiz-adv-x="883" 
d="M830 929v-186h-123q-53 146 -188 146q-100 0 -167 -94t-67 -260q0 -147 55 -229t232 -141q117 -41 167 -85.5t50 -128.5q0 -99 -73.5 -189t-217.5 -192l-59 71q184 136 184 262q0 55 -30 83t-99 53q-220 78 -304.5 186.5t-84.5 285.5q0 203 125 332.5t332 129.5
q139 0 268 -44z" />
    <glyph glyph-name="uniE023" unicode="&#xe023;" horiz-adv-x="1057" 
d="M760 875l-3 25q-7 48 -14 83q-18 82 -42 148t-57.5 113.5t-78.5 73t-105 25.5q-73 0 -128 -34.5t-100 -106.5h-72l-18 83q81 67 127.5 95.5t96 42.5t111.5 14q167 0 274 -113.5t156 -343.5q19 -91 30 -216.5t2 -261.5t-39 -231t-78 -157t-120 -96t-172 -34
q-101 0 -184 41.5t-137.5 120t-78.5 192.5q-24 112 -12.5 222.5t59.5 201t130.5 142.5t189.5 52q72 0 129.5 -16.5t133.5 -64.5zM753 683q-21 102 -72.5 148t-136.5 46q-61 0 -110 -31.5t-80 -90.5t-44 -137t-12.5 -158.5t18.5 -167.5q20 -90 50 -140.5t66 -69.5t84 -19
q108 0 166 86.5t75.5 260t-4.5 273.5z" />
    <glyph glyph-name="uniE024" unicode="&#xe024;" horiz-adv-x="909" 
d="M872 147q-182 -163 -421 -163q-164 0 -254.5 68.5t-90.5 191.5q0 90 64 161t184 105v10q-215 57 -215 228q0 101 100.5 165t276.5 64q126 0 305 -55v-172h-102q-63 147 -219 147q-78 0 -128 -41t-50 -115q0 -89 60 -129.5t210 -40.5h57v-108h-90q-132 0 -199 -46.5
t-67 -137.5q0 -177 217 -177q164 0 305 117z" />
    <glyph glyph-name="uniE025" unicode="&#xe025;" horiz-adv-x="886" 
d="M829 746h-102q-71 148 -219 148q-67 0 -107 -26t-57 -77.5t-17 -153.5v-217h454v-104h-454v-746h-172v1021q0 105 23 176.5t74.5 116.5t122 67t144.5 22q151 0 310 -54v-173z" />
    <glyph glyph-name="uniE026" unicode="&#xe026;" horiz-adv-x="1075" 
d="M829 -216q0 -44 -16.5 -78t-43.5 -59.5t-62.5 -43.5t-73.5 -29t-76.5 -16t-71.5 -5q-90 0 -175.5 22t-153.5 73v145h96q39 -79 96.5 -119.5t153.5 -40.5q33 0 65 8t57.5 24.5t41 41.5t15.5 58q0 30 -25 59t-66 61t-93 67.5t-106.5 78t-106.5 93t-93 112t-66 134.5
t-25 162q0 97 33 178.5t92 139.5t139.5 90.5t176.5 32.5q102 0 182 -30.5t135.5 -85.5t85 -131.5t29.5 -167.5q0 -81 -20.5 -150t-64.5 -129t-112 -112t-162 -99q43 -30 82 -61t68.5 -64.5t47 -72.5t17.5 -86zM786 566q0 58 -16 116.5t-47.5 105.5t-78 76.5t-107.5 29.5
q-67 0 -114.5 -31.5t-77.5 -83.5t-44 -119.5t-14 -138.5q0 -73 21 -131t56 -106t80 -87t93 -74q69 44 116.5 91t77 100t42.5 115t13 137z" />
    <glyph glyph-name="uniE027" unicode="&#xe027;" horiz-adv-x="999" 
d="M1036 49v-49h-203q-163 373 -333 718h-6q-86 -504 -134 -619t-160 -115q-79 0 -178 77l38 60q39 -32 85 -32q64 0 110.5 114.5t129.5 551.5q64 335 99 452t87 170.5t146 53.5q135 0 273 -151l-49 -54q-77 84 -162 84q-92 0 -136.5 -81t-95.5 -281l321 -629
q81 -160 168 -270z" />
    <glyph glyph-name="uniE028" unicode="&#xe028;" horiz-adv-x="582" 
d="M178 956h172v-706q0 -161 112 -161q53 0 100 40l41 -58q-105 -87 -209 -87q-216 0 -216 253v719zM498 1487v-50l-228 -377l-73 36l124 391h177z" />
    <glyph glyph-name="uniE029" unicode="&#xe029;" horiz-adv-x="545" 
d="M368 19q0 -140 -29 -224t-100.5 -142.5t-199.5 -95.5l-34 88q62 24 94.5 45.5t53.5 50t32 76.5t11 123v1025h172v-946zM498 1487v-50l-228 -377l-73 36l124 391h177z" />
    <glyph glyph-name="uniE02A" unicode="&#xe02a;" horiz-adv-x="1079" 
d="M1112 78q-116 -94 -233 -94q-69 0 -115.5 38t-93.5 125l-185 338q-40 -34 -118 -79v-406h-172v684q0 130 -16 166.5t-107 52.5v53l233 11h62v-475q112 75 286 284q113 138 166.5 169.5t116.5 31.5q54 0 100 -16v-189h-80q-23 45 -71 45q-42 0 -88 -37.5t-187 -191.5
l240 -402q57 -96 123 -96q49 0 100 47z" />
    <glyph glyph-name="uniE02B" unicode="&#xe02b;" horiz-adv-x="646" 
d="M388 1365v-1141q0 -26 4.5 -49.5t16 -41.5t30 -29t46.5 -11q29 0 54.5 10.5t46.5 25.5l41 -58q-52 -41 -105 -64t-115 -23q-54 0 -88.5 17t-54.5 47t-32 71.5t-12 91.5v904q0 69 -5 100.5t-16.5 49t-30.5 28t-65 23.5v49h285z" />
    <glyph glyph-name="uniE02C" unicode="&#xe02c;" horiz-adv-x="1133" 
d="M353 956q2 -179 53 -240t139 -61q75 0 143 69t69 232h172v-749q0 -117 72 -117q44 0 94 42l39 -60q-105 -87 -210 -87q-82 0 -124.5 48t-42.5 143v292q0 21 0.5 49.5t1 60.5t1.5 64t2 61l-9 3q-100 -195 -216 -195q-110 0 -181 137l-8 -3q2 -55 3.5 -109.5t1.5 -109.5
v-858h-172v1388h172z" />
    <glyph glyph-name="uniE02D" unicode="&#xe02d;" horiz-adv-x="1112" 
d="M761 -430v938q0 217 -40 280.5t-128 63.5q-65 0 -143 -70t-78 -159v-623h-172v733q0 134 -72 134q-44 0 -94 -42l-39 60q113 87 210 87q148 0 162 -171l5 -3q167 174 304 174q113 0 185 -68.5t72 -286.5v-1047h-172z" />
    <glyph glyph-name="uniE02E" unicode="&#xe02e;" horiz-adv-x="1171" 
d="M766 823v-8q213 -126 213 -387q0 -204 -123 -324t-326 -120q-196 0 -313 124t-117 324q0 201 85.5 321.5t215.5 162.5t322 42h403v-135h-360zM637 819q-350 0 -350 -389q0 -175 65 -271t180 -96q261 0 261 359q0 246 -156 397z" />
    <glyph glyph-name="uniE02F" unicode="&#xe02f;" horiz-adv-x="1090" 
d="M313 70v-502h-172v883q0 526 447 526q188 0 291.5 -123.5t103.5 -345.5q0 -255 -113 -389.5t-307 -134.5q-147 0 -250 86zM313 428v-164q0 -87 68 -142.5t162 -55.5q252 0 252 397q0 434 -226 434q-256 0 -256 -469z" />
    <glyph glyph-name="uniE030" unicode="&#xe030;" horiz-adv-x="1458" 
d="M788 -12v-420h-167v420q-517 22 -517 444q0 314 351 545l59 -70q-219 -169 -219 -452q0 -358 326 -385v434q0 217 95 343t269 126q160 0 264.5 -116t104.5 -322q0 -257 -144 -397.5t-422 -149.5zM788 66q379 21 379 473q0 166 -53.5 258t-144.5 92q-68 0 -114 -50.5
t-56.5 -135t-10.5 -269.5v-368z" />
    <glyph glyph-name="uniE031" unicode="&#xe031;" horiz-adv-x="886" 
d="M829 746h-102q-71 148 -219 148q-67 0 -107 -26t-57 -77.5t-17 -153.5v-1067h-172v1021q0 105 23 176.5t74.5 116.5t122 67t144.5 22q151 0 310 -54v-173z" />
    <glyph glyph-name="uniE032" unicode="&#xe032;" horiz-adv-x="1075" 
d="M477 899q-125 108 -167 173.5t-42 129.5q0 103 87 167.5t233 64.5q209 0 354 -107v-145h-96q-81 172 -256 172q-85 0 -129.5 -37.5t-44.5 -89.5q0 -47 39 -92t227 -201q151 -126 221 -240t70 -270q0 -198 -125 -319t-316 -121q-192 0 -311 121.5t-119 314.5
q0 350 375 479zM549 840q-260 -114 -260 -437q0 -152 67.5 -246t173.5 -94q121 0 188.5 97.5t67.5 263.5q0 124 -56.5 220t-180.5 196z" />
    <glyph glyph-name="uniE033" unicode="&#xe033;" horiz-adv-x="979" 
d="M549 823v-573q0 -160 123 -160q56 0 123 53l41 -59q-126 -100 -232 -100q-116 0 -171.5 60t-55.5 194v585h-88q-79 0 -122 -25.5t-91 -88.5l-64 53q92 125 157 160.5t173 35.5h590v-135h-383z" />
    <glyph glyph-name="uniE034" unicode="&#xe034;" horiz-adv-x="1108" 
d="M39 834l-39 57q106 86 193 86t125 -60.5t38 -197.5v-305q0 -324 228 -324q118 0 186 94.5t68 266.5q0 320 -125 454v53h192q84 -180 84 -436q0 -233 -123 -385.5t-325 -152.5q-189 0 -274 105t-85 319v286q0 119 -12 147.5t-43 28.5q-29 0 -88 -36z" />
    <glyph glyph-name="uniE035" unicode="&#xe035;" horiz-adv-x="987" 
d="M11 956h248q118 -259 245 -818q227 315 227 558q0 118 -36 209v51h195q11 -67 11 -134q0 -177 -82 -352.5t-300 -478.5h-133q-96 366 -172.5 590.5t-115.5 268.5t-87 53v53z" />
    <glyph glyph-name="uniE036" unicode="&#xe036;" horiz-adv-x="1538" 
d="M768 154q-83 -170 -281 -170q-182 0 -284.5 115.5t-102.5 320.5q0 328 351 557l55 -68q-213 -166 -213 -499q0 -175 56 -261t151 -86q87 0 134.5 69.5t47.5 195.5v348h174v-348q0 -128 48 -196.5t134 -68.5q100 0 154.5 89t54.5 258q0 174 -50.5 288.5t-164.5 210.5
l58 68q350 -235 350 -559q0 -208 -106.5 -321t-282.5 -113q-194 0 -283 170z" />
    <glyph glyph-name="uniE037" unicode="&#xe037;" horiz-adv-x="995" 
d="M306 -128q-67 -127 -118 -251h-198v48q48 53 177 259l256 411q-78 235 -126 349t-81 146t-76 32q-34 0 -89 -39l-41 58q109 88 203 88q99 0 151.5 -91t144.5 -440l139 276q83 165 114 238h197v-48q-49 -53 -176 -256l-222 -358q118 -377 173 -477.5t124 -100.5
q34 0 88 40l41 -59q-110 -89 -196 -89q-109 0 -162.5 94t-153.5 491z" />
    <glyph glyph-name="uniE038" unicode="&#xe038;" horiz-adv-x="1038" 
d="M1008 909q-304 -511 -473 -895q10 -105 10 -241q0 -67 -4 -117l-90 -57h-103v63q0 166 68 324q-36 364 -123 624t-187 260q-33 0 -92 -43l-41 58q117 92 209 92q142 0 225.5 -193.5t108.5 -580.5h12q212 512 279 755h201v-49z" />
    <glyph glyph-name="uniE039" unicode="&#xe039;" horiz-adv-x="819" 
d="M786 1332q-292 -306 -394 -496t-102 -394q0 -96 27.5 -153.5t75 -88t162.5 -56.5q135 -29 180 -75t45 -122q0 -106 -77 -195.5t-213 -181.5l-59 71q183 132 183 261q0 59 -27.5 79.5t-134.5 44.5q-210 44 -278.5 144.5t-68.5 250.5q0 190 111.5 384.5t372.5 439.5v10
h-427v126h624v-49z" />
    <glyph glyph-name="Faux_Cyrllic_caps" unicode="&#xe040;" horiz-adv-x="1341" 
d="M1158 -359q-8 104 -38.5 201t-69.5 127.5t-105 30.5h-598q-102 0 -148 -91.5t-60 -267.5h-102v451h98q161 199 262 520t101 571q0 68 -20 97t-80 36v49h819v-49q-69 -17 -93.5 -44t-24.5 -158v-1022h161v-451h-102zM912 1277h-281q-61 -768 -347 -1185h628v1185z" />
    <glyph glyph-name="uniE041" unicode="&#xe041;" horiz-adv-x="1223" 
d="M121 0v49q77 20 97.5 52.5t20.5 147.5v865q0 132 -26 159t-92 43v49h422v-49q-79 -20 -98.5 -55t-19.5 -147v-342q143 12 253 12q454 0 454 -379q0 -405 -501 -405h-510zM425 682v-588q73 -6 165 -6q180 0 259.5 74t79.5 232q0 296 -308 296q-130 0 -196 -8z" />
    <glyph glyph-name="uniE042" unicode="&#xe042;" horiz-adv-x="1152" 
d="M1042 1336v-277h-99q-24 87 -61 138.5t-86 73.5t-118 22q-103 0 -183.5 -68.5t-126.5 -206t-46 -332.5q0 -196 38 -334.5t112 -209t182 -70.5q82 0 134 23.5t87.5 74.5t67.5 150h99v-286q-94 -25 -192.5 -37.5t-216.5 -12.5q-254 0 -384 172t-130 513q0 214 67.5 375
t198.5 249t313 88q91 0 168 -9.5t176 -35.5z" />
    <glyph glyph-name="uniE043" unicode="&#xe043;" horiz-adv-x="1223" 
d="M798 772v342q0 112 -19.5 147t-98.5 55v49h422v-49q-66 -16 -92 -43t-26 -159v-865q0 -115 20 -147.5t97 -52.5v-49h-549q-461 0 -461 379q0 405 494 405q110 0 213 -12zM798 682q-66 8 -196 8q-308 0 -308 -300q0 -151 78.5 -226.5t260.5 -75.5q92 0 165 6v588z" />
    <glyph glyph-name="uniE044" unicode="&#xe044;" horiz-adv-x="1167" 
d="M1050 41q-210 -57 -415 -57q-516 0 -516 688q0 333 152.5 521t426.5 188q180 0 346 -49v-273h-95q-38 124 -98.5 179t-178.5 55q-150 0 -243.5 -134.5t-107.5 -390.5h548v-117h-551q2 -282 88.5 -430.5t248.5 -148.5q122 0 188 50t115 199h92v-280z" />
    <glyph glyph-name="uniE045" unicode="&#xe045;" horiz-adv-x="1094" 
d="M925 995q-31 159 -76 218.5t-136 59.5h-288v-512h298v-92h-298v-416q0 -106 27 -150t124 -54v-49h-455v49q73 17 95 47t22 153v420h-197v92h197v353q0 125 -23.5 155t-93.5 47v49h902v-370h-98z" />
    <glyph glyph-name="uniE046" unicode="&#xe046;" horiz-adv-x="1227" 
d="M121 0v49q77 20 97 52.5t20 147.5v865q0 125 -23.5 155t-93.5 47v49h923v-302h-99q-38 118 -77.5 166t-138.5 48h-304v-505q143 12 253 12q454 0 454 -379q0 -405 -501 -405h-510zM425 682v-588q73 -6 165 -6q182 0 260.5 75.5t78.5 230.5q0 296 -308 296q-130 0 -196 -8
z" />
    <glyph glyph-name="uniE047" unicode="&#xe047;" horiz-adv-x="1406" 
d="M1168 250q0 -58 3 -87t10 -46.5t17 -28.5t28.5 -20t57.5 -19v-49h-419v49q55 14 77 31t30.5 52t8.5 118v419h-556v-419q0 -67 4.5 -98t15 -49t31 -30t66.5 -24v-49h-421v49q62 16 83 35.5t27.5 55.5t6.5 110v865q0 69 -5 100.5t-16.5 49t-30.5 28t-65 23.5v49h421v-49
q-44 -11 -63.5 -22t-31 -27.5t-17 -49.5t-5.5 -102v-354h556v354q0 87 -8.5 119t-28.5 49t-79 33v49h419v-49q-56 -14 -78 -31.5t-30 -52.5t-8 -117v-865z" />
    <glyph glyph-name="uniE048" unicode="&#xe048;" horiz-adv-x="664" 
d="M426 250q0 -67 4.5 -98t15 -49t31 -30t66.5 -24v-49h-422v49q62 16 83 35.5t27.5 55.5t6.5 110v865q0 69 -5 100.5t-16.5 49t-30.5 28t-65 23.5v49h422v-49q-44 -11 -63.5 -22t-31 -27.5t-17 -49.5t-5.5 -102v-865z" />
    <glyph glyph-name="uniE049" unicode="&#xe049;" horiz-adv-x="664" 
d="M426 250q0 -67 4.5 -98t15 -49t31 -30t66.5 -24v-49h-422v49q62 16 83 35.5t27.5 55.5t6.5 110v865q0 69 -5 100.5t-16.5 49t-30.5 28t-65 23.5v49h422v-49q-44 -11 -63.5 -22t-31 -27.5t-17 -49.5t-5.5 -102v-865zM600 1690v-176h-167v176h167zM231 1690v-176h-167v176
h167z" />
    <glyph glyph-name="uniE04A" unicode="&#xe04a;" horiz-adv-x="1331" 
d="M947 0v49q-41 101 -69 177l-75 202q-38 102 -69 147t-72.5 66t-112.5 21h-122v-413q0 -120 21.5 -151t94.5 -49v-49h-422v49q68 16 93 43t25 157v865q0 132 -26 159t-92 43v49h422v-49q-67 -17 -91.5 -44.5t-24.5 -157.5v-366h120q81 0 127.5 48.5t118.5 248.5
q66 189 131.5 262.5t213.5 73.5q47 0 124 -22v-230h-99q-12 99 -87 99q-46 0 -79 -43t-91 -190q-46 -120 -80 -176.5t-93 -93.5v-8q164 -50 253 -249l90 -203q50 -113 91 -159.5t123 -56.5v-49h-343z" />
    <glyph glyph-name="uniE04B" unicode="&#xe04b;" horiz-adv-x="1094" 
d="M925 370h98v-370h-902v49q70 17 93.5 47t23.5 155v865q0 123 -22 153t-95 47v49h455v-49q-97 -10 -124 -54t-27 -150v-1020h288q91 0 136 59.5t76 218.5z" />
    <glyph glyph-name="uniE04C" unicode="&#xe04c;" horiz-adv-x="1670" 
d="M1549 1316q-44 -11 -63.5 -22t-31 -27.5t-17 -49.5t-5.5 -102v-865q0 -67 4.5 -98t15 -49t31 -30t66.5 -24v-49h-417v49q57 14 79 32t30 53t8 116v383q0 151 4.5 305.5t10.5 211.5h-17l-396 -991h-115l-368 1007h-17q5 -61 9.5 -221t4.5 -329v-366q0 -67 4.5 -98t15 -49
t31 -30t66.5 -24v-49h-365v49q62 16 83 35.5t27.5 55.5t6.5 110v865q0 69 -5 100.5t-16.5 49t-30.5 28t-65 23.5v49h357l351 -973l386 973h338v-49z" />
    <glyph glyph-name="uniE04D" unicode="&#xe04d;" horiz-adv-x="1417" 
d="M876 0v49q76 20 96 52.5t20 147.5v430q0 211 4 271h-4l-569 -701q0 -120 21.5 -151t94.5 -49v-49h-418v49q77 20 97.5 52.5t20.5 147.5v865q0 132 -26 159t-92 43v49h418v-49q-67 -17 -91.5 -44.5t-24.5 -157.5v-440q0 -148 -6 -249h6l569 701q0 106 -20.5 138t-95.5 52
v49h416v-49q-67 -17 -91.5 -44.5t-24.5 -157.5v-865q0 -120 21.5 -151t94.5 -49v-49h-416z" />
    <glyph glyph-name="uniE04E" unicode="&#xe04e;" horiz-adv-x="1338" 
d="M654 -16q-120 0 -218.5 39.5t-169 123t-109 213.5t-38.5 311q0 223 68 383t194.5 243.5t293.5 83.5q178 0 299.5 -78.5t183 -231t61.5 -371.5q0 -234 -70 -395t-197.5 -241t-297.5 -80zM325 699q0 -307 89.5 -467t261.5 -160q109 0 185 69.5t114 203.5t38 313
q0 218 -44.5 361.5t-121.5 208.5t-179 65q-90 0 -154.5 -42t-107 -119.5t-62 -187.5t-19.5 -245z" />
    <glyph glyph-name="uniE04F" unicode="&#xe04f;" horiz-adv-x="1163" 
d="M425 253q0 -59 6.5 -94t20 -55.5t36.5 -32t72 -22.5v-49h-439v49q62 16 83 35.5t27.5 55.5t6.5 110v865q0 69 -5 100.5t-16.5 49t-30.5 28t-65 23.5v49h496q234 0 348.5 -89.5t114.5 -272.5q0 -104 -36 -187t-102 -136t-156 -76t-189 -23q-111 0 -172 4v-332zM425 668
h116q113 0 186.5 29.5t112.5 98t39 181.5q0 86 -23 143.5t-63.5 92.5t-96.5 49.5t-122 14.5q-99 0 -149 -4v-605z" />
    <glyph glyph-name="uniE050" unicode="&#xe050;" horiz-adv-x="1595" 
d="M887 224v-4q0 -93 21 -123t100 -48v-49h-420v49q69 15 93 41t24 130v4q-304 8 -452.5 125.5t-148.5 357.5q0 231 153.5 361.5t447.5 144.5q0 85 -21.5 114t-95.5 45v49h416v-49q-70 -14 -93.5 -40.5t-23.5 -116.5q601 -15 601 -474q0 -237 -152.5 -369.5t-448.5 -147.5z
M887 1130v-818q404 16 404 411q0 204 -96 302.5t-308 104.5zM705 1127q-405 -16 -405 -408q0 -204 95.5 -304.5t309.5 -104.5v817z" />
    <glyph glyph-name="uniE051" unicode="&#xe051;" horiz-adv-x="1292" 
d="M748 0v49q75 20 95 52.5t20 147.5v365h-103q-97 0 -155.5 -42.5t-116.5 -189.5q-79 -219 -133 -333v-49h-341v49q74 8 119.5 53.5t98.5 162.5l48 103q87 186 230 244v11q-327 89 -327 358q0 204 141 294t424 90h419v-49q-76 -19 -96.5 -53.5t-20.5 -148.5v-865
q0 -127 24.5 -155t92.5 -45v-49h-419zM863 1271q-70 6 -140 6q-337 0 -337 -290q0 -144 72 -216.5t318 -72.5h87v573z" />
    <glyph glyph-name="uniE052" unicode="&#xe052;" horiz-adv-x="1016" 
d="M212 311q20 -88 54 -139t88 -75.5t139 -24.5q117 0 179.5 61t62.5 178q0 75 -26 126t-85 96t-180 105q-117 58 -185 113.5t-101.5 120.5t-33.5 142q0 112 52.5 194.5t154 127.5t232.5 45q76 0 148.5 -8t181.5 -36v-270h-99q-23 88 -58 137t-82 68.5t-122 19.5
q-65 0 -116.5 -24t-81.5 -72.5t-30 -115.5q0 -71 25.5 -120t79.5 -91t160 -94q128 -64 198.5 -119t110 -125.5t39.5 -164.5q0 -105 -33 -177.5t-91.5 -118t-140 -66t-178.5 -20.5q-157 0 -362 53v274h100z" />
    <glyph glyph-name="uniE053" unicode="&#xe053;" horiz-adv-x="1214" 
d="M66 1365h1082v-348h-98q-22 86 -43.5 136t-45.5 76t-51.5 37t-82.5 11h-127v-1024q0 -59 6.5 -94t20 -55.5t36.5 -32t72 -22.5v-49h-457v49q30 7 53 15t37.5 19.5t24 29.5t15 49t5.5 91v1024h-126q-47 0 -77.5 -9t-56.5 -37.5t-47.5 -81t-40.5 -132.5h-99v348z" />
    <glyph glyph-name="uniE054" unicode="&#xe054;" horiz-adv-x="1376" 
d="M1192 -359q-9 108 -40 204t-69 125.5t-103 29.5h-857v49q75 20 95 52.5t20 147.5v865q0 121 -21.5 153t-93.5 49v49h420v-49q-67 -17 -91.5 -44.5t-24.5 -157.5v-1022h519v1022q0 125 -23.5 155t-93.5 47v49h420v-49q-65 -16 -90 -43t-25 -159v-1022h160v-451h-102z" />
    <glyph glyph-name="uniE055" unicode="&#xe055;" horiz-adv-x="1366" 
d="M731 0l45 -298v-61h-190v61l45 298h-508v49q64 16 90 41.5t26 158.5v865q0 119 -20.5 151.5t-95.5 50.5v49h410v-49q-73 -20 -89.5 -51t-16.5 -151v-1022h510v1022q0 124 -23 154.5t-95 47.5v49h422v-49q-77 -20 -97.5 -53t-20.5 -149v-865q0 -114 20.5 -147t97.5 -53
v-49h-510z" />
    <glyph glyph-name="uniE056" unicode="&#xe056;" horiz-adv-x="1898" 
d="M1816 -359h-103q-10 104 -38.5 197t-64.5 127.5t-108 34.5h-1381v49q73 18 94.5 48.5t21.5 151.5v865q0 119 -20.5 151.5t-95.5 50.5v49h416v-49q-67 -17 -91.5 -44.5t-24.5 -157.5v-1022h432v1022q0 117 -19 149.5t-95 52.5v49h415v-49q-76 -21 -96.5 -53.5
t-20.5 -148.5v-1022h436v1022q0 125 -23.5 155t-93.5 47v49h417v-49q-78 -20 -98.5 -53t-20.5 -149v-1022h162v-451z" />
    <glyph glyph-name="uniE057" unicode="&#xe057;" horiz-adv-x="1890" 
d="M1508 0v49q-58 145 -95 248q-64 179 -91.5 240t-72.5 93t-122 32h-94v-413q0 -127 24.5 -155t92.5 -45v-49h-415v49q70 17 93 46t23 154v413h-93q-75 0 -120 -31.5t-75 -95t-92 -238.5q-74 -203 -95 -248v-49h-339v49q85 13 127.5 63t86.5 153l88 201q90 205 241 251v8
q-60 37 -90.5 87.5t-76.5 182.5q-49 137 -81 185t-77 48q-70 0 -86 -85h-97v216q73 22 124 22q146 0 207.5 -74.5t122.5 -261.5q69 -209 115.5 -253t122.5 -44h87v366q0 119 -20.5 151.5t-95.5 50.5v49h415v-49q-76 -21 -96.5 -53.5t-20.5 -148.5v-366h88q77 0 123 45.5
t114 251.5q65 193 126.5 264.5t206.5 71.5q50 0 123 -22v-216h-99q-16 85 -86 85q-50 0 -82.5 -56t-73.5 -177q-48 -138 -81 -187t-87 -83v-8q155 -47 240 -251l88 -201q52 -118 93.5 -160.5t120.5 -55.5v-49h-339z" />
    <glyph glyph-name="uniE058" unicode="&#xe058;" horiz-adv-x="1282" 
d="M735 0v49q76 20 96 52.5t20 147.5v352q-165 -39 -312 -39q-186 0 -282.5 81t-96.5 281v190q0 118 -18 149t-95 53v49h417v-49q-76 -21 -96.5 -53.5t-20.5 -148.5v-188q0 -161 60.5 -215.5t180.5 -54.5q138 0 263 35v421q0 126 -23 156.5t-93 47.5v49h421v-49
q-76 -21 -96.5 -53.5t-20.5 -148.5v-865q0 -127 24.5 -155t92.5 -45v-49h-421z" />
    <glyph glyph-name="uniE059" unicode="&#xe059;" horiz-adv-x="1016" 
d="M817 311h100v-274q-205 -53 -362 -53q-97 0 -178.5 20.5t-140 66t-91.5 118t-33 177.5q0 94 39.5 164.5t110 125.5t198.5 119q106 52 160 94t79.5 91t25.5 120q0 67 -30 115.5t-81.5 72.5t-116.5 24q-75 0 -122 -19.5t-82 -68.5t-58 -137h-99v270q109 28 181.5 36
t148.5 8q131 0 232.5 -45t154 -127.5t52.5 -194.5q0 -77 -33.5 -142t-101.5 -120.5t-185 -113.5q-121 -60 -180 -105t-85 -96t-26 -126q0 -117 62.5 -178t179.5 -61q85 0 139 24.5t88 75.5t54 139z" />
    <glyph glyph-name="Faux_Cyrllic_manus" unicode="&#xe060;" horiz-adv-x="1143" 
d="M978 -323q-22 140 -44.5 206t-56.5 91.5t-117 25.5h-427q-85 0 -131.5 -61.5t-72.5 -263.5h-92v411h117q106 149 166 341.5t60 353.5q0 113 -90 126v49h741v-49q-66 -13 -89 -47.5t-23 -123.5v-650h153v-409h-94zM748 875h-240q-43 -511 -226 -789h466v789z" />
    <glyph glyph-name="uniE061" unicode="&#xe061;" horiz-adv-x="1053" 
d="M106 0v49q65 18 86.5 50.5t21.5 122.5v514q0 91 -22.5 124.5t-85.5 46.5v49h392v-49q-68 -13 -90 -49t-22 -122v-185q114 12 222 12q370 0 370 -277q0 -140 -93 -213t-330 -73h-449zM386 472v-388q56 -4 132 -4q164 0 219.5 50.5t55.5 155.5q0 198 -244 198
q-82 0 -163 -12z" />
    <glyph glyph-name="uniE062" unicode="&#xe062;" horiz-adv-x="903" 
d="M842 933v-209h-127q-17 65 -42 102.5t-58 52.5t-82 15q-70 0 -124 -45t-85.5 -137t-31.5 -225q0 -85 12 -155.5t41 -120.5t77 -78t119 -28q69 0 128.5 27t123.5 95l57 -66q-51 -56 -90 -86.5t-83.5 -51t-88 -30t-94.5 -9.5q-189 0 -289 125.5t-100 362.5q0 148 56 262.5
t157 176.5t233 62q82 0 151.5 -9.5t139.5 -30.5z" />
    <glyph glyph-name="uniE063" unicode="&#xe063;" horiz-adv-x="1053" 
d="M978 0h-449q-237 0 -330 73t-93 213q0 277 370 277q108 0 222 -12v185q0 86 -22 122t-90 49v49h392v-49q-63 -13 -85.5 -46.5t-22.5 -124.5v-514q0 -90 21.5 -122.5t86.5 -50.5v-49zM698 472q-81 12 -163 12q-244 0 -244 -198q0 -105 55.5 -155.5t219.5 -50.5q76 0 132 4
v388z" />
    <glyph glyph-name="uniE064" unicode="&#xe064;" horiz-adv-x="963" 
d="M865 39q-168 -55 -367 -55q-189 0 -291.5 123t-102.5 352q0 239 116.5 376t338.5 137q130 0 300 -43v-194h-97q-29 83 -78 120t-143 37q-234 0 -251 -346h429v-95h-431q0 -388 247 -388q163 0 235 172h95v-196z" />
    <glyph glyph-name="uniE065" unicode="&#xe065;" horiz-adv-x="930" 
d="M777 687q-31 102 -69.5 145t-116.5 43h-190v-330h278v-92h-278v-200q0 -119 24.5 -154t101.5 -50v-49h-406v49q65 18 86.5 50.5t21.5 122.5v231h-209v92h209v191q0 91 -22.5 124.5t-85.5 46.5v49h749v-269h-93z" />
    <glyph glyph-name="uniE066" unicode="&#xe066;" horiz-adv-x="1109" 
d="M104 0v49q66 15 89 47.5t23 125.5v603q0 94 -23.5 126.5t-88.5 46.5v49h837v-244h-94q-36 101 -73 131.5t-108 30.5h-273v-380q99 14 238 14q393 0 393 -299q0 -144 -98.5 -222t-347.5 -78h-474zM393 86q36 -4 162 -4q151 0 214.5 51.5t63.5 165.5q0 217 -263 217
q-83 0 -177 -11v-419z" />
    <glyph glyph-name="uniE067" unicode="&#xe067;" horiz-adv-x="1206" 
d="M711 0v49q61 16 83.5 46t22.5 127v233h-431v-233q0 -91 22 -123.5t87 -49.5v-49h-389v49q65 18 86.5 50.5t21.5 122.5v514q0 91 -22.5 124.5t-85.5 46.5v49h387v-49q-61 -13 -84 -45.5t-23 -125.5v-192h431v192q0 99 -24.5 129t-81.5 42v49h386v-49q-64 -15 -85.5 -48.5
t-21.5 -122.5v-514q0 -91 22 -123.5t85 -49.5v-49h-386z" />
    <glyph glyph-name="uniE068" unicode="&#xe068;" horiz-adv-x="582" 
d="M205 247v462q0 70 -7 103q-6 33 -17.5 49t-28 25t-55.5 21v49h392v-49q-51 -13 -74 -30q-22 -18 -30 -51.5t-8 -119.5v-456q0 -86 8 -119.5t30.5 -51t73.5 -30.5v-49h-392v49q39 12 55.5 21t28 25t18 49t6.5 103z" />
    <glyph glyph-name="uniE069" unicode="&#xe069;" horiz-adv-x="545" 
d="M373 1348v-194h-183v194h183zM368 19q0 -140 -29 -224t-100.5 -142.5t-199.5 -95.5l-34 88q62 24 94.5 45.5t53.5 50t32 76.5t11 123v743q0 78 -3 112t-13 53.5t-31 31.5t-76 23v53l234 9h61v-946z" />
    <glyph glyph-name="uniE06A" unicode="&#xe06a;" horiz-adv-x="1106" 
d="M766 0v49l-109 262q-39 94 -85 119t-113 25h-72v-205q0 -128 22 -155t87 -46v-49h-385v49q68 19 86 54.5t18 146.5v487q0 88 -21.5 122.5t-87.5 47.5v49h390v-49q-61 -13 -85 -46t-24 -124v-207h72q65 0 104.5 39.5t89.5 165.5q51 126 107 183t186 57q43 0 98 -14v-195
h-90q-13 63 -67 63q-42 0 -68 -23t-63 -106q-70 -158 -138 -190v-6q144 -36 213 -170l76 -148q36 -70 68.5 -98.5t93.5 -38.5v-49h-303z" />
    <glyph glyph-name="uniE06B" unicode="&#xe06b;" horiz-adv-x="915" 
d="M762 277h93v-277h-749v49q63 13 85.5 46.5t22.5 124.5v514q0 90 -21.5 122.5t-86.5 50.5v49h406v-49q-77 -15 -101.5 -50t-24.5 -154v-622h190q78 0 116.5 45t69.5 151z" />
    <glyph glyph-name="uniE06C" unicode="&#xe06c;" horiz-adv-x="1640" 
d="M106 956h1421v-49q-67 -19 -86.5 -52.5t-19.5 -120.5v-514q0 -89 21.5 -123.5t84.5 -47.5v-49h-375v49q61 15 80 49t19 122v650h-351v-650q0 -89 21 -123t80 -48v-49h-368v49q56 13 78 44.5t22 126.5v650h-351v-650q0 -87 20 -122.5t80 -48.5v-49h-376v49q60 13 84 45.5
t24 125.5v514q0 87 -19.5 120.5t-88.5 52.5v49z" />
    <glyph glyph-name="uniE06D" unicode="&#xe06d;" horiz-adv-x="1161" 
d="M666 0v49q61 16 83.5 46t22.5 127v650h-386v-650q0 -101 25 -129.5t84 -43.5v-49h-389v49q68 18 88 52t20 121v514q0 91 -22.5 124.5t-85.5 46.5v49h946v-49q-65 -14 -86 -48t-21 -123v-514q0 -86 19.5 -120t87.5 -53v-49h-386z" />
    <glyph glyph-name="uniE06E" unicode="&#xe06e;" horiz-adv-x="1087" 
d="M532 -16q-208 0 -317.5 122.5t-109.5 362.5q0 165 57.5 279t157.5 169.5t228 55.5q214 0 324 -124.5t110 -357.5q0 -166 -55 -280t-156 -170.5t-239 -56.5zM294 490q0 -206 65.5 -316.5t187.5 -110.5q67 0 114 32.5t76.5 87.5t42.5 127.5t13 151.5q0 147 -32.5 244
t-88.5 142.5t-128 45.5q-121 0 -185.5 -105t-64.5 -299z" />
    <glyph glyph-name="uniE06F" unicode="&#xe06f;" horiz-adv-x="1139" 
d="M368 30v-211q0 -65 4.5 -97t16 -50.5t33 -30.5t69.5 -22v-49h-408v49q36 10 58.5 20.5t34.5 31t16 55.5t4 93v858q0 72 -2 102.5t-8 50.5t-17.5 33t-31 22t-64.5 18v53l235 9h61l-13 -163l15 -4q62 63 98 91.5t74.5 47.5t74 27t75.5 8q165 0 253.5 -123.5t88.5 -361.5
q0 -165 -50 -277.5t-145.5 -169t-227.5 -56.5q-74 0 -134 12.5t-110 33.5zM368 360q0 -96 12 -148t42.5 -84.5t72 -48.5t109.5 -16q121 0 182 100.5t61 296.5q0 392 -229 392q-56 0 -96.5 -17.5t-80.5 -56.5t-56.5 -75.5t-16.5 -78.5v-264z" />
    <glyph glyph-name="uniE070" unicode="&#xe070;" horiz-adv-x="1053" 
d="M978 956v-49q-65 -18 -86.5 -50.5t-21.5 -122.5v-514q0 -91 22.5 -124.5t85.5 -46.5v-49h-392v49q68 13 90 49t22 122v185q-114 -12 -222 -12q-370 0 -370 277q0 140 93 213t330 73h449zM698 484v388q-56 4 -132 4q-164 0 -219.5 -50.5t-55.5 -155.5q0 -198 244 -198
q82 0 163 12z" />
    <glyph glyph-name="uniE071" unicode="&#xe071;" horiz-adv-x="1087" 
d="M598 0v49q58 17 80 48t22 152v171h-71q-94 0 -144.5 -32.5t-77.5 -102.5l-93 -236v-49h-291v49q69 11 100 43.5t62 92.5l41 75q65 119 160 162v8q-259 52 -259 261q0 133 104 199t351 66h394v-49q-62 -13 -83.5 -47t-21.5 -124v-487q0 -115 17.5 -146.5t89.5 -53.5v-49
h-380zM700 875q-69 4 -139 4q-251 0 -251 -196q0 -82 47.5 -134.5t222.5 -52.5h120v379z" />
    <glyph glyph-name="uniE072" unicode="&#xe072;" horiz-adv-x="880" 
d="M767 737h-96q-22 60 -52 94.5t-68 48.5t-93 14q-80 0 -127.5 -37.5t-47.5 -102.5q0 -46 19 -76t59 -56t141 -69q102 -44 157.5 -81t87 -86t31.5 -117q0 -79 -27 -133t-76 -88t-116.5 -49t-147.5 -15q-84 0 -163 12.5t-154 32.5v209h98q27 -92 80 -133.5t146 -41.5
q36 0 70.5 7.5t61.5 25t43 47.5t16 75q0 51 -20 83t-62 58.5t-148 71.5q-91 38 -146 74t-86.5 85t-31.5 116q0 82 44.5 142.5t128.5 92.5t197 32q66 0 127.5 -6.5t154.5 -25.5v-204z" />
    <glyph glyph-name="uniE073" unicode="&#xe073;" horiz-adv-x="1047" 
d="M892 679q-30 102 -68 149t-119 47h-99v-626q0 -118 25.5 -152t103.5 -48v-49h-429v49q82 15 105.5 52.5t23.5 147.5v626h-98q-84 0 -122 -52.5t-63 -143.5h-95v277h929v-277h-94z" />
    <glyph glyph-name="uniE074" unicode="&#xe074;" horiz-adv-x="1167" 
d="M1003 -323q-33 194 -58 242t-55 64.5t-104 16.5h-680v49q69 19 88.5 52.5t19.5 120.5v514q0 93 -24 125.5t-84 45.5v49h387v-49q-61 -13 -84 -45.5t-23 -125.5v-650h386v650q0 94 -22 125.5t-84 45.5v49h386v-49q-65 -14 -86 -48t-21 -123v-650h152v-409h-94z" />
    <glyph glyph-name="uniE075" unicode="&#xe075;" horiz-adv-x="1161" 
d="M634 0l32 -259v-64h-174v64l32 259h-418v49q69 19 88.5 52.5t19.5 120.5v514q0 91 -22.5 124.5t-85.5 46.5v49h387v-49q-65 -14 -86 -48t-21 -123v-652h386v652q0 94 -22 125.5t-84 45.5v49h386v-49q-65 -14 -86 -48t-21 -123v-514q0 -95 22 -125.5t85 -47.5v-49h-418z
" />
    <glyph glyph-name="uniE076" unicode="&#xe076;" horiz-adv-x="1640" 
d="M1479 -323q-23 152 -48.5 216t-57.5 85.5t-109 21.5h-1158v49q69 19 88.5 52.5t19.5 120.5v514q0 93 -24 125.5t-84 45.5v49h376v-49q-60 -13 -80 -48.5t-20 -122.5v-650h351v650q0 95 -22 126.5t-78 44.5v49h368v-49q-59 -14 -80 -48t-21 -123v-650h351v650
q0 88 -19 122t-80 49v49h375v-49q-63 -13 -84.5 -47.5t-21.5 -123.5v-650h153v-409h-95z" />
    <glyph glyph-name="uniE077" unicode="&#xe077;" horiz-adv-x="990" 
d="M520 577l130 165q21 27 34 52.5t13 52.5q0 23 -17 38t-53 22v49h327v-49q-38 -11 -77.5 -43t-96.5 -103l-207 -254l228 -307q49 -66 88 -101t78 -50v-49h-402v49q83 10 83 62q0 21 -7 40t-26 44l-145 202l-154 -200q-17 -22 -26.5 -40.5t-9.5 -41.5q0 -27 18.5 -44.5
t58.5 -21.5v-49h-334v49q33 12 59.5 30t54 46.5t72.5 83.5l208 258l-213 292q-44 60 -70 87t-48 41t-44 20v49h392v-49q-79 -12 -79 -62q0 -23 10.5 -46t32.5 -51z" />
    <glyph glyph-name="uniE078" unicode="&#xe078;" horiz-adv-x="1087" 
d="M588 0v49q65 15 87.5 48t22.5 125v204q-135 -27 -259 -27q-153 0 -224.5 67t-71.5 211v59q0 91 -21 123t-81 48v49h376v-49q-61 -13 -84 -44t-23 -123v-71q0 -96 43.5 -140t154.5 -44q86 0 190 26v229q0 100 -25 128t-81 39v49h386v-49q-62 -13 -85.5 -47t-23.5 -124
v-514q0 -94 23.5 -125t85.5 -48v-49h-390z" />
    <glyph glyph-name="uniE079" unicode="&#xe079;" horiz-adv-x="880" 
d="M105 737v204q93 19 154.5 25.5t127.5 6.5q113 0 197 -32t128.5 -92.5t44.5 -142.5q0 -67 -31.5 -116t-86.5 -85t-146 -74q-106 -45 -148 -71.5t-62 -58.5t-20 -83q0 -45 16 -75t43 -47.5t61.5 -25t70.5 -7.5q93 0 146 41.5t80 133.5h98v-209q-75 -20 -154 -32.5
t-163 -12.5q-80 0 -147.5 15t-116.5 49t-76 88t-27 133q0 68 31.5 117t87 86t157.5 81q101 43 141 69t59 56t19 76q0 65 -47.5 102.5t-127.5 37.5q-55 0 -93 -14t-68 -48.5t-52 -94.5h-96z" />
    <glyph glyph-name="Faux_Hiragana_sans" unicode="&#xe080;" 
d="M1668 139l-86 -138q-152 133 -393 254q-53 -330 -381 -330q-154 0 -254.5 83t-100.5 211q0 108 80 196.5t283 88.5q121 0 230 -32q4 108 4 215q0 142 -8 324q-410 0 -674 -43l-17 156q316 28 681 39q-9 183 -35 397l161 18q29 -205 35 -407q257 -8 466 -17l-6 -151
q-210 11 -449 14q5 -177 5 -321q0 -146 -5 -277q247 -114 464 -280zM1032 315q-131 36 -226 36q-107 0 -150 -42t-43 -93q0 -56 48 -97t150 -41q218 0 221 237z" />
    <glyph glyph-name="uniE081" unicode="&#xe081;" 
d="M788 880q318 255 612 255q231 0 372 -153t141 -370q0 -213 -182.5 -384.5t-542.5 -263.5l-78 152q198 44 343 120.5t222.5 167t77.5 214.5q0 162 -104.5 259.5t-253.5 97.5q-154 0 -331 -93.5t-280 -202.5q-2 -394 27 -848l-162 -8q-24 531 -24 707q-197 -187 -355 -391
l-110 120q270 314 465 529q0 63 6 258q-166 -50 -377 -94l-41 151q175 38 422 103q23 298 41 450l162 -12l-37 -391q30 0 57 12l80 -111q-92 -104 -147 -174q-3 -24 -3 -100z" />
    <glyph glyph-name="uniE082" unicode="&#xe082;" 
d="M1663 171q-520 -202 -842 -202q-221 0 -355 122t-134 326q0 247 209 397.5t649 162.5l62 -163q-752 -23 -752 -387q0 -113 73.5 -200t262.5 -87q293 0 764 188z" />
    <glyph glyph-name="uniE083" unicode="&#xe083;" 
d="M1587 -64q-298 -43 -520 -43q-399 0 -561 102t-162 292q0 157 110 273t304 213q-47 480 -47 848l157 6q11 -521 43 -778q381 147 615 187l45 -152q-397 -82 -668.5 -213.5t-338 -214t-66.5 -193.5q0 -100 139 -157.5t397 -57.5q204 0 533 50z" />
    <glyph glyph-name="uniE084" unicode="&#xe084;" 
d="M1903 888l-449 -20v-269q0 -163 -88 -236t-224 -73q-65 0 -204 8l-35 162q92 -8 169 -8q133 0 175.5 33t42.5 102v270l-602 -26v-645q0 -75 67 -103t394 -28q239 0 473 18l-6 -164q-412 -15 -509 -15q-397 0 -491 75t-94 213v645l-397 -21l-12 154l409 18v455h166v-447
l602 25v532h164v-520l436 17z" />
    <glyph glyph-name="uniE085" unicode="&#xe085;" 
d="M1848 1281q-368 -233 -692 -340q0 -265 -6 -479q305 6 612 -29l-10 -151q-269 31 -487 31q-61 0 -119 -3q-6 -243 -19 -497l-157 6q32 586 26 1079q-130 -25 -240 -25q-221 0 -325.5 98t-104.5 228q0 134 112 227t287 93q179 0 299.5 -97t129.5 -315q315 114 600 311z
M990 1058q16 306 -264 306q-236 0 -236 -167q0 -170 269 -170q114 0 231 31z" />
    <glyph glyph-name="uniE086" unicode="&#xe086;" 
d="M1905 1132l-678 -33v-154q0 -116 -19 -217q40 -109 40 -236q0 -230 -140.5 -420t-357.5 -294l-121 121q174 75 297.5 207t148.5 278q-103 -78 -229 -78q-130 0 -220 93.5t-90 223.5q0 125 90 222.5t236 97.5q112 0 191 -59q8 47 8 113v94l-889 -35l-16 152l905 36v420
h166v-413l669 30zM1044 628q0 68 -56 116t-118 48q-63 0 -117.5 -47t-54.5 -122q0 -68 46 -115.5t116 -47.5q72 0 128 50.5t56 117.5z" />
    <glyph glyph-name="uniE087" unicode="&#xe087;" 
d="M1892 788q-51 -399 -205 -628t-345 -229q-90 0 -165 50.5t-107.5 161t-104.5 415.5q-11 46 -79 46q-92 0 -246.5 -110.5t-334.5 -565.5l-143 75q390 867 803 1586l149 -72q-381 -665 -463 -844q139 81 255 81q194 0 241.5 -242.5t84 -330.5t109.5 -88q132 0 246.5 216
t155.5 542z" />
    <glyph glyph-name="uniE088" unicode="&#xe088;" 
d="M1346 1494l-19 -159q-123 -8 -251 -8q-264 0 -529 32l18 164q302 -36 554 -36q114 0 227 7zM1870 -27q-190 -46 -400 -46q-73 0 -141.5 6t-110.5 43.5t-52 71.5t-20.5 143.5t-10.5 213.5q0 43 -58 43q-124 0 -277.5 -121.5t-396.5 -452.5l-139 99q471 593 871 979
q-394 -78 -738 -105l-43 162q584 48 1008 154l84 -134q-235 -213 -459 -446q92 25 146 25q153 0 161 -152q10 -332 38.5 -348.5t131.5 -16.5q191 0 387 46z" />
    <glyph glyph-name="uniE089" unicode="&#xe089;" 
d="M1468 1470l-47 -152q-472 50 -780 148l61 145q349 -102 766 -141zM422 964q450 141 740 141q228 0 333 -131.5t105 -308.5q0 -275 -202 -492t-581 -338l-96 138q339 82 532.5 282.5t193.5 401.5q0 116 -69 205.5t-213 89.5q-248 0 -688 -136z" />
    <glyph glyph-name="uniE08A" unicode="&#xe08a;" 
d="M1202 1115q-230 -47 -430 -69q-165 -766 -403 -1186l-148 70q225 380 381 1093q-213 -17 -377 -20l-12 155q238 8 422 29q50 252 74 438l153 -30q-16 -154 -59 -387q113 5 381 63zM1782 923l-2 -156q-486 -23 -768 -135l-43 152q323 119 813 139zM1862 -62
q-155 -19 -292 -19q-443 0 -716 193l86 131q247 -168 640 -168q126 0 265 19z" />
    <glyph glyph-name="uniE08B" unicode="&#xe08b;" 
d="M1745 374q-392 -438 -798 -438q-207 0 -330 116t-123 300v1226h165v-1179q0 -146 76 -223.5t211 -77.5q158 0 337 98.5t353 308.5z" />
    <glyph glyph-name="uniE08C" unicode="&#xe08c;" 
d="M1207 1169q301 -10 483.5 -186.5t182.5 -440.5q0 -258 -200 -438.5t-419 -249.5l-92 135q255 78 406 223.5t151 331.5q0 194 -150 337t-393 140q-106 -456 -227 -708q39 -70 112 -168l-118 -92q-56 66 -88 116q-182 -225 -346 -225q-115 0 -200.5 92t-85.5 283
q0 329 298 588q-58 203 -111 487l160 39q27 -211 86 -424q191 110 393 152q54 230 84 446l156 -21q-37 -232 -82 -417zM1010 997q-177 -49 -307 -146q63 -196 150 -368q97 254 157 514zM762 315q-135 253 -192 430q-102 -111 -149 -240.5t-47 -217.5q0 -85 43 -135t94 -50
q55 0 129 65t122 148z" />
    <glyph glyph-name="uniE08D" unicode="&#xe08d;" 
d="M1991 315q-182 -354 -424 -354q-87 0 -151.5 47t-89.5 114t-25 216q0 181 13 348l20 266q0 32 -23.5 55t-55.5 23q-47 0 -187 -79.5t-347 -277.5q-2 -148 -2 -301q0 -261 6 -547l-158 -6l-4 694q-238 -248 -383 -432l-102 117q135 172 489 537q0 85 6 280
q-151 -49 -389 -104l-41 147q261 63 437 117q6 220 34 457l162 -13q-24 -209 -33 -381l99 -120l-111 -117q-6 -52 -2 -111q346 303 542 303q99 0 163.5 -68t64.5 -168q0 -16 -2 -32q-32 -280 -32 -540q0 -151 6.5 -184.5t36 -56t67.5 -22.5q60 0 140 77t155 226z" />
    <glyph glyph-name="uniE08E" unicode="&#xe08e;" 
d="M1106 1191q-58 -439 -161 -722t-181 -358t-174 -75q-153 0 -262 145.5t-109 393.5q0 371 262 608t645 237q343 0 538.5 -203.5t195.5 -494.5q0 -512 -617 -798l-125 126q283 117 434 290.5t151 382.5q0 228 -150.5 380.5t-418.5 152.5q-76 0 -155 -14zM940 1236
q-250 -49 -405.5 -232.5t-155.5 -431.5q0 -167 68 -270.5t128 -103.5q105 0 209 285t156 753z" />
    <glyph glyph-name="uniE08F" unicode="&#xe08f;" 
d="M1198 1214q121 22 239 22q231 0 331 -115.5t100 -271.5q0 -171 -104.5 -294.5t-290.5 -123.5q-106 0 -237 41.5t-226 108.5l59 147q237 -135 395 -135q110 0 175 73.5t65 179.5q0 235 -265 235q-242 0 -704 -174q108 -432 324 -1006l-150 -63q-169 444 -329 1007
q-167 -65 -416 -180l-66 139q192 92 439 195q-48 196 -105 481l160 41q45 -249 102 -463q172 67 340 113q-3 220 6 450h164q-8 -256 -6 -407z" />
    <glyph glyph-name="uniE090" unicode="&#xe090;" 
d="M1343 1318q278 -13 439 -169.5t161 -408.5q0 -245 -162 -405t-383 -160q-44 0 -88 7q-101 -253 -293 -408l-133 96q188 160 266 353q-257 108 -411 401l124 86q125 -233 326 -336q20 116 20 310q0 178 -18 464q-102 -6 -197.5 -56.5t-177 -132.5t-147 -182.5t-124 -233
t-58.5 -173.5q0 -107 57 -299l-156 -35q-75 267 -75 606q0 381 92 797l153 -33q-77 -356 -84 -676q115 238 305.5 395.5t399.5 178.5q-2 76 -23 369h160q19 -169 27 -355zM1347 331q27 -3 53 -3q170 0 276 109.5t106 296.5q0 398 -429 424q18 -275 18 -463q0 -224 -24 -364z
" />
    <glyph glyph-name="uniE091" unicode="&#xe091;" 
d="M641 823q85 -250 154 -479q508 -30 876 -78l-12 -149q-409 57 -823 69q48 -186 94 -407l-160 -25q-59 275 -104 440l-418 4l10 150q182 3 365 0q-106 374 -222 631l101 114q332 -272 699 -272q163 0 240.5 77t77.5 192q0 125 -132 216t-411 91q-73 0 -204 -7l45 164
q88 8 169 8q340 0 517 -134t177 -355q0 -183 -131.5 -295t-350.5 -112q-256 0 -557 157z" />
    <glyph glyph-name="uniE092" unicode="&#xe092;" 
d="M641 581q301 157 557 157q219 0 350.5 -112t131.5 -295q0 -221 -177 -355t-517 -134q-81 0 -169 8l-45 164q131 -7 204 -7q279 0 411 91t132 216q0 115 -77.5 192t-240.5 77q-367 0 -699 -272l-101 114q116 257 222 631q-183 -3 -365 0l-10 150l418 4q45 165 104 440
l160 -25q-46 -221 -94 -407q414 12 823 69l12 -149q-368 -48 -876 -78q-69 -229 -154 -479z" />
    <glyph glyph-name="uniE093" unicode="&#xe093;" 
d="M1602 712q98 -235 98 -405q0 -198 -127 -317t-355 -119q-267 0 -382.5 154t-110.5 327l6 215l-391 -37l-16 149l413 41l13 291l-353 -35l-18 156l377 37l22 452h166l-24 -434l354 35l14 -156l-375 -37l-14 -292l418 43l16 -152l-438 -45l-6 -182q-9 -371 324 -371
q171 0 248 77.5t77 180.5q0 183 -94 381z" />
    <glyph glyph-name="uniE094" unicode="&#xe094;" 
d="M1905 552l-105 -116q-208 235 -356 479q18 -149 18 -287q0 -346 -151 -531t-398 -185q-234 0 -397 156t-163 422q0 319 237 728q-198 -68 -377 -117l-49 148q314 76 659 211l62 -119q-158 -125 -266 -374.5t-108 -448.5q0 -207 113 -327.5t278 -120.5q415 0 415 648
q0 298 -107 727l148 33q119 -456 547 -926z" />
    <glyph glyph-name="uniE095" unicode="&#xe095;" 
d="M1493 1634q53 -361 53 -659q0 -322 -51 -515.5t-181.5 -353t-359.5 -285.5l-115 125q331 190 437 391t106 626q0 273 -51 654zM1114 771q-77 -133 -181.5 -228.5t-192.5 -95.5q-76 0 -138.5 65.5t-62.5 358.5q0 331 87 742l158 -31q-80 -385 -80 -707q0 -155 7.5 -207.5
t39.5 -52.5q27 0 106.5 83.5t137.5 183.5z" />
    <glyph glyph-name="uniE096" unicode="&#xe096;" 
d="M889 248q-301 10 -483.5 186.5t-182.5 440.5q0 258 200 438.5t419 249.5l92 -135q-255 -78 -406 -223.5t-151 -331.5q0 -194 150 -337t393 -140q106 456 227 708q-39 70 -112 168l118 92q56 -66 88 -116q182 225 346 225q115 0 200.5 -92t85.5 -283q0 -329 -298 -588
q58 -203 111 -487l-160 -39q-27 211 -86 424q-191 -110 -393 -152q-54 -230 -84 -446l-156 21q37 232 82 417zM1086 420q177 49 307 146q-63 196 -150 368q-97 -254 -157 -514zM1334 1102q135 -253 192 -430q102 111 149 240.5t47 217.5q0 85 -43 135t-94 50q-55 0 -129 -65
t-122 -148z" />
    <glyph glyph-name="uniE097" unicode="&#xe097;" 
d="M1482 1569l166 -58q-206 -504 -460 -818q278 -276 566 -562l-140 -122q-278 292 -534 558q-344 -380 -832 -628q-58 66 -114 130q516 288 830 618q-308 316 -584 592l114 92q282 -274 576 -562q244 304 412 760z" />
    <glyph glyph-name="uniE098" unicode="&#xe098;" 
d="M162 641q51 399 205 628t345 229q90 0 165 -50.5t107.5 -161t104.5 -415.5q11 -46 79 -46q92 0 246.5 110.5t334.5 565.5l143 -75q-390 -867 -803 -1586l-149 72q381 665 463 844q-139 -81 -255 -81q-194 0 -241.5 242.5t-84 330.5t-109.5 88q-132 0 -246.5 -216
t-155.5 -542z" />
    <glyph glyph-name="uniE099" unicode="&#xe099;" 
d="M1849 1251q-282 0 -439.5 -37.5t-297.5 -143t-207.5 -223t-67.5 -246.5q0 -228 198.5 -358.5t518.5 -159.5l-47 -157q-380 34 -609 211t-229 461q0 204 119 369t322 265q-714 -5 -862 -12l-6 149q1087 26 1603 29z" />
    <glyph glyph-name="Faux_Hiragana_dotted_sans" unicode="&#xe0a0;" 
d="M1668 139l-86 -138q-152 133 -393 254q-53 -330 -381 -330q-154 0 -254.5 83t-100.5 211q0 108 80 196.5t283 88.5q121 0 230 -32q4 108 4 215q0 142 -8 324q-410 0 -674 -43l-17 156q316 28 681 39q-9 183 -35 397l161 18q29 -205 35 -407q257 -8 466 -17l-6 -151
q-210 11 -449 14q5 -177 5 -321q0 -146 -5 -277q247 -114 464 -280zM1032 315q-131 36 -226 36q-107 0 -150 -42t-43 -93q0 -56 48 -97t150 -41q218 0 221 237zM1972 1464l-104 -76q-60 89 -215 248l98 67q132 -122 221 -239zM1808 1341l-104 -80q-86 119 -238 270l99 70
q107 -97 243 -260z" />
    <glyph glyph-name="uniE0A1" unicode="&#xe0a1;" 
d="M788 880q318 255 612 255q231 0 372 -153t141 -370q0 -213 -182.5 -384.5t-542.5 -263.5l-78 152q198 44 343 120.5t222.5 167t77.5 214.5q0 162 -104.5 259.5t-253.5 97.5q-154 0 -331 -93.5t-280 -202.5q-2 -394 27 -848l-162 -8q-24 531 -24 707q-197 -187 -355 -391
l-110 120q270 314 465 529q0 63 6 258q-166 -50 -377 -94l-41 151q175 38 422 103q23 298 41 450l162 -12l-37 -391q30 0 57 12l80 -111q-92 -104 -147 -174q-3 -24 -3 -100zM1973 1464l-104 -76q-60 89 -215 248l98 67q132 -122 221 -239zM1809 1341l-104 -80
q-86 119 -238 270l99 70q107 -97 243 -260z" />
    <glyph glyph-name="uniE0A2" unicode="&#xe0a2;" 
d="M1663 171q-520 -202 -842 -202q-221 0 -355 122t-134 326q0 247 209 397.5t649 162.5l62 -163q-752 -23 -752 -387q0 -113 73.5 -200t262.5 -87q293 0 764 188zM1699 1103l-104 -76q-60 89 -215 248l98 67q132 -122 221 -239zM1535 980l-104 -80q-86 119 -238 270l99 70
q107 -97 243 -260z" />
    <glyph glyph-name="uniE0A3" unicode="&#xe0a3;" 
d="M1587 -64q-298 -43 -520 -43q-399 0 -561 102t-162 292q0 157 110 273t304 213q-47 480 -47 848l157 6q11 -521 43 -778q381 147 615 187l45 -152q-397 -82 -668.5 -213.5t-338 -214t-66.5 -193.5q0 -100 139 -157.5t397 -57.5q204 0 533 50zM1973 1464l-104 -76
q-60 89 -215 248l98 67q132 -122 221 -239zM1809 1341l-104 -80q-86 119 -238 270l99 70q107 -97 243 -260z" />
    <glyph glyph-name="uniE0A4" unicode="&#xe0a4;" 
d="M1903 888l-449 -20v-269q0 -163 -88 -236t-224 -73q-65 0 -204 8l-35 162q92 -8 169 -8q133 0 175.5 33t42.5 102v270l-602 -26v-645q0 -75 67 -103t394 -28q239 0 473 18l-6 -164q-412 -15 -509 -15q-397 0 -491 75t-94 213v645l-397 -21l-12 154l409 18v455h166v-447
l602 25v532h164v-520l436 17zM1973 1464l-104 -76q-60 89 -215 248l98 67q132 -122 221 -239zM1809 1341l-104 -80q-86 119 -238 270l99 70q107 -97 243 -260z" />
    <glyph glyph-name="uniE0A5" unicode="&#xe0a5;" 
d="M1787 1421q-368 -233 -692 -340q0 -265 -6 -479q305 6 612 -29l-10 -151q-269 31 -487 31q-61 0 -119 -3q-6 -243 -19 -497l-157 6q32 586 26 1079q-130 -25 -240 -25q-221 0 -325.5 98t-104.5 228q0 134 112 227t287 93q179 0 299.5 -97t129.5 -315q315 114 600 311z
M929 1198q16 306 -264 306q-236 0 -236 -167q0 -170 269 -170q114 0 231 31zM2013 1117l-104 -76q-60 89 -215 248l98 67q132 -122 221 -239zM1849 994l-104 -80q-86 119 -238 270l99 70q107 -97 243 -260z" />
    <glyph glyph-name="uniE0A6" unicode="&#xe0a6;" 
d="M1905 1132l-678 -33v-154q0 -116 -19 -217q40 -109 40 -236q0 -230 -140.5 -420t-357.5 -294l-121 121q174 75 297.5 207t148.5 278q-103 -78 -229 -78q-130 0 -220 93.5t-90 223.5q0 125 90 222.5t236 97.5q112 0 191 -59q8 47 8 113v94l-889 -35l-16 152l905 36v420
h166v-413l669 30zM1044 628q0 68 -56 116t-118 48q-63 0 -117.5 -47t-54.5 -122q0 -68 46 -115.5t116 -47.5q72 0 128 50.5t56 117.5zM1983 1494l-104 -76q-60 89 -215 248l98 67q132 -122 221 -239zM1819 1371l-104 -80q-86 119 -238 270l99 70q107 -97 243 -260z" />
    <glyph glyph-name="uniE0A7" unicode="&#xe0a7;" 
d="M1892 788q-51 -399 -205 -628t-345 -229q-90 0 -165 50.5t-107.5 161t-104.5 415.5q-11 46 -79 46q-92 0 -246.5 -110.5t-334.5 -565.5l-143 75q390 867 803 1586l149 -72q-381 -665 -463 -844q139 81 255 81q194 0 241.5 -242.5t84 -330.5t109.5 -88q132 0 246.5 216
t155.5 542zM1973 1464l-104 -76q-60 89 -215 248l98 67q132 -122 221 -239zM1809 1341l-104 -80q-86 119 -238 270l99 70q107 -97 243 -260z" />
    <glyph glyph-name="uniE0A8" unicode="&#xe0a8;" 
d="M1346 1494l-19 -159q-123 -8 -251 -8q-264 0 -529 32l18 164q302 -36 554 -36q114 0 227 7zM1870 -27q-190 -46 -400 -46q-73 0 -141.5 6t-110.5 43.5t-52 71.5t-20.5 143.5t-10.5 213.5q0 43 -58 43q-124 0 -277.5 -121.5t-396.5 -452.5l-139 99q471 593 871 979
q-394 -78 -738 -105l-43 162q584 48 1008 154l84 -134q-235 -213 -459 -446q92 25 146 25q153 0 161 -152q10 -332 38.5 -348.5t131.5 -16.5q191 0 387 46zM1973 1464l-104 -76q-60 89 -215 248l98 67q132 -122 221 -239zM1809 1341l-104 -80q-86 119 -238 270l99 70
q107 -97 243 -260z" />
    <glyph glyph-name="uniE0A9" unicode="&#xe0a9;" 
d="M1973 1464l-104 -76q-60 89 -215 248l98 67q132 -122 221 -239zM1809 1341l-104 -80q-86 119 -238 270l99 70q107 -97 243 -260zM1468 1470l-47 -152q-472 50 -780 148l61 145q349 -102 766 -141zM422 964q450 141 740 141q228 0 333 -131.5t105 -308.5q0 -275 -202 -492
t-581 -338l-96 138q339 82 532.5 282.5t193.5 401.5q0 116 -69 205.5t-213 89.5q-248 0 -688 -136z" />
    <glyph glyph-name="uniE0AA" unicode="&#xe0aa;" 
d="M1202 1115q-230 -47 -430 -69q-165 -766 -403 -1186l-148 70q225 380 381 1093q-213 -17 -377 -20l-12 155q238 8 422 29q50 252 74 438l153 -30q-16 -154 -59 -387q113 5 381 63zM1782 923l-2 -156q-486 -23 -768 -135l-43 152q323 119 813 139zM1862 -62
q-155 -19 -292 -19q-443 0 -716 193l86 131q247 -168 640 -168q126 0 265 19zM1973 1464l-104 -76q-60 89 -215 248l98 67q132 -122 221 -239zM1809 1341l-104 -80q-86 119 -238 270l99 70q107 -97 243 -260z" />
    <glyph glyph-name="uniE0AB" unicode="&#xe0ab;" 
d="M1745 374q-392 -438 -798 -438q-207 0 -330 116t-123 300v1226h165v-1179q0 -146 76 -223.5t211 -77.5q158 0 337 98.5t353 308.5zM1570 1245l-104 -76q-60 89 -215 248l98 67q132 -122 221 -239zM1406 1122l-104 -80q-86 119 -238 270l99 70q107 -97 243 -260z" />
    <glyph glyph-name="uniE0AC" unicode="&#xe0ac;" 
d="M1207 1169q301 -10 483.5 -186.5t182.5 -440.5q0 -258 -200 -438.5t-419 -249.5l-92 135q255 78 406 223.5t151 331.5q0 194 -150 337t-393 140q-106 -456 -227 -708q39 -70 112 -168l-118 -92q-56 66 -88 116q-182 -225 -346 -225q-115 0 -200.5 92t-85.5 283
q0 329 298 588q-58 203 -111 487l160 39q27 -211 86 -424q191 110 393 152q54 230 84 446l156 -21q-37 -232 -82 -417zM1010 997q-177 -49 -307 -146q63 -196 150 -368q97 254 157 514zM762 315q-135 253 -192 430q-102 -111 -149 -240.5t-47 -217.5q0 -85 43 -135t94 -50
q55 0 129 65t122 148zM1973 1464l-104 -76q-60 89 -215 248l98 67q132 -122 221 -239zM1809 1341l-104 -80q-86 119 -238 270l99 70q107 -97 243 -260z" />
    <glyph glyph-name="uniE0AD" unicode="&#xe0ad;" 
d="M1991 315q-182 -354 -424 -354q-87 0 -151.5 47t-89.5 114t-25 216q0 181 13 348l20 266q0 32 -23.5 55t-55.5 23q-47 0 -187 -79.5t-347 -277.5q-2 -148 -2 -301q0 -261 6 -547l-158 -6l-4 694q-238 -248 -383 -432l-102 117q135 172 489 537q0 85 6 280
q-151 -49 -389 -104l-41 147q261 63 437 117q6 220 34 457l162 -13q-24 -209 -33 -381l99 -120l-111 -117q-6 -52 -2 -111q346 303 542 303q99 0 163.5 -68t64.5 -168q0 -16 -2 -32q-32 -280 -32 -540q0 -151 6.5 -184.5t36 -56t67.5 -22.5q60 0 140 77t155 226zM1973 1464
l-104 -76q-60 89 -215 248l98 67q132 -122 221 -239zM1809 1341l-104 -80q-86 119 -238 270l99 70q107 -97 243 -260z" />
    <glyph glyph-name="uniE0AE" unicode="&#xe0ae;" 
d="M1106 1191q-58 -439 -161 -722t-181 -358t-174 -75q-153 0 -262 145.5t-109 393.5q0 371 262 608t645 237q343 0 538.5 -203.5t195.5 -494.5q0 -512 -617 -798l-125 126q283 117 434 290.5t151 382.5q0 228 -150.5 380.5t-418.5 152.5q-76 0 -155 -14zM940 1236
q-250 -49 -405.5 -232.5t-155.5 -431.5q0 -167 68 -270.5t128 -103.5q105 0 209 285t156 753zM1973 1464l-104 -76q-60 89 -215 248l98 67q132 -122 221 -239zM1809 1341l-104 -80q-86 119 -238 270l99 70q107 -97 243 -260z" />
    <glyph glyph-name="uniE0AF" unicode="&#xe0af;" 
d="M1198 1214q121 22 239 22q231 0 331 -115.5t100 -271.5q0 -171 -104.5 -294.5t-290.5 -123.5q-106 0 -237 41.5t-226 108.5l59 147q237 -135 395 -135q110 0 175 73.5t65 179.5q0 235 -265 235q-242 0 -704 -174q108 -432 324 -1006l-150 -63q-169 444 -329 1007
q-167 -65 -416 -180l-66 139q192 92 439 195q-48 196 -105 481l160 41q45 -249 102 -463q172 67 340 113q-3 220 6 450h164q-8 -256 -6 -407zM1973 1464l-104 -76q-60 89 -215 248l98 67q132 -122 221 -239zM1809 1341l-104 -80q-86 119 -238 270l99 70q107 -97 243 -260z
" />
    <glyph glyph-name="uniE0B0" unicode="&#xe0b0;" 
d="M1343 1318q278 -13 439 -169.5t161 -408.5q0 -245 -162 -405t-383 -160q-44 0 -88 7q-101 -253 -293 -408l-133 96q188 160 266 353q-257 108 -411 401l124 86q125 -233 326 -336q20 116 20 310q0 178 -18 464q-102 -6 -197.5 -56.5t-177 -132.5t-147 -182.5t-124 -233
t-58.5 -173.5q0 -107 57 -299l-156 -35q-75 267 -75 606q0 381 92 797l153 -33q-77 -356 -84 -676q115 238 305.5 395.5t399.5 178.5q-2 76 -23 369h160q19 -169 27 -355zM1347 331q27 -3 53 -3q170 0 276 109.5t106 296.5q0 398 -429 424q18 -275 18 -463q0 -224 -24 -364z
M1973 1464l-104 -76q-60 89 -215 248l98 67q132 -122 221 -239zM1809 1341l-104 -80q-86 119 -238 270l99 70q107 -97 243 -260z" />
    <glyph glyph-name="uniE0B1" unicode="&#xe0b1;" 
d="M597 823q85 -250 154 -479q508 -30 876 -78l-12 -149q-409 57 -823 69q48 -186 94 -407l-160 -25q-59 275 -104 440l-418 4l10 150q182 3 365 0q-106 374 -222 631l101 114q332 -272 699 -272q163 0 240.5 77t77.5 192q0 125 -132 216t-411 91q-73 0 -204 -7l45 164
q88 8 169 8q340 0 517 -134t177 -355q0 -183 -131.5 -295t-350.5 -112q-256 0 -557 157zM2017 1464l-104 -76q-60 89 -215 248l98 67q132 -122 221 -239zM1853 1341l-104 -80q-86 119 -238 270l99 70q107 -97 243 -260z" />
    <glyph glyph-name="uniE0B2" unicode="&#xe0b2;" 
d="M641 581q301 157 557 157q219 0 350.5 -112t131.5 -295q0 -221 -177 -355t-517 -134q-81 0 -169 8l-45 164q131 -7 204 -7q279 0 411 91t132 216q0 115 -77.5 192t-240.5 77q-367 0 -699 -272l-101 114q116 257 222 631q-183 -3 -365 0l-10 150l418 4q45 165 104 440
l160 -25q-46 -221 -94 -407q414 12 823 69l12 -149q-368 -48 -876 -78q-69 -229 -154 -479zM1973 1464l-104 -76q-60 89 -215 248l98 67q132 -122 221 -239zM1809 1341l-104 -80q-86 119 -238 270l99 70q107 -97 243 -260z" />
    <glyph glyph-name="uniE0B3" unicode="&#xe0b3;" 
d="M1602 712q98 -235 98 -405q0 -198 -127 -317t-355 -119q-267 0 -382.5 154t-110.5 327l6 215l-391 -37l-16 149l413 41l13 291l-353 -35l-18 156l377 37l22 452h166l-24 -434l354 35l14 -156l-375 -37l-14 -292l418 43l16 -152l-438 -45l-6 -182q-9 -371 324 -371
q171 0 248 77.5t77 180.5q0 183 -94 381zM1973 1464l-104 -76q-60 89 -215 248l98 67q132 -122 221 -239zM1809 1341l-104 -80q-86 119 -238 270l99 70q107 -97 243 -260z" />
    <glyph glyph-name="uniE0B4" unicode="&#xe0b4;" 
d="M1905 552l-105 -116q-208 235 -356 479q18 -149 18 -287q0 -346 -151 -531t-398 -185q-234 0 -397 156t-163 422q0 319 237 728q-198 -68 -377 -117l-49 148q314 76 659 211l62 -119q-158 -125 -266 -374.5t-108 -448.5q0 -207 113 -327.5t278 -120.5q415 0 415 648
q0 298 -107 727l148 33q119 -456 547 -926zM1973 1464l-104 -76q-60 89 -215 248l98 67q132 -122 221 -239zM1809 1341l-104 -80q-86 119 -238 270l99 70q107 -97 243 -260z" />
    <glyph glyph-name="uniE0B5" unicode="&#xe0b5;" 
d="M1493 1634q53 -361 53 -659q0 -322 -51 -515.5t-181.5 -353t-359.5 -285.5l-115 125q331 190 437 391t106 626q0 273 -51 654zM1114 771q-77 -133 -181.5 -228.5t-192.5 -95.5q-76 0 -138.5 65.5t-62.5 358.5q0 331 87 742l158 -31q-80 -385 -80 -707q0 -155 7.5 -207.5
t39.5 -52.5q27 0 106.5 83.5t137.5 183.5zM1973 1464l-104 -76q-60 89 -215 248l98 67q132 -122 221 -239zM1809 1341l-104 -80q-86 119 -238 270l99 70q107 -97 243 -260z" />
    <glyph glyph-name="uniE0B6" unicode="&#xe0b6;" 
d="M831 112q-301 10 -483.5 186.5t-182.5 440.5q0 258 200 438.5t419 249.5l92 -135q-255 -78 -406 -223.5t-151 -331.5q0 -194 150 -337t393 -140q106 456 227 708q-39 70 -112 168l118 92q56 -66 88 -116q182 225 346 225q115 0 200.5 -92t85.5 -283q0 -329 -298 -588
q58 -203 111 -487l-160 -39q-27 211 -86 424q-191 -110 -393 -152q-54 -230 -84 -446l-156 21q37 232 82 417zM1028 284q177 49 307 146q-63 196 -150 368q-97 -254 -157 -514zM1276 966q135 -253 192 -430q102 111 149 240.5t47 217.5q0 85 -43 135t-94 50q-55 0 -129 -65
t-122 -148zM1949 1529l-104 -76q-60 89 -215 248l98 67q132 -122 221 -239zM1785 1406l-104 -80q-86 119 -238 270l99 70q107 -97 243 -260z" />
    <glyph glyph-name="uniE0B7" unicode="&#xe0b7;" 
d="M1482 1569l166 -58q-206 -504 -460 -818q278 -276 566 -562l-140 -122q-278 292 -534 558q-344 -380 -832 -628q-58 66 -114 130q516 288 830 618q-308 316 -584 592l114 92q282 -274 576 -562q244 304 412 760zM2082 1163l-104 -76q-60 89 -215 248l98 67
q132 -122 221 -239zM1918 1040l-104 -80q-86 119 -238 270l99 70q107 -97 243 -260z" />
    <glyph glyph-name="uniE0B8" unicode="&#xe0b8;" 
d="M162 641q51 399 205 628t345 229q90 0 165 -50.5t107.5 -161t104.5 -415.5q11 -46 79 -46q92 0 246.5 110.5t334.5 565.5l143 -75q-390 -867 -803 -1586l-149 72q381 665 463 844q-139 -81 -255 -81q-194 0 -241.5 242.5t-84 330.5t-109.5 88q-132 0 -246.5 -216
t-155.5 -542zM1686 1464l-104 -76q-60 89 -215 248l98 67q132 -122 221 -239zM1522 1341l-104 -80q-86 119 -238 270l99 70q107 -97 243 -260z" />
    <glyph glyph-name="uniE0B9" unicode="&#xe0b9;" 
d="M1849 1251q-282 0 -439.5 -37.5t-297.5 -143t-207.5 -223t-67.5 -246.5q0 -228 198.5 -358.5t518.5 -159.5l-47 -157q-380 34 -609 211t-229 461q0 204 119 369t322 265q-714 -5 -862 -12l-6 149q1087 26 1603 29zM1973 917l-104 -76q-60 89 -215 248l98 67
q132 -122 221 -239zM1809 794l-104 -80q-86 119 -238 270l99 70q107 -97 243 -260z" />
    <glyph glyph-name="Faux_Katakana_sans" unicode="&#xe0c0;" 
d="M1915 1042h-684v-959q0 -86 -48.5 -140.5t-194.5 -54.5q-94 0 -200 9l-30 162q112 -9 266 -9q17 0 31 18t14 38v739q-277 -417 -825 -758l-99 133q589 347 863 822h-822v153h883v439h162v-439h684v-153z" />
    <glyph glyph-name="uniE0C1" unicode="&#xe0c1;" 
d="M1706 1118q-13 -383 -43.5 -679.5t-65 -360t-103.5 -99.5t-220 -36q-64 0 -152 5l-45 160q99 -16 191 -16q106 0 142 24.5t50 60.5t40 321t34 466h-500q-50 -727 -719 -1096l-108 127q630 344 665 969h-587v154h602q6 382 6 501h164l-10 -501h659z" />
    <glyph glyph-name="uniE0C2" unicode="&#xe0c2;" 
d="M264 -56v1245h1307v-155h-1143v-803h1149v-156h-1149v-131h-164z" />
    <glyph glyph-name="uniE0C3" unicode="&#xe0c3;" 
d="M1624 1406q-4 -733 -225.5 -1061.5t-624.5 -498.5l-100 139q320 127 541 391.5t243 872.5h-1007v-621h-164v778h1337z" />
    <glyph glyph-name="uniE0C4" unicode="&#xe0c4;" 
d="M1884 745h-887v-514q0 -23 19 -40.5t39 -17.5h710v-155h-721q-210 0 -210 194v533h-668v155h668v400h-519v155h1325v-155h-643v-400h887v-155z" />
    <glyph glyph-name="uniE0C5" unicode="&#xe0c5;" 
d="M1882 724h-749q2 -325 -123.5 -533t-429.5 -364l-107 131q271 137 385 302.5t117 463.5h-801v156h799v373q-391 -43 -543 -47l-61 161q785 31 1220 156l99 -156l-551 -88v-399h745v-156z" />
    <glyph glyph-name="uniE0C6" unicode="&#xe0c6;" 
d="M1911 44l-146 -86q-60 101 -133 197q-690 -75 -1415 -92l-39 162q60 -4 124 -4q81 0 171 6q246 493 475 1294l160 -43q-193 -700 -446 -1243q535 27 860 74q-117 160 -305 380l129 91q277 -310 565 -736z" />
    <glyph glyph-name="uniE0C7" unicode="&#xe0c7;" 
d="M1901 935h-486q15 -431 -142.5 -682t-531.5 -420l-100 129q253 101 387 236.5t181.5 308t47.5 428.5h-563v-471h-164v471h-434v156h434v440h164v-440h566v510h163v-510h478v-156z" />
    <glyph glyph-name="uniE0C8" unicode="&#xe0c8;" 
d="M1864 83h-1661v158h745v979h-573v151h1319v-151h-582v-979h752v-158z" />
    <glyph glyph-name="uniE0C9" unicode="&#xe0c9;" 
d="M1599 1382h-1136v153h1136v-153zM1755 1052q-80 -499 -308 -771t-687 -429l-94 143q359 115 584 322t306 581h-1251v154h1450z" />
    <glyph glyph-name="uniE0CA" unicode="&#xe0ca;" 
d="M752 1042h-498v153h498v439h162v-439h883v-153h-822q274 -475 863 -822l-99 -133q-548 341 -825 758v-762q0 -86 -48.5 -140.5t-194.5 -54.5q-94 0 -200 9l-30 162q112 -9 266 -9q17 0 31 18t14 38v936z" />
    <glyph glyph-name="uniE0CB" unicode="&#xe0cb;" 
d="M1757 847q-272 -379 -575 -569t-789 -246v1446h168v-1255q359 63 604 239.5t469 497.5z" />
    <glyph glyph-name="uniE0CC" unicode="&#xe0cc;" 
d="M1864 988h-750v-1126h-164v1126h-741v154h741v473h164v-473h750v-154zM737 753q-169 -366 -424 -705l-139 101q242 301 422 657zM1892 186l-129 -107q-209 327 -448 629l117 90q298 -367 460 -612z" />
    <glyph glyph-name="uniE0CD" unicode="&#xe0cd;" 
d="M1878 257l-154 -75q-225 497 -577 1036l125 69q314 -439 606 -1030zM838 1218q-292 -680 -568 -1026l-141 90q294 378 561 995z" />
    <glyph glyph-name="uniE0CE" unicode="&#xe0ce;" 
d="M1626 65h-164v127h-876v-127h-164v1284h1204v-1284zM1462 347v846h-876v-846h876z" />
    <glyph glyph-name="uniE0CF" unicode="&#xe0cf;" 
d="M1864 1087q-221 -308 -451 -549l-145 100q199 199 362 410l-704 -98l268 -1049l-162 -35l-270 1061l-580 -84l-18 154l559 77l-125 504l164 35l129 -512l934 131z" />
    <glyph glyph-name="uniE0D0" unicode="&#xe0d0;" 
d="M1774 214l-97 -127q-290 240 -514 410q-286 -286 -782 -510l-107 129q496 215 756 477q-188 148 -428 303l103 117q213 -135 430 -297q200 277 311 569h-1026v154h1202v-154q-166 -417 -354 -665q238 -175 506 -406z" />
    <glyph glyph-name="uniE0D1" unicode="&#xe0d1;" 
d="M1841 1304q-299 -401 -600 -584l-117 113q256 153 516 471h-1445v156h1646v-156zM994 1130q12 -555 -129 -799t-471 -426l-119 125q193 94 336 241t183 326t38 533h162zM1745 105l-100 -136q-290 201 -573 367l94 125q324 -181 579 -356z" />
    <glyph glyph-name="uniE0D2" unicode="&#xe0d2;" 
d="M1794 1040h-831l-138 -324h727q-38 -566 -481 -829l-121 120q369 209 416 553h-788l208 480h-512v155h576l137 373l158 -51l-121 -322h770v-155z" />
    <glyph glyph-name="uniE0D3" unicode="&#xe0d3;" 
d="M1642 7h-935q-261 0 -261 236v1274h162v-582q482 34 928 185l76 -142q-451 -154 -1004 -203v-546q0 -22 26 -42t52 -20h956v-160z" />
    <glyph glyph-name="uniE0D4" unicode="&#xe0d4;" 
d="M1567 1267q-58 -553 -278 -882.5t-642 -536.5l-102 131q284 145 482.5 335t281.5 495.5t96 492.5zM666 814l-140 -88q-122 242 -280 486l119 73q169 -228 301 -471z" />
    <glyph glyph-name="uniE0D5" unicode="&#xe0d5;" 
d="M1516 862q0 -318 -72.5 -487.5t-229 -300t-350.5 -218.5l-92 139q306 143 443 310t137 557v753h164v-753zM702 554h-163v1002h163v-1002z" />
    <glyph glyph-name="uniE0D6" unicode="&#xe0d6;" 
d="M1753 1398q-123 -795 -404.5 -1098t-758.5 -432l-86 146q315 86 531.5 229.5t331.5 372.5t149 403t73 420zM1079 923l-157 -68q-85 218 -246 484l151 63q150 -243 252 -479zM598 794l-156 -68q-83 212 -243 486l143 65q149 -224 256 -483z" />
    <glyph glyph-name="uniE0D7" unicode="&#xe0d7;" 
d="M1694 483l-92 -131q-198 146 -422 280q-282 -435 -760 -706l-111 120q471 278 727 668q-250 149 -495 264l84 135q239 -110 493 -254q137 280 230 711l161 -39q-103 -456 -249 -758q254 -153 434 -290z" />
    <glyph glyph-name="uniE0D8" unicode="&#xe0d8;" 
d="M1006 925l-129 -102q-205 310 -494 600l119 110q311 -325 504 -608zM1706 1449q-179 -320 -590 -717v-837h-164v905q430 409 617 729z" />
    <glyph glyph-name="uniE0D9" unicode="&#xe0d9;" 
d="M1802 67l-121 -115q-349 360 -649 621q-316 -348 -731 -617l-115 129q819 520 1084 1155h-908v156h1096v-145q-136 -301 -325 -555q398 -344 669 -629z" />
    <glyph glyph-name="Faux_Katakana_dotted_sans" unicode="&#xe0e0;" 
d="M1915 1042h-684v-959q0 -86 -48.5 -140.5t-194.5 -54.5q-94 0 -200 9l-30 162q112 -9 266 -9q17 0 31 18t14 38v739q-277 -417 -825 -758l-99 133q589 347 863 822h-822v153h883v439h162v-439h684v-153zM1973 1464l-104 -76q-60 89 -215 248l98 67q132 -122 221 -239z
M1809 1341l-104 -80q-86 119 -238 270l99 70q107 -97 243 -260z" />
    <glyph glyph-name="uniE0E1" unicode="&#xe0e1;" 
d="M1706 1118q-13 -383 -43.5 -679.5t-65 -360t-103.5 -99.5t-220 -36q-64 0 -152 5l-45 160q99 -16 191 -16q106 0 142 24.5t50 60.5t40 321t34 466h-500q-50 -727 -719 -1096l-108 127q630 344 665 969h-587v154h602q6 382 6 501h164l-10 -501h659zM1973 1464l-104 -76
q-60 89 -215 248l98 67q132 -122 221 -239zM1809 1341l-104 -80q-86 119 -238 270l99 70q107 -97 243 -260z" />
    <glyph glyph-name="uniE0E2" unicode="&#xe0e2;" 
d="M1927 1330l-125 -79q-85 137 -217 292l115 72q130 -147 227 -285zM1714 1261l-115 -82q-127 160 -229 270l107 74q131 -129 237 -262zM264 -56v1245h1307v-155h-1143v-803h1149v-156h-1149v-131h-164z" />
    <glyph glyph-name="uniE0E3" unicode="&#xe0e3;" 
d="M1978 1464l-92 -103q-82 77 -237 197l80 90q144 -93 249 -184zM1806 1275l-94 -104q-116 113 -235 211l86 96q162 -130 243 -203zM1458 1412q-4 -581 -151.5 -921.5t-518.5 -601.5l-106 123q309 214 452 506.5t154 736.5h-657v-492h-164v649h991z" />
    <glyph glyph-name="uniE0E4" unicode="&#xe0e4;" 
d="M1884 745h-887v-514q0 -23 19 -40.5t39 -17.5h710v-155h-721q-210 0 -210 194v533h-668v155h668v400h-519v155h1196v-155h-514v-400h887v-155zM2019 1464l-104 -76q-60 89 -215 248l98 67q132 -122 221 -239zM1855 1341l-104 -80q-86 119 -238 270l99 70
q107 -97 243 -260z" />
    <glyph glyph-name="uniE0E5" unicode="&#xe0e5;" 
d="M1956 1439l-111 -82q-132 174 -211 270l101 70q119 -126 221 -258zM1759 1320l-117 -82q-106 162 -204 279l102 69q129 -143 219 -266zM1882 724h-749q2 -325 -123.5 -533t-429.5 -364l-107 131q271 137 385 302.5t117 463.5h-801v156h799v373q-390 -43 -545 -47l-59 161
q564 10 1028 125l86 -155l-346 -58v-399h745v-156z" />
    <glyph glyph-name="uniE0E6" unicode="&#xe0e6;" 
d="M1911 44l-146 -86q-60 101 -133 197q-690 -75 -1415 -92l-39 162q60 -4 124 -4q81 0 171 6q246 493 475 1294l160 -43q-193 -700 -446 -1243q535 27 860 74q-117 160 -305 380l129 91q277 -310 565 -736zM1887 1345l-119 -82q-95 149 -209 285l107 65q109 -127 221 -268z
M1713 1216l-115 -86q-104 157 -219 297l100 66q123 -136 234 -277z" />
    <glyph glyph-name="uniE0E7" unicode="&#xe0e7;" 
d="M2007 1400l-119 -82q-95 149 -209 285l107 65q109 -127 221 -268zM1901 935h-486q15 -431 -142.5 -682t-531.5 -420l-100 129q253 101 387 236.5t181.5 308t47.5 428.5h-563v-471h-164v471h-434v156h434v440h164v-440h566v510h163v-510h478v-156zM1833 1271l-115 -86
q-104 157 -219 297l100 66q123 -136 234 -277z" />
    <glyph glyph-name="uniE0E8" unicode="&#xe0e8;" 
d="M1864 83h-1661v158h705v979h-533v151h1116v-151h-419v-979h792v-158zM2000 1400l-119 -82q-95 149 -209 285l107 65q109 -127 221 -268zM1826 1271l-115 -86q-104 157 -219 297l100 66q123 -136 234 -277z" />
    <glyph glyph-name="uniE0E9" unicode="&#xe0e9;" 
d="M1498 1382h-1035v153h1035v-153zM1755 1052q-80 -499 -308 -771t-687 -429l-94 143q359 115 584 322t306 581h-1251v154h1450zM2007 1400l-119 -82q-95 149 -209 285l107 65q109 -127 221 -268zM1833 1271l-115 -86q-104 157 -219 297l100 66q123 -136 234 -277z" />
    <glyph glyph-name="uniE0EA" unicode="&#xe0ea;" 
d="M752 1042h-498v153h498v439h162v-439h883v-153h-822q274 -475 863 -822l-99 -133q-548 341 -825 758v-762q0 -86 -48.5 -140.5t-194.5 -54.5q-94 0 -200 9l-30 162q112 -9 266 -9q17 0 31 18t14 38v936zM2007 1400l-119 -82q-95 149 -209 285l107 65q109 -127 221 -268z
M1833 1271l-115 -86q-104 157 -219 297l100 66q123 -136 234 -277z" />
    <glyph glyph-name="uniE0EB" unicode="&#xe0eb;" 
d="M1757 847q-272 -379 -575 -569t-789 -246v1446h168v-1255q359 63 604 239.5t469 497.5zM1744 1400l-119 -82q-95 149 -209 285l107 65q109 -127 221 -268zM1570 1271l-115 -86q-104 157 -219 297l100 66q123 -136 234 -277z" />
    <glyph glyph-name="uniE0EC" unicode="&#xe0ec;" 
d="M1864 988h-750v-1126h-164v1126h-741v154h741v473h164v-473h750v-154zM737 753q-169 -366 -424 -705l-139 101q242 301 422 657zM1892 186l-129 -107q-209 327 -448 629l117 90q298 -367 460 -612zM2007 1400l-119 -82q-95 149 -209 285l107 65q109 -127 221 -268z
M1833 1271l-115 -86q-104 157 -219 297l100 66q123 -136 234 -277z" />
    <glyph glyph-name="uniE0ED" unicode="&#xe0ed;" 
d="M1933 1339l-102 -84q-96 126 -240 266l95 74q126 -112 247 -256zM1743 1187l-109 -80q-88 124 -241 277l98 73q137 -125 252 -270zM1878 257l-154 -75q-225 497 -577 1036l125 69q314 -439 606 -1030zM838 1218q-292 -680 -568 -1026l-141 90q294 378 561 995z" />
    <glyph glyph-name="uniE0EE" unicode="&#xe0ee;" 
d="M1571 21h-164v127h-876v-127h-164v1284h1204v-1284zM1407 303v846h-876v-846h876zM2007 1400l-119 -82q-95 149 -209 285l107 65q109 -127 221 -268zM1833 1271l-115 -86q-104 157 -219 297l100 66q123 -136 234 -277z" />
    <glyph glyph-name="uniE0EF" unicode="&#xe0ef;" 
d="M1864 1087q-221 -308 -451 -549l-145 100q199 199 362 410l-704 -98l268 -1049l-162 -35l-270 1061l-580 -84l-18 154l559 77l-125 504l164 35l129 -512l934 131zM1843 1410l-119 -82q-95 149 -209 285l107 65q109 -127 221 -268zM1669 1281l-115 -86q-104 157 -219 297
l100 66q123 -136 234 -277z" />
    <glyph glyph-name="uniE0F0" unicode="&#xe0f0;" 
d="M1697 214l-97 -127q-290 240 -514 410q-286 -286 -782 -510l-107 129q496 215 756 477q-188 148 -428 303l103 117q213 -135 430 -297q200 277 311 569h-1026v154h1202v-154q-166 -417 -354 -665q238 -175 506 -406zM2037 1410l-119 -82q-95 149 -209 285l107 65
q109 -127 221 -268zM1863 1281l-115 -86q-104 157 -219 297l100 66q123 -136 234 -277z" />
    <glyph glyph-name="uniE0F1" unicode="&#xe0f1;" 
d="M1753 1315q-299 -401 -600 -584l-117 113q256 153 516 471h-1248v156h1449v-156zM994 1130q12 -555 -129 -799t-471 -426l-119 125q193 94 336 241t183 326t38 533h162zM1745 214l-100 -136q-290 201 -573 367l94 125q324 -181 579 -356zM2105 875l-119 -82
q-95 149 -209 285l107 65q109 -127 221 -268zM1931 746l-115 -86q-104 157 -219 297l100 66q123 -136 234 -277z" />
    <glyph glyph-name="uniE0F2" unicode="&#xe0f2;" 
d="M1794 1040h-831l-138 -324h727q-38 -566 -481 -829l-121 120q369 209 416 553h-788l208 480h-512v155h576l137 373l158 -51l-121 -322h770v-155zM2007 1400l-119 -82q-95 149 -209 285l107 65q109 -127 221 -268zM1833 1271l-115 -86q-104 157 -219 297l100 66
q123 -136 234 -277z" />
    <glyph glyph-name="uniE0F3" unicode="&#xe0f3;" 
d="M1905 1374l-117 -80q-108 152 -225 286l108 74q108 -110 234 -280zM1683 1251l-118 -76q-113 160 -217 285l102 73q114 -114 233 -282zM1642 7h-935q-261 0 -261 236v1274h162v-582q482 34 928 185l76 -142q-451 -154 -1004 -203v-546q0 -22 26 -42t52 -20h956v-160z" />
    <glyph glyph-name="uniE0F4" unicode="&#xe0f4;" 
d="M1872 1363l-109 -92q-111 148 -239 285l92 78q118 -113 256 -265v-6zM1698 1232l-113 -94q-8 16 -35 47q-83 -611 -331.5 -899t-571.5 -438l-102 131q429 222 613 489t235 776l123 -14q-84 112 -168 201l94 78q114 -105 256 -277zM666 814l-140 -88q-122 242 -280 486
l119 73q169 -228 301 -471z" />
    <glyph glyph-name="uniE0F5" unicode="&#xe0f5;" 
d="M1496 862q0 -318 -72.5 -487.5t-229 -300t-350.5 -218.5l-92 139q306 143 443 310t137 557v753h164v-753zM702 554h-163v1002h163v-1002zM2027 1400l-119 -82q-95 149 -209 285l107 65q109 -127 221 -268zM1853 1271l-115 -86q-104 157 -219 297l100 66
q123 -136 234 -277z" />
    <glyph glyph-name="uniE0F6" unicode="&#xe0f6;" 
d="M1927 1318l-119 -67q-93 153 -221 286l113 64q129 -137 227 -283zM1657 1292l-117 -74q-83 129 -219 282l109 68q110 -116 227 -276zM1079 923l-157 -68q-85 218 -246 484l151 63q150 -243 252 -479zM598 794l-156 -68q-83 212 -243 486l143 65q149 -224 256 -483z
M1704 1156q-103 -571 -360.5 -860.5t-753.5 -427.5l-86 146q469 129 703.5 375t344.5 806z" />
    <glyph glyph-name="uniE0F7" unicode="&#xe0f7;" 
d="M1694 483l-92 -131q-198 146 -422 280q-282 -435 -760 -706l-111 120q471 278 727 668q-250 149 -495 264l84 135q239 -110 493 -254q137 280 230 711l161 -39q-103 -456 -249 -758q254 -153 434 -290zM2091 1373l-119 -67q-93 153 -221 286l113 64q129 -137 227 -283z
M1909 1270l-117 -74q-83 129 -219 282l109 68q110 -116 227 -276z" />
    <glyph glyph-name="uniE0F8" unicode="&#xe0f8;" 
d="M986 925l-129 -102q-205 310 -494 600l119 110q311 -325 504 -608zM1686 1449q-179 -320 -590 -717v-837h-164v905q430 409 617 729zM2031 1072l-119 -82q-95 149 -209 285l107 65q109 -127 221 -268zM1857 943l-115 -86q-104 157 -219 297l100 66q123 -136 234 -277z
" />
    <glyph glyph-name="uniE0F9" unicode="&#xe0f9;" 
d="M1802 67l-121 -115q-349 360 -649 621q-316 -348 -731 -617l-115 129q819 520 1084 1155h-908v156h1096v-145q-136 -301 -325 -555q398 -344 669 -629zM2007 1400l-119 -82q-95 149 -209 285l107 65q109 -127 221 -268zM1833 1271l-115 -86q-104 157 -219 297l100 66
q123 -136 234 -277z" />
    <glyph glyph-name="Faux_Hanzi_sans_caps" unicode="&#xe100;" 
d="M744 1421v150h1160v-1558q0 -276 -284 -276q-128 0 -306 4q-10 74 -32 162q166 -12 310 -12q152 0 152 134v1396h-1000zM152 1309h160v-1572h-160v1572zM238 1603l114 102q110 -104 282 -280l-130 -114q-164 188 -266 292zM492 767h1064v-150h-1064v150z" />
    <glyph glyph-name="uniE101" unicode="&#xe101;" 
d="M1222 943l250 462h-736q-14 -708 -122 -1032q-114 -374 -442 -634q-62 64 -142 142q326 258 422 576q100 278 114 948h-442v150h1542v-152l-262 -464h522q-12 -382 -32 -724q-20 -428 -440 -424q-166 -4 -394 12q-12 98 -30 180q184 -24 410 -28q274 -6 292 276
q18 288 24 558h-534v154z" />
    <glyph glyph-name="uniE102" unicode="&#xe102;" 
d="M246 1553h1646v-164h-1476v-1396h1514v-164h-1684v1724z" />
    <glyph glyph-name="uniE103" unicode="&#xe103;" 
d="M144 1535h1696q-22 -964 -38 -1330q-18 -430 -410 -424q-160 0 -362 8q-8 78 -30 190q206 -20 368 -22q248 -2 262 272q18 378 30 1146h-778q-16 -647 -152 -962q-150 -378 -570 -680q-56 76 -120 148q394 276 532 622q126 292 134 872h-562v160z" />
    <glyph glyph-name="uniE104" unicode="&#xe104;" 
d="M160 1503h1638v-172h-1468v-528h1392v-170h-1392v-574h1504v-172h-1504v-120h-170v1736z" />
    <glyph glyph-name="uniE105" unicode="&#xe105;" 
d="M52 1537h1944v-164h-972v-436l92 128q458 -270 768 -486l-118 -162q-310 238 -742 502v-1174h-182v1628h-790v164z" />
    <glyph glyph-name="uniE106" unicode="&#xe106;" 
d="M1376 921q254 -416 554 -972l-160 -96q-44 84 -84 164q-684 -46 -1268 -86q-134 -14 -202 -38l-108 180q96 48 178 186q366 600 638 1390l164 -54q-348 -928 -706 -1500q496 26 1226 70q-208 390 -378 678z" />
    <glyph glyph-name="uniE107" unicode="&#xe107;" 
d="M30 903h534v718h166v-718h656v722h166v-722h468v-156h-468v-966h-166v966h-658q-8 -378 -96 -548q-98 -212 -428 -430q-42 64 -124 140q324 208 396 368q80 132 86 470h-532v156z" />
    <glyph glyph-name="uniE108" unicode="&#xe108;" 
d="M58 31h876v1334h-762v160h1704v-160h-766v-1334h878v-156h-1930v156z" />
    <glyph glyph-name="uniE109" unicode="&#xe109;" 
d="M60 1533h1928v-156h-790v-1304q0 -294 -308 -296q-142 0 -384 4q-10 78 -34 194q178 -16 364 -18q184 -8 184 180v1240h-960v156z" />
    <glyph glyph-name="uniE10A" unicode="&#xe10a;" 
d="M1086 789q270 -608 938 -814q-68 -90 -122 -164q-719 274 -966 918zM570 5q228 92 484 212q0 -94 8 -180q-238 -98 -456 -206q-80 -44 -148 -98l-120 154q68 54 68 146v1668h164v-1696zM690 1129q496 166 954 506l104 -130q-468 -342 -980 -524q-32 68 -78 148z" />
    <glyph glyph-name="uniE10B" unicode="&#xe10b;" 
d="M870 -29q296 -16 1154 10q-38 -100 -68 -182q-798 -12 -1120 2q-308 6 -470 236q-124 -106 -252 -266l-86 192q132 116 272 238v646h-258v156h430v-854q146 -170 398 -178zM260 1683q150 -182 316 -406q-64 -44 -146 -106q-166 254 -298 420z" />
    <glyph glyph-name="uniE10C" unicode="&#xe10c;" 
d="M352 1507q770 28 1454 112l58 -152q-144 -18 -297 -33q28 -1140 455 -1491q-88 -62 -156 -132q-434 437 -453 1609q-175 -16 -361 -29v-1622h-156v1613q-189 -11 -388 -19v-478q0 -704 -352 -1130q-34 38 -128 138q324 348 324 1028v586z" />
    <glyph glyph-name="uniE10D" unicode="&#xe10d;" 
d="M1744 -237v122h-817v1664h168v-1516h649v1514h168v-1784h-168zM671 1699l152 -78q-140 -242 -292 -452v-1450h-168v1232q-204 -248 -224 -256q-46 58 -116 120q334 288 648 884z" />
    <glyph glyph-name="uniE10E" unicode="&#xe10e;" 
d="M228 1499h1588v-1684h-172v194h-1244v-194h-172v1684zM1644 159v1190h-1244v-1190h1244z" />
    <glyph glyph-name="uniE10F" unicode="&#xe10f;" 
d="M437 747q-5 -658 -297 -1034q-48 62 -118 130q254 318 252 938v788h1580v-950h-160v128h-1257zM438 1421v-526h1256v526h-1256z" />
    <glyph glyph-name="uniE110" unicode="&#xe110;" 
d="M230 1587h1588v-1296h-156v120h-560v-676h-156v676h-560v-120h-156v1296zM1102 932v-377h560v888h-1276v-888h560v377h156z" />
    <glyph glyph-name="uniE111" unicode="&#xe111;" 
d="M336 1555h1434v-816h-156v80h-574q188 -642 978 -892q-74 -108 -116 -168q-844 332 -1014 1060h-394q-14 -694 -356 -1090q-22 30 -114 138q312 342 312 1026v662zM1614 1407h-1118v-440h1118v440z" />
    <glyph glyph-name="uniE112" unicode="&#xe112;" 
d="M392 723l94 658h-426v156h1928v-156h-1342l-70 -502h1188q-26 -432 -58 -780q-44 -320 -374 -320q-240 0 -500 8q-8 68 -34 174q216 -20 496 -24q224 0 250 192q30 280 48 594h-1200z" />
    <glyph glyph-name="uniE113" unicode="&#xe113;" 
d="M52 1541h1944v-156h-884v-1634h-176v1634h-884v156z" />
    <glyph glyph-name="uniE114" unicode="&#xe114;" 
d="M1694 -241v124h-1500v1694h164v-1542h1336v1542h164v-1818h-164z" />
    <glyph glyph-name="uniE115" unicode="&#xe115;" 
d="M1864 1477q-99 -763 -319 -1092.5t-642 -536.5l-102 131q284 145 482.5 335t281.5 495.5t137 702.5zM806 382l-140 -88q-309 586 -566 1057l119 73q268 -455 587 -1042z" />
    <glyph glyph-name="uniE116" unicode="&#xe116;" 
d="M1676 -253v126h-1472v1434h170v-1282h562v1654h174v-1654h566v1282h172v-1560h-172z" />
    <glyph glyph-name="uniE117" unicode="&#xe117;" 
d="M2002 -69q-86 -102 -140 -174q-490 160 -834 450q-342 -288 -876 -476q-44 74 -104 164q518 164 848 438q-386 406 -612 1166l156 60q220 -740 586 -1104q376 384 546 1108l174 -32q-204 -796 -584 -1198q342 -274 840 -402z" />
    <glyph glyph-name="uniE118" unicode="&#xe118;" 
d="M934 961h182v-1216h-182v1216zM136 1541l112 126q306 -240 622 -504l-132 -150q-314 292 -602 528zM1150 1153q334 234 642 508l132 -150q-304 -238 -660 -492z" />
    <glyph glyph-name="uniE119" unicode="&#xe119;" 
d="M1780 545q58 -26 178 -62q-26 -232 -60 -392q-50 -248 -422 -252q-496 -2 -914 -2q-420 8 -420 282q0 168 180 346q452 430 1086 922h-1244v158h1514v-170q-772 -586 -1212 -1006q-142 -136 -142 -230q0 -142 264 -148q390 -8 830 4q290 2 324 180q28 148 38 370z" />
    <glyph glyph-name="Faux_Hanzi_sans_manus" unicode="&#xe120;" 
d="M1994 39v-148h-1942v148h574v744h-476v152h1360v448q-656 36 -1258 100l66 156q600 -80 1352 -108v-1492h324zM1510 39v744h-724v-744h724z" />
    <glyph glyph-name="uniE121" unicode="&#xe121;" 
d="M128 1253h648q6 220 8 448h174q-4 -212 -10 -448h918q-24 -782 -46 -1106q-26 -344 -368 -348q-164 0 -396 8q-8 78 -30 190h6q260 -24 404 -22q194 4 214 214q24 358 36 900h-742q-18 -521 -166 -784q-158 -292 -616 -562q-56 72 -120 152q434 244 570 492
q141 225 158 702h-642v164z" />
    <glyph glyph-name="uniE122" unicode="&#xe122;" 
d="M186 1553h1646v-164h-1476v-1396h1514v-164h-1684v1724z" />
    <glyph glyph-name="uniE123" unicode="&#xe123;" 
d="M408 998v-1029q339 92 627 308q12 -90 32 -166q-346 -234 -659 -328q-56 -36 -116 -94l-112 140q72 64 72 178v1139h901q-21 183 0 557h160q-28 -377 -2 -557h602v-148h-582q22 -316 152 -612q240 399 310 568l144 -58q-102 -225 -390 -662q68 -134 156 -232
q108 -114 242 -114l2 -166q-222 0 -388 202q-70 86 -128 192q-238 -230 -552 -404q-48 60 -106 120q344 180 592 426q-155 306 -192 740h-765z" />
    <glyph glyph-name="uniE124" unicode="&#xe124;" 
d="M236 1563h1564v-972h-160v116h-1240v-528q-2 -196 200 -196h940q204 2 236 128q32 122 54 326q78 -32 172 -60q-30 -208 -60 -332q-60 -228 -358 -230h-1024q-324 0 -324 310v1438zM400 855h1240v560h-1240v-560z" />
    <glyph glyph-name="uniE125" unicode="&#xe125;" 
d="M40 883h930v516l-1 158h887v-158h-718v-516h870v-158h-870v-686q0 -136 -50 -196q-56 -70 -210 -74q-90 0 -338 2q-10 92 -32 182q226 -16 314 -16q90 0 120 34q28 28 28 126v628h-930v158z" />
    <glyph glyph-name="uniE126" unicode="&#xe126;" 
d="M564 1355l-52 -558h878l64 680h-1230v146h1406l-80 -826h378q-16 -466 -36 -716q-18 -314 -358 -314q-206 0 -390 6q-10 72 -28 172q230 -18 400 -18q196 0 212 184q18 204 28 540h-1424l68 704h164z" />
    <glyph glyph-name="uniE127" unicode="&#xe127;" 
d="M92 1283h574q6 184 6 410h172q0 -224 -6 -410h630v-1214q-6 -126 114 -126h96q126 0 142 118q22 142 32 334q78 -34 168 -62q-16 -174 -40 -324q-36 -220 -282 -220h-142q-264 0 -256 262v1078h-468q-20 -430 -76 -632q-134 -468 -596 -752q-50 62 -128 132
q430 258 556 668q52 164 72 584h-568v154z" />
    <glyph glyph-name="uniE128" unicode="&#xe128;" 
d="M775 1575l126 94q194 -230 298 -364l-144 -104q-138 196 -280 374zM255 1035h838v-992q218 100 674 387q-4 -102 6 -188q-576 -335 -654 -377q-50 -26 -134 -100l-122 156q66 54 66 146v808h-674v160z" />
    <glyph glyph-name="uniE129" unicode="&#xe129;" 
d="M42 985h1968v-158h-838v-786q0 -270 -266 -270q-168 0 -394 4q-10 80 -30 184q214 -18 374 -18q140 0 140 142v744h-954v158zM788 1565h561v-158h-561v158z" />
    <glyph glyph-name="uniE12A" unicode="&#xe12a;" 
d="M54 885h352v816h164v-816h1412v-156h-876q250 -548 918 -754q-68 -90 -122 -164q-719 274 -966 918h-366v-724q228 92 484 212q0 -94 8 -180q-238 -98 -456 -206q-80 -44 -148 -98l-120 154q68 54 68 146v696h-352v156zM690 1129q496 166 954 506l104 -130
q-468 -342 -980 -524q-32 68 -78 148z" />
    <glyph glyph-name="uniE12B" unicode="&#xe12b;" 
d="M253 1560h840v-1517q218 100 663 375q-4 -102 6 -188q-565 -323 -643 -365q-50 -26 -134 -100l-122 156q66 54 66 146v1333h-676v160z" />
    <glyph glyph-name="uniE12C" unicode="&#xe12c;" 
d="M352 1507q770 28 1454 112l58 -152q-144 -18 -297 -33q28 -1140 455 -1491q-88 -62 -156 -132q-434 437 -453 1609q-175 -16 -361 -29v-1622h-156v1613q-189 -11 -388 -19v-478q0 -704 -352 -1130q-34 38 -128 138q324 348 324 1028v586z" />
    <glyph glyph-name="uniE12D" unicode="&#xe12d;" 
d="M788 1409v152h1084v-1508q0 -286 -274 -286q-124 0 -318 4q-10 68 -32 166q184 -12 318 -12q146 0 146 152v1332h-924zM184 1297h160v-1552h-160v1552zM274 1609l114 102q134 -126 282 -280l-130 -114q-138 158 -266 292z" />
    <glyph glyph-name="uniE12E" unicode="&#xe12e;" 
d="M228 1499h1588v-1684h-172v194h-1244v-194h-172v1684zM1644 159v1190h-1244v-1190h1244z" />
    <glyph glyph-name="uniE12F" unicode="&#xe12f;" 
d="M437 747q-5 -658 -297 -1034q-48 62 -118 130q254 318 252 938v788h1580v-950h-160v128h-1257zM438 1421v-526h1256v526h-1256z" />
    <glyph glyph-name="uniE130" unicode="&#xe130;" 
d="M60 1567h1936v-148h-360v-1668h-160v664q-464 -146 -870 -304q-90 -38 -166 -94l-104 132q78 58 78 164v1106h-354v148zM1476 577v842h-902v-1144q418 142 902 302z" />
    <glyph glyph-name="uniE131" unicode="&#xe131;" 
d="M320 1557h1668v-164h-1488v-470q0 -446 -66 -680q-64 -238 -258 -486q-46 50 -146 126q178 218 234 420q56 190 56 584v670z" />
    <glyph glyph-name="uniE132" unicode="&#xe132;" 
d="M392 723l94 658h-426v156h1928v-156h-1342l-70 -502h1188q-26 -432 -58 -780q-44 -320 -374 -320q-240 0 -500 8q-8 68 -34 174q216 -20 496 -24q224 0 250 192q30 280 48 594h-1200z" />
    <glyph glyph-name="uniE133" unicode="&#xe133;" 
d="M372 1659h174v-808q692 292 1218 590l100 -164q-630 -326 -1318 -600v-444q0 -212 212 -212h692q228 0 258 154q34 148 72 434q86 -36 182 -70q-56 -324 -92 -450q-60 -236 -400 -236h-728q-370 0 -370 370v1436z" />
    <glyph glyph-name="uniE134" unicode="&#xe134;" 
d="M1694 -241v124h-1500v1694h164v-1542h1336v1542h164v-1818h-164z" />
    <glyph glyph-name="uniE135" unicode="&#xe135;" 
d="M1864 1477q-99 -763 -319 -1092.5t-642 -536.5l-102 131q284 145 482.5 335t281.5 495.5t137 702.5zM806 382l-140 -88q-309 586 -566 1057l119 73q268 -455 587 -1042z" />
    <glyph glyph-name="uniE136" unicode="&#xe136;" 
d="M1676 -253v126h-1472v1434h170v-1282h562v1654h174v-1654h566v1282h172v-1560h-172z" />
    <glyph glyph-name="uniE137" unicode="&#xe137;" 
d="M2002 -69q-86 -102 -140 -174q-490 160 -834 450q-342 -288 -876 -476q-44 74 -104 164q518 164 848 438q-386 406 -612 1166l156 60q220 -740 586 -1104q376 384 546 1108l174 -32q-204 -796 -584 -1198q342 -274 840 -402z" />
    <glyph glyph-name="uniE138" unicode="&#xe138;" 
d="M408 1563v-708h1240v708h164v-1438q0 -310 -324 -310h-1024q-298 2 -358 230q-30 124 -60 332q94 28 172 60q22 -204 54 -326q32 -126 236 -128h940q202 0 200 196v528h-1400v856h160z" />
    <glyph glyph-name="uniE139" unicode="&#xe139;" 
d="M1780 545q58 -26 178 -62q-26 -232 -60 -392q-50 -248 -422 -252q-496 -2 -914 -2q-420 8 -420 282q0 168 180 346q452 430 1086 922h-1244v158h1514v-170q-772 -586 -1212 -1006q-142 -136 -142 -230q0 -142 264 -148q390 -8 830 4q290 2 324 180q28 148 38 370z" />
    <glyph glyph-name="uniE13A" unicode="&#xe13a;" 
d="M390 276q98 0 170 -76t72 -177q0 -114 -73 -185.5t-176 -71.5t-177.5 73t-74.5 182q0 111 79 183t180 72zM387 -88q38 0 71 29t33 75q0 51 -32 81.5t-78 30.5q-43 0 -74 -30.5t-31 -80.5q0 -49 36.5 -77t74.5 -28z" />
    <glyph glyph-name="uniE13B" unicode="&#xe13b;" 
d="M618 -132l-120 -121q-169 184 -371 351l106 110q249 -201 385 -340z" />
    <glyph glyph-name="uniE13C" unicode="&#xe13c;" 
d="M1989 1474l-94 -98q-116 118 -252 223l88 98q120 -92 258 -223zM1803 1361l-98 -102q-137 147 -252 241l84 91q138 -102 266 -230z" />
    <glyph glyph-name="uniE13D" unicode="&#xe13d;" 
d="M618 1474l-94 -98q-116 118 -252 223l88 98q120 -92 258 -223zM432 1361l-98 -102q-137 147 -252 241l84 91q138 -102 266 -230z" />
    <glyph glyph-name="uniE13E" unicode="&#xe13e;" 
d="M775 295l126 94q194 -230 298 -364l-144 -104q-138 196 -280 374zM255 1663h838v-992q218 100 674 387q-4 -102 6 -188q-576 -335 -654 -377q-50 -26 -134 -100l-122 156q66 54 66 146v808h-674v160z" />
    <glyph glyph-name="uniE13F" unicode="&#xe13f;" 
d="M775 225l126 94q194 -230 298 -364l-144 -104q-138 196 -280 374zM972 1118q342 160 636 330h-1502v166h1778v-198q-358 -196 -732 -380v-259q0 -198 -76 -274q-74 -80 -214 -82q-110 0 -276 6q-12 100 -32 194q150 -22 294 -24q124 -2 124 182v339z" />
    <glyph glyph-name="Faux_Hiragana_serif" unicode="&#xe140;" 
d="M689 400l-72 -18l-64 -26l-34 -88l14 -72l48 -50l82 -36l100 -12l106 10l96 36l72 54l40 76l2 56l-118 44l-98 22l-92 8zM1281 1078l-94 -20l-2 -12v-136v-122l4 -108l4 -94l4 -78l8 -66l6 -46l108 -50l102 -62l94 -66l22 -44l-12 -48l-44 -22l-48 14l-82 64l-90 58
l-64 34l-4 -38l-72 -116l-110 -74l-126 -36l-126 -2l-122 26l-98 54l-60 86v104l66 112l4 -4l40 46l84 40l96 18l106 -2l110 -18l90 -24l-6 50l-6 82l-4 98l-2 110l-2 124l2 126l-24 -2l-132 -10l-128 2l-118 20l-100 34l-76 58l-28 82l18 4l50 -44l64 -32l88 -20l106 -8
l118 6l124 14l40 8v52l4 166l6 160l-2 4l-12 16l-16 16l-16 14l-20 14l-24 14l-28 6v18h30l32 2l28 -2l30 -6l28 -12l28 -14l24 -18l24 -22l10 -14h12v-14l16 -26v-50l-18 -18l-6 -236l-2 -20l60 16l94 32l66 36l48 6l40 -30l6 -48l-30 -40l-86 -38z" />
    <glyph glyph-name="uniE141" unicode="&#xe141;" 
d="M894 1206l-14 -48l-8 -6l6 -4l-144 -156l-6 -68l-2 -48l200 146l10 8l10 6l18 12l2 -2l112 60l142 42l134 12l124 -16l114 -40l96 -62l78 -80l54 -98l28 -110l-2 -6l4 2l6 -122l-18 -112l-42 -104l-64 -90l-82 -76l-98 -62l-114 -50l-130 -36l-140 -20l-154 -4l-2 18
l138 32l126 40l110 46l94 56l78 62l62 68l46 74l32 82l14 88v94h4l-6 12l-12 76l-34 70l-52 64l-72 52l-88 38l-104 20l-116 -2l-128 -28l-140 -56l-94 -50l-150 -142l-6 -172l-4 -154v-154l4 -154l6 -154l-16 -46l-44 -22l-46 16l-22 44l-4 82h-4l-2 28l-4 30l-8 30l-14 32
l-16 32l-20 34l-24 36l-30 36l-34 38l-38 38l12 16l92 -56l42 -28l36 -30l6 -6v158l2 158l2 30l-106 -112l-112 -134l-48 -64l-38 -58l-4 2l-22 -22l-50 -2l-46 44l-10 56l14 48l26 50l36 58l46 64l128 158l112 122l92 130l8 102l2 8l-114 -12l-80 -4l-76 4l-68 16l-58 32
l-42 50l-8 66l18 4l36 -38l36 -22l42 -12l52 -2l64 2l72 10l138 28l20 184l22 156l-8 18l-14 18l-18 16l-22 18l-28 14l-32 12l-38 6v18l40 2l38 4l38 -4l36 -6l32 -14l32 -20l28 -26l24 -30l20 -36l16 -38l-10 -48l-18 -14l-10 -62l-16 -142l64 12l48 -12zM594 834
l-244 -282l134 124l106 92z" />
    <glyph glyph-name="uniE142" unicode="&#xe142;" 
d="M330 554l42 94l60 84l74 70l88 60l100 46l106 38l116 26l122 14h124l126 -10v-10v-8l-122 -20l-118 -22l-110 -28l-104 -32l-92 -40l-80 -48l-68 -54l-54 -60l-40 -68l-28 -76l-4 2l-10 -82l10 -70l22 -62l38 -52l56 -46l68 -36l86 -24l96 -14h62l32 6l72 22l70 28l66 32
l64 34l272 180l6 8l48 14l32 -10l32 -16l26 -22l22 -26l18 -28l12 -30l8 -34l4 -36l2 -38l2 -40l-20 -2l-8 36l-16 32l-16 28l-18 22l-16 16l-16 12l-16 6l-10 4l-238 -124l-68 -32l-72 -28l-76 -26l-26 -4l-114 -42l-120 -16h-2l-114 2l-106 20l-94 38l-80 54l-64 74
l-40 90l-16 102l14 114l4 6z" />
    <glyph glyph-name="uniE143" unicode="&#xe143;" 
d="M1354 902l-314 -100l-148 -56l-134 -62l-114 -66l-86 -76l-48 -80l-8 -94l28 -72l10 -22l62 -62l86 -42l108 -26l126 -12l142 2l148 10l150 18l146 22l48 -12l20 -30l4 -2l24 -44l-14 -46l-44 -24l-152 -14l-158 -10l-162 -4l-156 6l-146 20l-130 40l-108 66l-74 94
l-28 124l24 106l-2 22l48 110l92 96l120 82l140 74l38 16l-20 2l-26 6l-26 12l-22 16l-24 18l-20 24l6 4l-24 24l-10 36l-10 40l-8 44l-2 50l-2 54v62l2 64l2 72l14 152l-4 8l-14 18l-16 16l-20 14l-24 12l-26 10l-32 10h-36l-2 20l38 6l34 6l36 2l34 -2l32 -6l34 -12
l30 -18l28 -22l26 -28l22 -30l2 -48l-18 -24l-2 -18l-6 -74l-4 -68l-2 -64v-54l2 -50l4 -44l4 -36l6 -30l8 -20v-16l8 4l6 -16l6 -16l8 -14l8 -12l10 -12l12 -8l14 -10l18 -6l20 -8l22 4v-2l420 160l2 -4l4 2l10 10l8 12l2 16v18l-4 20l-10 22l-16 24l10 18l32 -12l30 -18
l22 -26l16 -32l6 -38l-4 -42l-18 -38l-32 -36l-14 -10l4 -6l-22 -8l-8 -6l-54 -22z" />
    <glyph glyph-name="uniE144" unicode="&#xe144;" 
d="M1174 68l-150 6l-122 14l-102 24l-82 36l-64 52l-46 66l-24 74l-8 54h-4v506l-222 -36l-44 -8l-4 -4l-48 -6h-6v4l-28 12l-30 18l-26 22l-24 20l-24 26l-18 26l-16 28l-12 28l-8 30l-12 30l20 8l14 -24l22 -22l20 -16l22 -16l22 -12l22 -12l24 -8l38 -12l80 10l226 22h12
v386l4 -2l-4 6l-18 20l-22 16l-24 16l-30 14l-32 12l-34 4v20l76 6l36 -2l36 -6l34 -10l34 -16l30 -20l28 -26l26 -28l22 -34l2 -48l-32 -38h-2v-258l68 12l484 64l42 6l2 68l4 164l2 174l-8 10l-20 16l-22 14l-26 14l-30 12l-34 4v18l36 2l36 6l34 -2l34 -6l32 -10l30 -14
l30 -18l26 -24l24 -28l20 -32l2 -48l-34 -36h-2l-2 -54l-2 -164l-2 -48l122 16l126 14l106 6h84l74 -24l26 -42l-12 -48l-40 -26l-50 12l-16 4l-66 6l-98 -2l-122 -8l-138 -10l-8 -126l-10 -112l-14 -94l-14 -80l-20 -64l-26 -50l-44 -42l-48 -4l-38 30l-2 16l-196 168
l-38 28l10 16l44 -20l42 -14l76 -32l68 -30l32 -14l2 -2l12 44l14 70l12 88l10 108l6 102l-590 -84v-496l8 -56l16 -46l22 -34l36 -28l56 -26l82 -18l112 -12l140 -6l174 2l210 10l46 -18l22 -44l-18 -46l-44 -22l-212 -10z" />
    <glyph glyph-name="uniE145" unicode="&#xe145;" 
d="M930 1206l42 10l4 40l4 6l-8 88l-48 74l-82 58l-108 34l-116 8l-110 -14l-88 -40l-58 -60l-16 -88l24 -74l64 -40l94 -28l116 -8l136 8zM1456 496l172 -48l36 -34l2 -50l-32 -34l-50 -4l-162 60l-130 42l-52 12l-46 10l-36 6l-30 2h-26l-22 -6l-4 6l-2 -68l2 -218l26 -26
l2 -48l-18 -36l-24 -34l-26 -28l-28 -24l-30 -18l-32 -14l-34 -10l-34 -2l-34 2l-36 2v20l32 6l28 12l24 14l20 16l18 18l14 20l6 10h-2l-2 176v162l2 288l2 126l4 116l4 100l4 90l-14 -4l-160 -18h-146l-132 22l-106 50l-24 34l-10 -6l-66 128l6 118l66 92l106 62l130 28
h138l134 -36l118 -70l84 -116l20 -140l132 46l146 62l132 70l110 74l48 10l42 -24l12 -48l-26 -42l-124 -78l-144 -72l-158 -60l-182 -54l-2 -36l-6 -88l-4 -100l-4 -112l-2 -124v-198l8 12l30 22l38 10l46 8l54 -2l62 -6l66 -10z" />
    <glyph glyph-name="uniE146" unicode="&#xe146;" 
d="M1764 1204l-62 2l-84 2l-102 -2l-248 -8l-32 -6v-34l2 -158l2 -136v-98l18 -62l18 -86l-4 -16l8 2v-122l-16 -112l-30 -98l-42 -90l-56 -78l-64 -68l-74 -56l-80 -50l-88 -40l-94 -32l-6 18l82 50l74 52l70 56l58 60l50 66l40 70l28 78l18 84l4 44l-8 -12l-68 -44h-32
l4 -16l-94 -4l-82 22l-64 48l-44 62l-26 70l-8 74l8 74l22 70l40 60l10 8v2l58 56l62 36l62 18l62 -2l54 -20l-4 218v14l-562 -92l-138 -24l-6 -8l-48 -6l-6 2l-14 -2v10l-16 6l-32 20l-28 20l-26 26l-20 26l-16 30l-12 30l-8 32l-4 34l-4 32l20 4l10 -30l18 -24l16 -20
l18 -18l20 -14l20 -12l24 -10l22 -8l16 -4l94 8l86 6l100 8l114 12l136 10l212 32l14 2v90l4 208l-38 30l-50 28l-28 10l-32 12l-34 6v18l36 4l36 4l34 2l36 -4l34 -6l32 -10l32 -14l32 -16l28 -18l28 -24l14 -48l-22 -42l-12 -4l-2 -136l2 -74l152 20l226 24l86 6l66 6h54
l42 -6l38 -32l4 -48l-32 -38l-50 -4l-14 6zM1078 546l16 46l12 68l4 90v24l-6 18l-22 36l-22 26l-28 16l-34 8l-46 -2l-58 -16l-44 -16l-16 -24l-20 -58l-8 -60l4 -60l16 -54l24 -46l32 -34l38 -20l44 -8l54 8l8 10l30 20z" />
    <glyph glyph-name="uniE147" unicode="&#xe147;" 
d="M1224 -22l-54 16l-52 28l-42 38l-32 48l-24 56l-16 62l-10 70l-2 76l4 68l-4 66l-10 54l-18 38l-22 28l-30 20l-48 6l-64 -6l-84 -28l-24 -10l-120 -126l-80 -94l-36 -48l-58 -88l-24 -44l-20 -42l-12 -10l-64 -146l-36 -32h-48l-34 34v50l126 286l268 560l210 412
l74 136h2l-4 18l-6 20l-8 20l-14 20l-16 18l-22 18l-26 16l-34 12l4 20l36 -6l36 -2l34 -10l30 -14l30 -18l26 -22l22 -28l18 -34l14 -36l8 -40l-18 -46l-24 -12l-326 -638l-90 -190l72 54l18 12l-2 4l92 76l88 44l80 24l76 -2l66 -26l52 -46l36 -64l22 -74l10 -80v-72
l2 -66l8 -54l12 -46l16 -36l16 -26l20 -18l24 -12l28 -8l34 -2l46 4l14 -4l68 18l72 30l66 40l62 48l56 58l52 68l46 80l42 90l38 102l32 112l18 -2l-12 -120l-22 -108l-30 -102l-42 -92l-50 -84l-58 -74l-66 -62l-76 -54l-82 -44l-92 -32l-4 12l-12 -8l-62 -6z" />
    <glyph glyph-name="uniE148" unicode="&#xe148;" 
d="M1442 -8l-114 10l-88 20l-68 38l-46 56l-20 62l-10 62l-6 64l-10 54l-4 10l-2 36l-8 28l-12 18l-18 14l-24 12l-40 2l-52 -6l-62 -18l-158 -104l-94 -74l-34 -30l-132 -146l-10 -16l-2 2l-78 -88l-44 -20l-46 16l-20 44l14 46l310 346l298 312l284 280l14 14l-38 -8
l-10 -2l-212 -64l-288 -84l-12 -2v-2l-48 -12l-30 12l-26 18l-22 22l-16 24l-12 28l-6 28l-4 30l2 32l4 34l2 34h20l4 -32l10 -30l12 -26l12 -18l12 -16l14 -8l12 -6h10l-2 6l84 10l250 36l44 8l120 34l56 22l116 50l38 10l44 -4l42 -26l26 -38l-82 -40l82 40l2 -48l-30 -38
h-20l-270 -262l-236 -242l14 10l68 32l64 20l62 6l56 -12l52 -28l38 -44l24 -54l8 -40h4l14 -78l6 -64l8 -48l10 -30l12 -16l30 -16l62 -14l98 -8h142l186 12l46 -16l22 -44l-14 -48l-46 -22l-190 -10zM1242 1330l-10 2l-56 4l-14 2l-32 -2l-44 -4l-50 -8l-52 -12l-56 -16
l-190 -60l-10 16l60 42l58 38l56 30l50 24l-16 6l-64 32l-56 38l-46 44l-36 50l-26 56l-14 58l20 8l30 -48l36 -40l38 -34l44 -28l52 -22l56 -20l64 -14l70 -10l80 -4h88l44 -20l20 -44l-20 -46l-44 -20z" />
    <glyph glyph-name="uniE149" unicode="&#xe149;" 
d="M682 -88l-6 18l130 64l116 62l104 66l88 70l74 72l62 78l48 82l34 88l24 96l4 36v2l4 78l2 78l-6 72l-14 64l-22 56l-34 48l-50 38l-70 28l-96 14h-2l-22 -4l-70 -28l-64 -36l-56 -40l-54 -44l-46 -44l-78 -90l-44 -54l2 -2l-32 -38l-50 -4l-38 32l-12 40l-8 42l-4 40
l2 40l6 38l12 38l14 34l20 36l52 64l16 -10l-16 -36l-10 -36l-4 -34l-2 -32v-32l4 -28l6 -20l96 84l58 44l64 40l70 36l64 20l-2 10l128 32l114 2l96 -22l80 -42l62 -62l46 -72l28 -80l14 -86l4 -88l-2 -28h2l-4 -28l-2 -32l-4 -4l-10 -70l-38 -118l-52 -108l-64 -94
l-82 -80l-90 -70l-106 -60l-116 -50l-128 -42l-136 -32l-2 -2h-2zM1178 1426l-14 4l-22 2l-28 -4l-34 -4l-36 -10l-88 -32l-106 -44l-58 -28l-10 16l98 80l46 34l42 28l12 8l-20 6l-52 26l-48 30l-48 36l-44 38l-44 48l12 14l106 -54l50 -20l50 -18l48 -14l46 -8l48 -6
l46 -2l44 4l46 6l48 -14l24 -42l-14 -48l-44 -24h-54z" />
    <glyph glyph-name="uniE14A" unicode="&#xe14a;" 
d="M1830 132l-6 -26l6 -10l-14 -46l-42 -26l-68 -6l-66 -4l-64 -2h-62l-62 2l-58 6l-58 6l-56 10l-52 12l-52 16l2 4l-24 10l-60 34l-48 38l-36 46l-22 50l-8 54l6 54l18 54l30 54l40 58l16 -12l-24 -60l-12 -54l-4 -46l6 -40l12 -30l20 -26l26 -22l38 -20l48 -20l12 -4h4
l42 -10l46 -8l50 -6l50 -4l54 -2h54l58 4l60 6l60 8l66 8l46 -10zM1656 1034l62 -10l40 -30l6 -48l-30 -40l-62 -10l-36 -6l-38 -12l-40 -14l-92 -40l-162 -82l-60 -34l-12 16l50 50l96 84l86 64h-8l-68 -4l-72 -10l-70 -12l-70 -16l-68 -16l-72 -12l-8 18l58 48l68 32
l70 28l74 22l74 18l74 10l72 8l70 2zM836 1164l-26 -4l-96 -308l-114 -312l-60 -150l-128 -282l-68 -134l-40 -32l-48 4l-30 38l2 50l68 130l124 276l116 298l108 318l26 84l-82 -8l-102 -4l-88 10l-78 24l-64 38l-46 56l-20 70l18 8l48 -42l42 -32l50 -20l62 -8l76 -2l92 8
l110 18l18 4l80 298l-8 12l-10 16l-16 18l-20 16l-24 16l-30 16l-32 10l2 20l38 -4l34 -2l34 -6l30 -8l30 -10l26 -16l24 -18l24 -24l16 -28l14 -30l-10 -48l-10 -8l-50 -192l270 64l48 -8l28 -40l-8 -48l-40 -30l-162 -34z" />
    <glyph glyph-name="uniE14B" unicode="&#xe14b;" 
d="M1780 582l14 -10l-108 -182l-122 -144l-126 -110l-130 -78l-126 -50l-122 -26l-112 -4l-98 14l-82 32l-26 20l-42 30l-42 44l-32 52l-28 62l-18 66l-12 76l-8 82l2 90l4 72v62l10 154l16 176l56 426l6 -2l-4 14l-8 26l-12 24l-16 24l-18 22l-22 22l-26 20l-30 20l-34 14
l4 18l78 -12l36 -10l36 -16l32 -18l30 -26l28 -28l22 -32l22 -36l16 -40l-8 -50l-14 -10l-58 -366l-24 -172l-18 -148l-8 -128l2 -106l14 -86l24 -72l38 -62l54 -52l38 -22l56 -16l72 -10l86 4l98 20l110 38l120 60l128 84l136 114z" />
    <glyph glyph-name="uniE14C" unicode="&#xe14c;" 
d="M792 350l-60 -68l-92 -78l-98 -56l-100 -28l-34 8l-22 -4l-36 16l-30 22l-24 24l-22 30l-16 30l-2 6l-16 18l-26 36l-20 42l-16 42l-8 48l-2 50l2 52l8 54l12 14l-2 20l44 88l54 78l68 72l76 64l88 56l10 4l-12 94l-14 144l-4 154l-8 12l-12 14l-16 14l-20 12l-26 12
l-26 2v20l30 2l28 4l30 -2l28 -4l28 -10l28 -14l24 -18l22 -22l14 -20h4v-4l18 -32l-4 -50l-10 -8l2 -52l12 -138l6 -52l76 28l120 34l132 26l66 10l18 2l48 134l74 228l-12 18l-12 18l-18 14l-22 14l-26 8l-32 10l-36 -2l-4 20l74 14l36 4l36 -4l32 -10l32 -16l30 -24
l24 -28l22 -34l18 -38l-8 -48l-34 -28l-52 -158l-28 -78l50 4l120 -10l110 -22l96 -42l84 -58l70 -74l52 -92l36 -106l-4 -16l12 2l4 -160l-28 -142l-56 -126l-78 -108l-100 -86l-116 -66l-128 -52l-140 -32l-144 -14l-150 2v2v18l136 28l130 38l120 46l106 56l92 68l78 76
l58 88l38 102l20 116l-2 122l-18 72l-22 64l-30 54l-38 48l-46 42l-58 36l-36 18l-62 20l-110 16l-70 4l-26 -76l-82 -194l-82 -172l-84 -148l-36 -50l34 -42l62 -60l22 -44l-16 -46l-44 -22l-46 14l-74 72zM304 562l-14 -44l-10 -40l-6 -38l-2 -36l4 -30l4 -12l16 -30
l14 -24l18 -20l16 -14l18 -12l16 -8l20 -2l18 -2l4 -4l2 2l70 18l72 42l76 66l74 84l-26 40l-50 100l-42 108l-34 118l-16 70l-54 -44l-62 -60l-52 -64l-38 -70l-30 -72l-8 -8zM980 1094l-4 -2l-112 -38l-112 -44l-88 -44l22 -112l32 -106l38 -98l38 -76l82 142l78 164
l78 190l10 26z" />
    <glyph glyph-name="uniE14D" unicode="&#xe14d;" 
d="M1974 400l14 -12l-62 -96l-74 -78l-76 -60l-80 -42l-78 -20h-78l-72 26l-58 54l-34 78l-8 96l4 -2l4 34l4 46l26 164l24 130l30 148l16 80l6 -2v32l12 42l2 50l-10 50l-24 40l-40 26l-66 10l-100 -22l-138 -66l-174 -122l-108 -90l-116 -112l-6 -166l-4 -154v-154l4 -154
l6 -154l-16 -46l-44 -22l-46 16l-22 44l-4 82h-4l-2 28l-4 30l-8 30l-14 32l-16 32l-20 34l-24 36l-30 36l-34 38l-38 38l12 16l92 -56l42 -28l36 -30l6 -6v158l2 158l2 26l-158 -170l-58 -70l-50 -66l-38 -58l-4 2l-22 -22l-50 -2l-46 44l-10 56l14 48l26 50l36 58l46 64
l128 158l112 122l92 130l8 102l2 8l-114 -12l-80 -4l-76 4l-68 16l-58 32l-42 50l-8 66l18 4l36 -38l36 -22l42 -12l52 -2l64 2l72 10l138 28l20 184l22 156l-8 18l-14 18l-18 16l-22 18l-28 14l-32 12l-38 6v18l40 2l38 4l38 -4l36 -6l32 -14l32 -20l28 -26l24 -30l20 -36
l16 -38l-10 -48l-18 -14l-10 -62l-16 -142l64 12l48 -12l24 -42l-14 -48l-8 -6l6 -4l-144 -156l-6 -68l-2 -42l166 128l14 16l172 140l144 84l126 38l106 -6l82 -46l52 -70l26 -82l4 -80l-18 -78l-6 -6l8 -2l-44 -224l-24 -128l-10 -58l-10 -68h4l-6 -84l10 -58l20 -38
l28 -26l42 -14h54l68 18l76 36l80 54l76 66l6 6h2zM594 834l-244 -282v-2l74 72l166 148z" />
    <glyph glyph-name="uniE14E" unicode="&#xe14e;" 
d="M938 30l-2 18l134 38l128 44l118 52l106 64l92 72l74 86l58 96l38 112l16 130l-8 126l-12 78l-34 102l-52 92l-64 80l-82 66l-94 54l-108 40l-124 24l-132 10l-10 2l16 -8l24 -16l22 -18l18 -22l16 -26l12 -28l4 -16h6l-4 -8l2 -4l-90 -308l-46 -140l-48 -126l-52 -112
l-54 -98l-54 -86l-58 -72l-62 -60l-50 -34l2 -2l-14 -6l-2 -2h-4l-60 -24l-78 -2l-72 26l-58 50l-44 64l-32 74l-22 86l-10 94v98l14 102h-6l32 112l42 104l58 96l70 88l80 78l94 68l104 54l116 42l126 26h14l54 14l146 6l136 -14l128 -32l116 -52l104 -72l88 -88l68 -108
l50 -124l26 -138v-2h2l-2 -170l-32 -148l-56 -130l-80 -106l-96 -88l-112 -66l-122 -50l-132 -36l-138 -20zM316 598l10 -76l16 -68l24 -56l26 -38l28 -24l28 -12l30 2l26 10v2l46 30l48 48l48 60l50 74l48 92l48 104l46 120l46 136l44 148l42 158l-2 16l-6 16l-10 18
l-12 18l-16 18l-18 16l-94 -32l-104 -50l-90 -58l-78 -66l-66 -76l-56 -80l-42 -88l-32 -94l-18 -86l2 -10l-10 -88z" />
    <glyph glyph-name="uniE14F" unicode="&#xe14f;" 
d="M1156 1266v6l-10 10l-20 14l-26 14l-36 16l-42 14l-168 50l-32 8l-146 -22l-106 -40l-28 -42l12 -68l52 -112l70 -116l122 62l130 58l140 52l148 44l158 28h6l58 14l118 4l98 -18l80 -34l64 -50l44 -62l26 -68l10 -70l-4 -70l-16 -66l-6 2l-34 -56l-58 -54l-72 -46
l-84 -32l-90 -20l-98 -6l-102 14l-100 32l-98 58l-88 82l14 14l96 -60l94 -38l94 -18l88 -2l82 14l76 24l62 34l52 38l34 40l16 38l4 -2l12 34l6 46v48l-12 44l-24 42l-38 40l-58 32l-80 24l-106 10l-64 2l-144 -42l-140 -54l-130 -60l-122 -66l-112 -66l82 -136l128 -228
l128 -266l118 -312l-6 -48l-36 -32l-10 2l-14 -12l-48 4l-32 38l-102 304l-116 264l-116 226l-74 134l-194 -124l-40 -22l-4 -10l-44 -22l-42 4l-38 10l-38 14l-30 18l-26 24l-20 26l-12 30l-8 34v32l-2 34l20 2l6 -32l16 -22l16 -20l16 -14l16 -8l20 -6l20 -4h24l12 2
l78 38l202 110l-64 122l-52 134l-2 114v2l72 82l136 34l206 -8l52 -2l58 -2l48 -4l-12 20l-20 44l-20 50l-12 52l-10 54l-6 58l18 4l22 -52l24 -46l26 -44l26 -38l26 -34l28 -30l30 -26l32 -22l32 -20l34 -16l32 -38l-4 -50l-38 -30l-50 2l-26 20z" />
    <glyph glyph-name="uniE150" unicode="&#xe150;" 
d="M692 780l18 2l62 -156l84 -118l102 -86l114 -54h8l22 56l34 152l20 184l4 210l-10 250l-106 -4l-132 -92l-120 -98l-100 -102l-78 -104l-64 -102l-46 -98l-32 -86l-20 -72l-8 -52l2 -14l-8 -40l2 -4l14 -46l-22 -44l-48 -14l-44 22l-42 72l-26 84l-16 94l-4 104l4 110
l8 116l16 118l20 116l44 212l-4 14l-6 22l-8 20l-24 36l-16 18l-16 18l-24 12l6 18l26 -6l28 -6l28 -8l26 -14l24 -16l24 -22l20 -24l18 -26l16 -32l8 -18h4l-2 -4l4 -10l-8 -48l-10 -8l-32 -150l-18 -114l-16 -112l-8 -110l-2 -102v-12l24 54l56 102l76 108l94 106l114 100
l134 90l152 62l8 2l108 30l-16 266v4l-8 10l-16 16l-18 16l-22 14l-26 12l-28 12l-34 4v20l36 2l32 4h34l32 -6l32 -8l30 -12l30 -18l26 -20l26 -26l22 -28l4 -48l-20 -26l8 -174l74 2h2l136 -26l116 -50l96 -72l72 -92l50 -104l22 -112l-4 -116l-32 -118l-8 -8l6 -2
l-90 -134l-114 -100l-134 -66l-140 -30l-144 2l-18 6l-22 -56l-88 -118l-112 -90l-138 -64l-162 -42l-6 18l2 2l-4 10l142 84l116 88l92 96l64 98l-30 8l-128 70l-102 104l-68 140l-26 170v2zM1698 820l-12 88l-30 82l-50 74l-66 64l-92 50l-112 32l-62 4l2 -236v-2v-10
l-10 -238l-22 -204l-42 -170l88 6l122 34l108 62l90 84l54 88l-2 12l28 90z" />
    <glyph glyph-name="uniE151" unicode="&#xe151;" 
d="M978 289l288 -70l40 -30l6 -48l-30 -38l-48 -8l-284 78l-150 36l18 -60l64 -180l16 -14l6 -50l-16 -26l-18 -24l-22 -20l-26 -16l-24 -10l-28 -10l-30 -4h-28l-32 2h-32l-2 18l30 6l26 12l22 14l18 12l14 14l12 14l6 16l-4 -2l-74 208l-40 126l-72 10l-94 2l-76 -8
l-56 -22l-42 -38l-34 -62h-20l2 88l48 70l76 44l94 22l108 4l36 -2l-22 86l-50 222l-22 110l-18 114l-16 108l-6 12v28l10 24l14 24l20 20l22 18l50 2l34 -32l4 2l26 -38l30 -38l32 -34l38 -34l42 -34l46 -32l94 -56l138 -30l134 -10l116 12l76 22l10 4l38 24l32 22l24 26
l20 24l14 24l8 26l4 28l2 28l2 6l-10 68l-20 66l-36 62l-52 58l-66 54l-86 48l-100 42l-118 38l-136 32l-98 18l-138 10v18l138 12h134l124 -10l118 -22l108 -32l98 -42l88 -54l76 -64l64 -74l46 -86l-8 -4l20 -24l12 -112l-24 -104l-54 -86l-80 -68l-100 -46l-118 -24
l-132 -4l-144 22l-152 50l-48 14l-58 22l-54 26l-52 30l-48 32l-26 22l2 -14l18 -110l20 -110l48 -214l36 -132l76 -12z" />
    <glyph glyph-name="uniE152" unicode="&#xe152;" 
d="M978 1190l-138 -28l-76 -12l-36 -132l-48 -214l-20 -110l-18 -110l-2 -14l26 22l48 32l52 30l54 26l58 22l48 14l152 50l144 22l132 -4l118 -24l100 -46l80 -68l54 -86l24 -104l-12 -112l-20 -24l8 -4l-46 -86l-64 -74l-76 -64l-88 -54l-98 -42l-108 -32l-118 -22
l-124 -10h-134l-138 12v18l138 10l98 18l136 32l118 38l100 42l86 48l66 54l52 58l36 62l20 66l10 68l-2 6l-2 28l-4 28l-8 26l-14 24l-20 24l-24 26l-32 22l-38 24l-10 4l-76 22l-116 12l-134 -10l-138 -30l-94 -56l-46 -32l-42 -34l-38 -34l-32 -34l-30 -38l-26 -38l-4 2
l-34 -32l-50 2l-22 18l-20 20l-14 24l-10 24v28l6 12l16 108l18 114l22 110l50 222l22 86l-36 -2l-108 4l-94 22l-76 44l-48 70l-2 88h20l34 -62l42 -38l56 -22l76 -8l94 2l72 10l40 126l74 208l4 -2l-6 16l-12 14l-14 14l-18 12l-22 14l-26 12l-30 6l2 18h32l32 2h28l30 -4
l28 -10l24 -10l26 -16l22 -20l18 -24l16 -26l-6 -50l-16 -14l-64 -180l-18 -60l150 36l284 78l48 -8l30 -38l-6 -48l-40 -30z" />
    <glyph glyph-name="uniE153" unicode="&#xe153;" 
d="M1266 868l8 20l130 -48l110 -72l90 -92l62 -108l36 -116l2 -120l-32 -120l-70 -110l-110 -90l-130 -58l-26 -16l-162 -16l-142 12l-122 40l-98 66l-72 92l-46 108l-20 124v138l14 82l-14 2l-52 12l-46 20l-42 22l-38 28l6 8l-20 8l-32 46l-22 48l-10 46l2 48l16 42l28 38
l36 30l44 26l112 46l6 -18l-52 -30l-40 -36l-30 -32l-18 -30l-8 -26v-20l4 -20l12 -20l18 -22l26 -26l6 -14l4 4l20 -16l26 -14l32 -12l40 -10l18 -4l4 12l8 78l22 124l28 120l6 26l-104 20l-86 32l-72 46l-56 62l-30 78l4 88h20l32 -70l34 -52l46 -38l58 -28l74 -20l84 -10
l22 -2l22 92l20 104l14 96l4 88h6v6l-8 20l-14 20l-16 20l-20 18l-24 18l-30 18l-36 10l2 20l40 -6l38 -2l34 -6l34 -12l32 -18l28 -22l24 -26l22 -30l16 -28l16 -42l-12 -48l-14 -8l-22 -110l-30 -108l-20 -64l72 4l112 10l114 18l48 -12l26 -42l-12 -48l-42 -26l-122 -14
l-116 -6h-114h-4l-50 -154l-30 -118l-18 -84l16 -2l58 -2l64 2l70 4l78 8l46 -14l26 -42l-14 -48l-42 -24l-82 -8l-76 -6l-70 -2l-66 2l-28 4l-4 -32l-6 -114l4 -54l26 -106l42 -84l58 -62l74 -44l94 -26l118 -6l134 18l-2 4l104 50l78 64l52 78l30 88l8 94l-14 98l-40 96
l-60 88l-86 80z" />
    </font>
</defs>
</svg>
